<svg xmlns="http://www.w3.org/2000/svg" xmlns:xlink="http://www.w3.org/1999/xlink" width="80" height="80" viewBox="0 0 80 80">
  <defs>
    <clipPath id="clip-path">
      <rect id="SVGID" width="4.634" height="6.254" fill="#fff"/>
    </clipPath>
    <clipPath id="clip-path-3">
      <rect id="SVGID-3" data-name="SVGID" width="3.418" height="5.531" fill="#fff"/>
    </clipPath>
    <clipPath id="clip-path-4">
      <rect id="SVGID-4" data-name="SVGID" width="3.417" height="5.531" fill="#fff"/>
    </clipPath>
    <clipPath id="clip-path-5">
      <rect id="SVGID-5" data-name="SVGID" width="6.563" height="6.578" fill="#fff"/>
    </clipPath>
  </defs>
  <g id="Group_18903" data-name="Group 18903" transform="translate(-3636.03 -257.03)">
    <g id="Group_18902" data-name="Group 18902" transform="translate(3636 257)">
      <rect id="Rectangle_6594" data-name="Rectangle 6594" width="80" height="80" rx="14" transform="translate(0.03 0.03)" fill="#cc9017"/>
      <g id="Group_114" data-name="Group 114" transform="translate(19.992 23.963)">
        <path id="Path_103" data-name="Path 103" d="M162.808,42.792a1.227,1.227,0,0,1-1.13,1.325c-.575-.045-.869-.62-.868-1.26a1.186,1.186,0,0,1,.888-1.318,1.119,1.119,0,0,1,1.11,1.253" transform="translate(-145.285 -38.614)" fill="#fff"/>
        <path id="Path_104" data-name="Path 104" d="M235.366,59.644a.915.915,0,0,1-.647.99c-.4.061-.758-.312-.736-.849a.976.976,0,0,1,.787-.994c.383,0,.593.38.6.854" transform="translate(-210.568 -54.01)" fill="#fff"/>
        <path id="Path_105" data-name="Path 105" d="M211.643,83.652a.977.977,0,0,1-1.039.7c-.491,0-.87-.219-.857-.624a1.066,1.066,0,0,1,1.042-.854c.549-.028.924.349.854.779" transform="translate(-188.947 -75.497)" fill="#fff"/>
        <path id="Path_106" data-name="Path 106" d="M213.743,20.449a1.038,1.038,0,0,1-1.132,1.18,1.524,1.524,0,0,1-1.44-1.324c-.021-.651.506-1,1.179-.991a1.353,1.353,0,0,1,1.393,1.135" transform="translate(-190.216 -18.79)" fill="#fff"/>
        <path id="Path_107" data-name="Path 107" d="M179.614,85.107c.033.315-.245.509-.628.507a.787.787,0,0,1-.807-.571.533.533,0,0,1,.624-.591.862.862,0,0,1,.81.655" transform="translate(-160.776 -76.905)" fill="#fff"/>
        <path id="Path_108" data-name="Path 108" d="M181.167,17.788a1.124,1.124,0,0,1-1.093.908.764.764,0,0,1-.893-.824,1.025,1.025,0,0,1,1.091-.745c.512,0,.909.23.895.66" transform="translate(-161.668 -16.84)" fill="#fff"/>
        <g id="Group_54" data-name="Group 54" transform="translate(16.255 2.718)" style="mix-blend-mode: multiply;isolation: isolate">
          <g id="Group_53" data-name="Group 53">
            <g id="Group_52" data-name="Group 52" clip-path="url(#clip-path)">
              <g id="Group_51" data-name="Group 51">
                <g id="Group_50" data-name="Group 50" clip-path="url(#clip-path)">
                  <path id="Path_109" data-name="Path 109" d="M195.154,66.418a.853.853,0,0,1-1.3.215,1.112,1.112,0,0,1-.043-1.559.843.843,0,0,1,1.322-.05,1.362,1.362,0,0,1,.026,1.394" transform="translate(-190.714 -62.028)" fill="#fff"/>
                  <path id="Path_110" data-name="Path 110" d="M174.551,44.319a.96.96,0,0,1-1.292.128.814.814,0,0,1,.033-1.153.992.992,0,0,1,1.222-.119.735.735,0,0,1,.038,1.145" transform="translate(-172.447 -42.657)" fill="#fff"/>
                  <path id="Path_111" data-name="Path 111" d="M186.28,89.382a.945.945,0,0,1-.9.03.406.406,0,0,1-.06-.695.817.817,0,0,1,.982-.053.427.427,0,0,1-.02.718" transform="translate(-183.258 -83.259)" fill="#fff"/>
                  <path id="Path_112" data-name="Path 112" d="M168.26,75a.35.35,0,0,1-.57-.08.7.7,0,0,1-.028-.691c.11-.177.351-.179.544.035a.579.579,0,0,1,.053.736" transform="translate(-167.585 -70.384)" fill="#fff"/>
                  <path id="Path_113" data-name="Path 113" d="M200.162,40.727c-.179.213-.549.158-.847-.11s-.344-.617-.128-.8a.738.738,0,0,1,.9.01.69.69,0,0,1,.07.9" transform="translate(-195.662 -39.67)" fill="#fff"/>
                </g>
              </g>
            </g>
          </g>
        </g>
        <g id="Group_59" data-name="Group 59" transform="translate(21.037 2.415)" style="mix-blend-mode: multiply;isolation: isolate">
          <g id="Group_58" data-name="Group 58" transform="translate(0 0)">
            <g id="Group_57" data-name="Group 57" clip-path="url(#clip-path-3)">
              <g id="Group_56" data-name="Group 56" transform="translate(0 0)">
                <g id="Group_55" data-name="Group 55" clip-path="url(#clip-path-4)">
                  <path id="Path_114" data-name="Path 114" d="M213.837,52.238a1.027,1.027,0,0,1-1.312.767,1.1,1.1,0,0,1-.564-1.252.921.921,0,0,1,1.07-.86,1.084,1.084,0,0,1,.806,1.345" transform="translate(-211.945 -49.367)" fill="#fff"/>
                  <path id="Path_115" data-name="Path 115" d="M234.382,67.079a.628.628,0,0,1-.643.593.561.561,0,0,1-.44-.743.708.708,0,0,1,.762-.548c.276.075.364.36.321.7" transform="translate(-230.975 -63.187)" fill="#fff"/>
                  <path id="Path_116" data-name="Path 116" d="M215.561,79.022c-.086.249-.405.351-.745.3a.587.587,0,0,1-.5-.692c.055-.3.348-.439.722-.322s.609.457.52.711" transform="translate(-214.053 -73.806)" fill="#fff"/>
                  <path id="Path_117" data-name="Path 117" d="M227.424,37.845c-.069.413-.465.633-1,.485a.87.87,0,0,1-.7-1.024.91.91,0,0,1,1.044-.434.8.8,0,0,1,.662.973" transform="translate(-224.202 -36.858)" fill="#fff"/>
                </g>
              </g>
            </g>
          </g>
        </g>
        <g id="Group_64" data-name="Group 64" transform="translate(15.964 0.088)" style="mix-blend-mode: multiply;isolation: isolate">
          <g id="Group_63" data-name="Group 63">
            <g id="Group_62" data-name="Group 62" clip-path="url(#clip-path-5)">
              <g id="Group_61" data-name="Group 61">
                <g id="Group_60" data-name="Group 60" clip-path="url(#clip-path-5)">
                  <path id="Path_118" data-name="Path 118" d="M188.38,42.272a1.12,1.12,0,1,1,.788-1.369,1.123,1.123,0,0,1-.788,1.369" transform="translate(-184.57 -37.397)" fill="#fff"/>
                  <path id="Path_119" data-name="Path 119" d="M186.807,16.608a.907.907,0,0,1-1.124-.539c-.1-.406.229-.723.667-.783a.976.976,0,0,1,1.057.4.716.716,0,0,1-.6.926" transform="translate(-183.426 -15.269)" fill="#fff"/>
                  <path id="Path_120" data-name="Path 120" d="M188.315,68.529a.747.747,0,0,1-.783-.281c-.123-.24.054-.543.415-.623a.7.7,0,0,1,.822.374c.082.272-.135.483-.454.53" transform="translate(-185.055 -61.963)" fill="#fff"/>
                  <path id="Path_121" data-name="Path 121" d="M165.578,60.022a.612.612,0,0,1-.682-.523c-.062-.347.059-.653.306-.708a.724.724,0,0,1,.707.535.484.484,0,0,1-.332.7" transform="translate(-164.881 -54.092)" fill="#fff"/>
                  <path id="Path_122" data-name="Path 122" d="M213.371,46.826a.674.674,0,0,1-.95-.527,1.051,1.051,0,0,1,.608-1.194c.423-.133.725.16.79.593a1.049,1.049,0,0,1-.448,1.128" transform="translate(-207.274 -41.86)" fill="#fff"/>
                  <path id="Path_123" data-name="Path 123" d="M169.421,29.809a.369.369,0,0,1-.509-.311.6.6,0,0,1,.322-.651.39.39,0,0,1,.55.292.617.617,0,0,1-.363.671" transform="translate(-168.469 -27.351)" fill="#fff"/>
                  <path id="Path_124" data-name="Path 124" d="M205.746,23.332a1.011,1.011,0,0,1-1.133-.7.722.722,0,0,1,.548-.991.945.945,0,0,1,1.063.657.778.778,0,0,1-.478,1.033" transform="translate(-200.289 -20.942)" fill="#fff"/>
                </g>
              </g>
            </g>
          </g>
        </g>
        <path id="Path_125" data-name="Path 125" d="M187.627,41.457a1.033,1.033,0,1,1,.247-1.891,1.016,1.016,0,0,1,.481.628,1.031,1.031,0,0,1-.727,1.262m.9-1.306a1.188,1.188,0,0,0-.563-.737,1.224,1.224,0,0,0-1.676.467,1.206,1.206,0,0,0,1.389,1.745,1.22,1.22,0,0,0,.85-1.475" transform="translate(-167.877 -36.579)" fill="#fff"/>
        <path id="Path_126" data-name="Path 126" d="M234.549,58.919c.006.4-.189.844-.572.9a.486.486,0,0,1-.4-.125.8.8,0,0,1-.234-.633.888.888,0,0,1,.7-.91c.37,0,.505.412.508.767m-.509-.943a1.055,1.055,0,0,0-.874,1.079.969.969,0,0,0,.292.771.658.658,0,0,0,.546.168.993.993,0,0,0,.722-1.077c0-.565-.28-.943-.685-.941" transform="translate(-209.839 -53.284)" fill="#fff"/>
        <path id="Path_127" data-name="Path 127" d="M161.992,42.064a1.374,1.374,0,0,1-.416,1,.832.832,0,0,1-.62.242c-.544-.043-.787-.619-.786-1.172s.243-1.162.81-1.231a.789.789,0,0,1,.626.213,1.247,1.247,0,0,1,.385.952m-1.032-1.339a1.264,1.264,0,0,0-.965,1.407c0,.76.38,1.3.949,1.346a1,1,0,0,0,.752-.288,1.532,1.532,0,0,0,.473-1.125,1.421,1.421,0,0,0-.444-1.084.965.965,0,0,0-.764-.256" transform="translate(-144.557 -37.887)" fill="#fff"/>
        <path id="Path_128" data-name="Path 128" d="M212.93,19.732a.964.964,0,0,1-.239.779,1.017,1.017,0,0,1-.8.3,1.445,1.445,0,0,1-1.356-1.239.788.788,0,0,1,.217-.6,1.186,1.186,0,0,1,.873-.3,1.274,1.274,0,0,1,1.307,1.057m-1.3-1.233a1.355,1.355,0,0,0-1,.352.967.967,0,0,0-.267.73,1.61,1.61,0,0,0,1.526,1.41,1.188,1.188,0,0,0,.936-.36,1.138,1.138,0,0,0,.285-.918,1.431,1.431,0,0,0-1.479-1.213" transform="translate(-189.491 -18.062)" fill="#fff"/>
        <path id="Path_129" data-name="Path 129" d="M194.353,65.649a.771.771,0,0,1-.54.375.763.763,0,0,1-.632-.182.914.914,0,0,1-.307-.642,1.074,1.074,0,0,1,.272-.79.886.886,0,0,1,.7-.315.622.622,0,0,1,.48.256,1.269,1.269,0,0,1,.022,1.3m.121-1.4a.8.8,0,0,0-.614-.33,1.062,1.062,0,0,0-.845.372,1.252,1.252,0,0,0-.317.92,1.092,1.092,0,0,0,.368.764.937.937,0,0,0,.774.222.948.948,0,0,0,.663-.46,1.45,1.45,0,0,0-.03-1.488" transform="translate(-173.734 -58.586)" fill="#fff"/>
        <path id="Path_130" data-name="Path 130" d="M210.831,82.915a.9.9,0,0,1-.952.626.918.918,0,0,1-.652-.215.423.423,0,0,1-.118-.318.985.985,0,0,1,.958-.769.78.78,0,0,1,.631.231.53.53,0,0,1,.133.446m-.772-.852a1.157,1.157,0,0,0-1.125.938.6.6,0,0,0,.167.446,1.224,1.224,0,0,0,1.9-.5.705.705,0,0,0-.176-.591.954.954,0,0,0-.77-.289" transform="translate(-188.221 -74.774)" fill="#fff"/>
        <path id="Path_131" data-name="Path 131" d="M185.506,88.58a.86.86,0,0,1-.813.027.324.324,0,0,1-.178-.241.362.362,0,0,1,.136-.311.726.726,0,0,1,.869-.049.338.338,0,0,1-.014.574m.122-.712a.9.9,0,0,0-1.1.057.534.534,0,0,0-.192.462.5.5,0,0,0,.27.375,1.032,1.032,0,0,0,.99-.034.529.529,0,0,0,.247-.42.535.535,0,0,0-.22-.441" transform="translate(-166.275 -79.812)" fill="#fff"/>
        <path id="Path_132" data-name="Path 132" d="M213.024,51.491a1,1,0,0,1-.515.656.819.819,0,0,1-.679.05,1.029,1.029,0,0,1-.51-1.159.933.933,0,0,1,.351-.646.769.769,0,0,1,.615-.139.925.925,0,0,1,.607.421,1.035,1.035,0,0,1,.129.817m-.7-1.41a.94.94,0,0,0-.752.171,1.094,1.094,0,0,0-.421.766,1.17,1.17,0,0,0,.618,1.342,1,1,0,0,0,.826-.056,1.181,1.181,0,0,0,.6-.772,1.208,1.208,0,0,0-.152-.953,1.1,1.1,0,0,0-.723-.5" transform="translate(-190.18 -46.224)" fill="#fff"/>
        <path id="Path_133" data-name="Path 133" d="M186.062,15.8a.952.952,0,0,1-.724-.1.613.613,0,0,1-.293-.373.476.476,0,0,1,.068-.386.749.749,0,0,1,.525-.29.906.906,0,0,1,.966.347.466.466,0,0,1-.012.4.78.78,0,0,1-.531.4m.7-.88a1.05,1.05,0,0,0-1.148-.444.924.924,0,0,0-.645.364.645.645,0,0,0-.095.526.784.784,0,0,0,.372.483,1.125,1.125,0,0,0,.858.121.953.953,0,0,0,.647-.495.636.636,0,0,0,.01-.555" transform="translate(-166.738 -14.454)" fill="#fff"/>
        <path id="Path_134" data-name="Path 134" d="M161.111,105.453a11.883,11.883,0,0,1,5.16.968c-.677-.763-2.731-1.318-5.16-1.318s-4.484.555-5.161,1.318a11.89,11.89,0,0,1,5.161-.968" transform="translate(-140.949 -95.332)" fill="#fff"/>
        <path id="Path_135" data-name="Path 135" d="M239.577,204.413a.375.375,0,0,1-.164-.027.2.2,0,0,1-.083-.044.216.216,0,0,1-.06-.088.517.517,0,0,1-.034-.143,1.891,1.891,0,0,1-.01-.209v-3.065a1.823,1.823,0,0,0-.01-.2,1.514,1.514,0,0,0-.035-.2.657.657,0,0,0-.069-.173.364.364,0,0,0-.116-.125.322.322,0,0,0-.18-.048h-.891v.139h.174a.638.638,0,0,1,.224.036.5.5,0,0,1,.165.1.4.4,0,0,1,.069.19,2.113,2.113,0,0,1,.023.356v3.795h3.111v-.3h-1.764c-.149,0-.267,0-.351,0m11.976.092a1.683,1.683,0,0,1-.339-.166,2.444,2.444,0,0,1-.3-.226c-.093-.085-.186-.172-.274-.263l-1.685-1.7.7-.7c.2-.211.361-.374.471-.49s.176-.187.2-.212a3.855,3.855,0,0,1,.318-.264,1.68,1.68,0,0,1,.254-.157.877.877,0,0,1,.219-.075,1.193,1.193,0,0,1,.211-.018V200.1h-.363a.908.908,0,0,0-.371.068,1.124,1.124,0,0,0-.28.178,2.109,2.109,0,0,0-.238.248,3.157,3.157,0,0,1-.25.27l-1.06,1.044-.45.422v-1.4c0-.185,0-.331-.013-.44a.529.529,0,0,0-.074-.251.279.279,0,0,0-.182-.112,1.787,1.787,0,0,0-.342-.026h-.915l.013.009H246.8v3.462l-2.44-3.046a1.575,1.575,0,0,0-.205-.209.9.9,0,0,0-.2-.129.862.862,0,0,0-.236-.066,2.248,2.248,0,0,0-.292-.017h-.6v0H242.2c0,.223,0,.428,0,.616s0,.365,0,.533,0,.327,0,.478,0,.3,0,.452c0,.135,0,.271,0,.409s0,.281,0,.43,0,.306,0,.471,0,.342.008.532v.047a1.011,1.011,0,0,0,.043.316.458.458,0,0,0,.13.2.523.523,0,0,0,.222.106,1.483,1.483,0,0,0,.324.031h.542v-.126h-.156a.888.888,0,0,1-.161-.015.368.368,0,0,1-.146-.064.239.239,0,0,1-.105-.065.235.235,0,0,1-.055-.109.761.761,0,0,1-.021-.173c-.006-.069-.006-.155-.006-.257v-3.663a.9.9,0,0,1,.615.214.844.844,0,0,1,.232.646v3.616h.3v-3.632l3,3.711h.126v-4.566h.086a.8.8,0,0,1,.148.015.479.479,0,0,1,.159.063.277.277,0,0,1,.085.062.231.231,0,0,1,.052.1.83.83,0,0,1,.027.174c.007.072.008.163.008.271v3.791h.656v-2.3l1.575,1.577a4.716,4.716,0,0,0,.481.427,2.792,2.792,0,0,0,.409.262,1.535,1.535,0,0,0,.339.133,1.163,1.163,0,0,0,.276.038.847.847,0,0,0,.185-.019,1.554,1.554,0,0,0,.151-.041,1.07,1.07,0,0,0,.115-.046.457.457,0,0,1,.087-.034v-.131a1.275,1.275,0,0,1-.382-.075" transform="translate(-214.087 -180.085)" fill="#fff"/>
        <path id="Path_136" data-name="Path 136" d="M44.354,200.433a2.085,2.085,0,0,0-.355-.46,1.616,1.616,0,0,0-.486-.316,2.719,2.719,0,0,0-.669-.181,6.122,6.122,0,0,0-.9-.058H40.09v.127h.174a.464.464,0,0,1,.378.143.414.414,0,0,1,.072.193,2.062,2.062,0,0,1,.025.361v3.8h1.381a3.3,3.3,0,0,0,1.118-.172,2.228,2.228,0,0,0,.8-.482,1.946,1.946,0,0,0,.484-.738,2.6,2.6,0,0,0,.163-.942,2.707,2.707,0,0,0-.082-.676,2.21,2.21,0,0,0-.249-.6m-.571,2.158a1.917,1.917,0,0,1-.383.652,1.683,1.683,0,0,1-.577.413,1.765,1.765,0,0,1-.72.146,3.467,3.467,0,0,1-.711-.092v-3.928a2.6,2.6,0,0,1,.365-.084,2.252,2.252,0,0,1,.329-.026,1.825,1.825,0,0,1,.739.147,1.692,1.692,0,0,1,.58.417,1.94,1.94,0,0,1,.38.651,2.731,2.731,0,0,1,0,1.7m13.2,1.132a.959.959,0,0,1-.162-.223c-.05-.091-.1-.2-.16-.334l-1.59-3.83h-.13l-2,4.71.317-.008.447-1.049a1.994,1.994,0,0,1,.13-.219,2.231,2.231,0,0,1,.189-.235,2.3,2.3,0,0,1,.241-.228,1.866,1.866,0,0,1,.293-.2,1.79,1.79,0,0,1,.344-.139,1.511,1.511,0,0,1,.392-.062.936.936,0,0,0-.281-.1,1.74,1.74,0,0,0-.357-.036,1.372,1.372,0,0,0-.284.028.467.467,0,0,0-.208.092l.654-1.493,1.157,2.772a1.635,1.635,0,0,0,.278.471,1.227,1.227,0,0,0,.318.266,1,1,0,0,0,.324.119,1.74,1.74,0,0,0,.293.027,1.077,1.077,0,0,0,.15-.009.973.973,0,0,1,.116-.009v-.126a.992.992,0,0,1-.274-.057.557.557,0,0,1-.2-.132m-4.055-1.31a.947.947,0,0,0-.179-.317,1.086,1.086,0,0,0-.741-.32,1.2,1.2,0,0,0,.7-1.517,1.142,1.142,0,0,0-.2-.334,1.17,1.17,0,0,0-.26-.238,1.4,1.4,0,0,0-.348-.161,2.381,2.381,0,0,0-.454-.092,5.491,5.491,0,0,0-.593-.029H48.864v0h-.382a.2.2,0,0,0-.129.035.178.178,0,0,0-.057.124,1.37,1.37,0,0,0-.01.249c0,.106,0,.243,0,.411v2.012c0,.086,0,.181-.011.285s-.018.209-.034.319a1.869,1.869,0,0,1-.072.316.887.887,0,0,1-.109.228.783.783,0,0,1-.151.178,1.012,1.012,0,0,1-.214.139,1.184,1.184,0,0,1-.272.1,1.765,1.765,0,0,1-.347.035,1.79,1.79,0,0,1-.349-.035,1.179,1.179,0,0,1-.273-.1,1,1,0,0,1-.214-.139.779.779,0,0,1-.152-.178.9.9,0,0,1-.108-.228,1.807,1.807,0,0,1-.072-.316c-.016-.11-.027-.216-.034-.319s-.012-.2-.012-.285v-2.012q0-.252,0-.411a1.741,1.741,0,0,0-.01-.249.185.185,0,0,0-.057-.124.2.2,0,0,0-.13-.035h-1.13v.129h.174a.786.786,0,0,1,.226.029.261.261,0,0,1,.142.1.854.854,0,0,1,.126.563v1.805c0,.274.009.5.025.693a1.777,1.777,0,0,0,.084.441,1.335,1.335,0,0,0,.214.4,1.51,1.51,0,0,0,.336.311,2.976,2.976,0,0,0,2.413,0,1.475,1.475,0,0,0,.335-.311,1.31,1.31,0,0,0,.215-.4,1.8,1.8,0,0,0,.084-.441q.025-.282.025-.693v-1.805a.854.854,0,0,1,.126-.563.254.254,0,0,1,.137-.095c.018,0,.042,0,.059.009a.455.455,0,0,1,.17.108,1.056,1.056,0,0,1,.092.556v3.8h1.5a3.439,3.439,0,0,0,1.161-.147,1.2,1.2,0,0,0,.33-.191,1.38,1.38,0,0,0,.253-.266,1.2,1.2,0,0,0,.157-.313,1.063,1.063,0,0,0,.055-.337,1.245,1.245,0,0,0-.057-.371m-.814.809a.891.891,0,0,1-.248.307,1.212,1.212,0,0,1-.395.2,1.78,1.78,0,0,1-.525.072,3.08,3.08,0,0,1-.382-.024,3,3,0,0,1-.382-.075v-1.3c.036-.033.067-.068.106-.1a1.86,1.86,0,0,1,.294-.2,1.775,1.775,0,0,1,.343-.139,1.523,1.523,0,0,1,.393-.062.938.938,0,0,0-.281-.1,1.743,1.743,0,0,0-.357-.036,1.392,1.392,0,0,0-.285.028.472.472,0,0,0-.207.092.027.027,0,0,1-.006.008v-2.185a1.425,1.425,0,0,1,.284-.049c.1-.009.206-.013.317-.013a2.092,2.092,0,0,1,.55.065.956.956,0,0,1,.4.219.9.9,0,0,1,.255.305.872.872,0,0,1,.082.377,1.466,1.466,0,0,1-.11.629,2.851,2.851,0,0,1-.409.625,1.364,1.364,0,0,1,.647.956.819.819,0,0,1-.088.392m6.948.69a.88.88,0,0,1-.16-.015.37.37,0,0,1-.147-.064.247.247,0,0,1-.106-.065.239.239,0,0,1-.054-.109.97.97,0,0,1-.023-.173c0-.069-.005-.155-.005-.257v-3.811H57.95c0,.223,0,.429,0,.616s0,.365,0,.533,0,.327,0,.478,0,.3,0,.452c0,.135,0,.271,0,.409s0,.281,0,.43,0,.306,0,.471,0,.342.009.532v.047A.958.958,0,0,0,58,203.7a.428.428,0,0,0,.129.2.515.515,0,0,0,.223.106,1.471,1.471,0,0,0,.323.031h.542v-.126Z" transform="translate(-37.578 -179.406)" fill="#fff"/>
        <path id="Path_137" data-name="Path 137" d="M43.692,138.28l-.406.049h-.539q0-.535.462-.546a.548.548,0,0,1,.392.154,3.086,3.086,0,0,0,.133-.343,1.128,1.128,0,0,0-.666-.231q-.882,0-.882.966h-.4v.421h2.276Zm6.268-.938a.419.419,0,0,0,.427-.42.428.428,0,0,0-.427-.427.434.434,0,0,0-.434.42.426.426,0,0,0,.434.427m2.654,4.362a.421.421,0,0,0-.421.42.414.414,0,0,0,.421.427.424.424,0,1,0,0-.847m-1.121,0a.432.432,0,0,0-.427.42.424.424,0,0,0,.427.427.424.424,0,1,0,0-.847m3.781-4.131V139.8c0,.385-.168.574-.511.574h-1.3c-.343,0-.511-.182-.511-.553v-1.807l-.833.182.14.9v.721c0,.371-.168.553-.511.553h-.805c-.343,0-.511-.182-.511-.553v-1.779l-.833.189.14.91v.679c0,.371-.168.553-.511.553H46.059a.464.464,0,0,1-.518-.49V136.5l-.819.189.133.9v2.241c0,.371-.175.553-.518.553H41.451c-.553,0-.833-.343-.833-1.022a1.533,1.533,0,0,1,.329-.854h-.623a1.953,1.953,0,0,0-.273.995,1.635,1.635,0,0,0,.357,1.1,1.215,1.215,0,0,0,.959.413h3.144a1.1,1.1,0,0,0,.679-.2,1.182,1.182,0,0,0,.7.2h3.523a1.07,1.07,0,0,0,.672-.21,1.069,1.069,0,0,0,.686.21h1.162a1.07,1.07,0,0,0,.672-.21,1.069,1.069,0,0,0,.686.21h1.638a.964.964,0,0,0,1.043-1.043v-3.508l-.819.2ZM59.5,143.2a.422.422,0,0,0-.434.427.427.427,0,0,0,.854,0,.423.423,0,0,0-.42-.427m1.113,0a.416.416,0,0,0-.427.427.423.423,0,0,0,.847,0,.418.418,0,0,0-.42-.427m10.646-4.068v.693c0,.371-.168.553-.511.553h-7.1c-.336,0-.5-.189-.5-.574l.007-1.758H61.836a1.577,1.577,0,0,0-1.19.476,1.716,1.716,0,0,0-.455,1.232,1.311,1.311,0,0,0,.364.988,1.2,1.2,0,0,0,.882.35,1.047,1.047,0,0,1-.224.6.963.963,0,0,1-.644.42h-.833c-.9,0-1.386-.644-1.386-1.737v-1.253h-.686v1.268a2.381,2.381,0,0,0,.462,1.568,1.887,1.887,0,0,0,1.513.6H60.73a1.556,1.556,0,0,0,1.421-1.575v-.462H61.57c-.441-.007-.658-.3-.658-.875,0-.749.294-1.12.875-1.12h.658v1.442A.962.962,0,0,0,63.482,141h7.433a.954.954,0,0,0,1.036-1.015v-1.94l-.812.182Zm-.112,2.577a.421.421,0,0,0-.42.42.414.414,0,0,0,.42.427.427.427,0,0,0,.427-.42.416.416,0,0,0-.427-.427m4.152-1.337v-.756a1.67,1.67,0,0,0-.4-1.12,1.288,1.288,0,0,0-1.029-.448,1.677,1.677,0,0,1-.217.028c.021.189.035.322.035.392a.535.535,0,0,1,.217-.049.58.58,0,0,1,.49.266,1.455,1.455,0,0,1,.2.812v.735l-.021.147H72.8l-.182.63H75.4Z" transform="translate(-37.543 -123.302)" fill="#fff"/>
        <path id="Path_138" data-name="Path 138" d="M19.645,274.978v.232H18.57v3.164H17.9V275.21h-.365a.643.643,0,0,0-.432.136.608.608,0,0,0-.16.481H16.79v-.437a.641.641,0,0,1,.018-.152.3.3,0,0,1,.067-.131.354.354,0,0,1,.134-.093.566.566,0,0,1,.219-.036Z" transform="translate(-16.79 -246.894)" fill="#fff"/>
        <path id="Path_139" data-name="Path 139" d="M45.478,276.82h-.206v1.554H44.6v-2.727a.908.908,0,0,0-.064-.373q-.064-.141-.3-.142h-.051v-.154h1.42c.082,0,.173,0,.273.01a1.916,1.916,0,0,1,.3.046,1.707,1.707,0,0,1,.3.1.925.925,0,0,1,.26.17.815.815,0,0,1,.183.257.87.87,0,0,1,.069.363.763.763,0,0,1-.075.348.779.779,0,0,1-.2.247,1.052,1.052,0,0,1-.27.162,2.105,2.105,0,0,1-.294.1l.54.9a1.919,1.919,0,0,0,.188.27,1.084,1.084,0,0,0,.172.167.687.687,0,0,0,.152.09.649.649,0,0,0,.126.039v.129a.541.541,0,0,1-.146.036,1.414,1.414,0,0,1-.2.015.94.94,0,0,1-.26-.036.785.785,0,0,1-.247-.124,1.356,1.356,0,0,1-.242-.232,2.943,2.943,0,0,1-.25-.355Zm.128-1.636c-.041,0-.082,0-.124,0a.811.811,0,0,0-.108.016c-.038.007-.072.012-.1.016v1.394h.309a.883.883,0,0,0,.247-.036.625.625,0,0,0,.224-.119.586.586,0,0,0,.162-.221.836.836,0,0,0,.062-.34.818.818,0,0,0-.062-.337.637.637,0,0,0-.16-.221.589.589,0,0,0-.216-.121.8.8,0,0,0-.232-.036" transform="translate(-41.233 -246.894)" fill="#fff"/>
        <path id="Path_140" data-name="Path 140" d="M76.154,277.725a1.084,1.084,0,0,0,.226.361.511.511,0,0,0,.309.154v.129a.841.841,0,0,1-.116.018c-.05,0-.093.007-.131.007a1.637,1.637,0,0,1-.265-.023.953.953,0,0,1-.278-.092.918.918,0,0,1-.257-.2,1.2,1.2,0,0,1-.214-.353l-.119-.288H73.934l-.424.936h-.257l1.518-3.4H75Zm-2.112-.519h1.169l-.569-1.343Z" transform="translate(-67.165 -246.893)" fill="#fff"/>
        <path id="Path_141" data-name="Path 141" d="M99.444,275.154a1.332,1.332,0,0,0-.239-.4.459.459,0,0,0-.27-.137v-.1l.1,0c.053,0,.092-.005.115-.005a1.911,1.911,0,0,1,.275.02.883.883,0,0,1,.53.283,1.169,1.169,0,0,1,.214.35l.815,1.925,1.089-2.527h.258L100.848,278h-.205Z" transform="translate(-90.079 -246.468)" fill="#fff"/>
        <path id="Path_142" data-name="Path 142" d="M133.8,274.978a.568.568,0,0,1,.219.036.353.353,0,0,1,.134.093.308.308,0,0,1,.067.131.642.642,0,0,1,.018.152v.437h-.154a.6.6,0,0,0-.167-.473.709.709,0,0,0-.476-.144h-.828V276.5h1.337v.231h-1.337v1.415h.88a.876.876,0,0,0,.481-.126.937.937,0,0,0,.332-.46l.139.052-.15.406a.733.733,0,0,1-.146.262.4.4,0,0,1-.3.1h-1.9v-2.727a.913.913,0,0,0-.064-.374q-.064-.141-.3-.141h-.052v-.154Z" transform="translate(-119.164 -246.894)" fill="#fff"/>
        <path id="Path_143" data-name="Path 143" d="M163.031,278.142v.232h-2.444v-2.727a.908.908,0,0,0-.064-.373c-.043-.094-.141-.142-.3-.142h-.051v-.154h.617a.653.653,0,0,1,.224.033.3.3,0,0,1,.144.111.5.5,0,0,1,.074.206,2.111,2.111,0,0,1,.02.319v2.5Z" transform="translate(-144.718 -246.894)" fill="#fff"/>
        <path id="Path_144" data-name="Path 144" d="M200.124,276.826a.759.759,0,0,1,.064-.316.962.962,0,0,1,.175-.26,1.54,1.54,0,0,1,.257-.219,2.905,2.905,0,0,1,.316-.188c-.024-.021-.068-.063-.131-.126a1.754,1.754,0,0,1-.193-.234,1.787,1.787,0,0,1-.172-.309.86.86,0,0,1-.075-.35.706.706,0,0,1,.273-.592,1.21,1.21,0,0,1,.756-.211,1.088,1.088,0,0,1,.71.2.643.643,0,0,1,.242.519.718.718,0,0,1-.064.3,1.127,1.127,0,0,1-.175.27,1.792,1.792,0,0,1-.254.242q-.145.114-.3.216l.952,1.029a2.207,2.207,0,0,0,.172-.216q.08-.113.136-.2c.045-.069.086-.137.124-.206l.2.129a1.912,1.912,0,0,1-.113.221q-.056.1-.142.219a2.355,2.355,0,0,1-.2.244l.5.53h-.7l-.2-.2a1.639,1.639,0,0,1-.247.149,1.776,1.776,0,0,1-.283.1,1.31,1.31,0,0,1-.355.046,2.389,2.389,0,0,1-.6-.064,1.174,1.174,0,0,1-.393-.172.63.63,0,0,1-.214-.252.753.753,0,0,1-.064-.309m1.317.592a.917.917,0,0,0,.283-.041,1.053,1.053,0,0,0,.216-.093.9.9,0,0,0,.186-.134q-.263-.288-.492-.53t-.491-.53a1.286,1.286,0,0,0-.244.3.726.726,0,0,0-.106.388.662.662,0,0,0,.162.468.632.632,0,0,0,.487.175m-.406-2.593a.9.9,0,0,0,.034.255,1.061,1.061,0,0,0,.082.209.9.9,0,0,0,.105.159c.038.045.072.082.1.113a1.329,1.329,0,0,0,.268-.332.876.876,0,0,0,.1-.435.979.979,0,0,0-.031-.268.554.554,0,0,0-.08-.175.3.3,0,0,0-.108-.1.269.269,0,0,0-.116-.028.312.312,0,0,0-.268.126.848.848,0,0,0-.092.471" transform="translate(-180.361 -246.041)" fill="#fff"/>
        <path id="Path_145" data-name="Path 145" d="M244.509,274.978v.232h-1.076v3.164h-.669V275.21H242.4a.642.642,0,0,0-.432.136.608.608,0,0,0-.16.481h-.154v-.437a.637.637,0,0,1,.018-.152.3.3,0,0,1,.067-.131.354.354,0,0,1,.134-.093.567.567,0,0,1,.219-.036Z" transform="translate(-217.413 -246.894)" fill="#fff"/>
        <path id="Path_146" data-name="Path 146" d="M268.192,275.824a2.043,2.043,0,0,1,.121-.71,1.688,1.688,0,0,1,.345-.571,1.625,1.625,0,0,1,.535-.381,1.821,1.821,0,0,1,1.394,0,1.6,1.6,0,0,1,.532.381,1.714,1.714,0,0,1,.342.571,2.143,2.143,0,0,1,0,1.42,1.71,1.71,0,0,1-.342.571,1.59,1.59,0,0,1-.532.381,1.818,1.818,0,0,1-1.394,0,1.62,1.62,0,0,1-.535-.381,1.685,1.685,0,0,1-.345-.571,2.044,2.044,0,0,1-.121-.71m2.681,0a2.182,2.182,0,0,0-.257-1.16.845.845,0,0,0-1.448,0,2.771,2.771,0,0,0,0,2.32.846.846,0,0,0,1.448,0,2.183,2.183,0,0,0,.257-1.16" transform="translate(-241.091 -246.042)" fill="#fff"/>
        <path id="Path_147" data-name="Path 147" d="M303.162,277.046a1.533,1.533,0,0,0,.208.841.682.682,0,0,0,.61.306.9.9,0,0,0,.764-.314,1.634,1.634,0,0,0,.239-.988v-1.914h.257v1.914a2.622,2.622,0,0,1-.072.649,1.219,1.219,0,0,1-.234.481,1.015,1.015,0,0,1-.422.3,1.725,1.725,0,0,1-.636.1q-1.389,0-1.389-1.534v-1.245a.909.909,0,0,0-.064-.373q-.064-.141-.3-.142v-.154h.566a.659.659,0,0,1,.224.034.3.3,0,0,1,.144.111.491.491,0,0,1,.075.206,2.068,2.068,0,0,1,.021.319Z" transform="translate(-271.369 -246.893)" fill="#fff"/>
        <path id="Path_148" data-name="Path 148" d="M336.209,276.82H336v1.554h-.674v-2.727a.916.916,0,0,0-.064-.373c-.043-.094-.142-.142-.3-.142h-.052v-.154h1.42q.123,0,.273.01a1.914,1.914,0,0,1,.3.046,1.716,1.716,0,0,1,.3.1.931.931,0,0,1,.26.17.813.813,0,0,1,.183.257.866.866,0,0,1,.069.363.759.759,0,0,1-.075.348.783.783,0,0,1-.2.247,1.049,1.049,0,0,1-.27.162,2.088,2.088,0,0,1-.293.1l.54.9a1.914,1.914,0,0,0,.188.27,1.106,1.106,0,0,0,.172.167.681.681,0,0,0,.152.09.653.653,0,0,0,.126.039v.129a.536.536,0,0,1-.147.036,1.407,1.407,0,0,1-.2.015.938.938,0,0,1-.26-.036.786.786,0,0,1-.247-.124,1.374,1.374,0,0,1-.242-.232,2.982,2.982,0,0,1-.25-.355Zm.129-1.636c-.041,0-.082,0-.123,0a.8.8,0,0,0-.108.016c-.038.007-.072.012-.1.016v1.394h.309a.878.878,0,0,0,.247-.036.623.623,0,0,0,.224-.119.588.588,0,0,0,.162-.221.837.837,0,0,0,.061-.34.819.819,0,0,0-.061-.337.639.639,0,0,0-.16-.221.584.584,0,0,0-.216-.121.792.792,0,0,0-.231-.036" transform="translate(-300.624 -246.894)" fill="#fff"/>
        <path id="Path_149" data-name="Path 149" d="M367.013,277.693a2.154,2.154,0,0,1-.42-.041,1.535,1.535,0,0,1-.373-.121.838.838,0,0,1-.267-.2.38.38,0,0,1-.1-.26v-.6H366a1.265,1.265,0,0,0,.33.762.966.966,0,0,0,.677.226.79.79,0,0,0,.468-.126.43.43,0,0,0,.176-.373.509.509,0,0,0-.142-.368,1.905,1.905,0,0,0-.389-.3l-.633-.381A1.491,1.491,0,0,1,366,275.5a.879.879,0,0,1-.144-.5.766.766,0,0,1,.311-.643,1.359,1.359,0,0,1,.841-.237,2.164,2.164,0,0,1,.42.041,1.547,1.547,0,0,1,.373.121.842.842,0,0,1,.268.2.382.382,0,0,1,.1.26v.6h-.155a1.32,1.32,0,0,0-.327-.762.879.879,0,0,0-.629-.226.662.662,0,0,0-.437.134.45.45,0,0,0-.161.365.466.466,0,0,0,.039.193.571.571,0,0,0,.108.157,1.1,1.1,0,0,0,.167.139c.066.044.139.091.222.139l.633.376a1.922,1.922,0,0,1,.512.4.736.736,0,0,1,.162.481.835.835,0,0,1-.334.7,1.541,1.541,0,0,1-.957.257" transform="translate(-328.222 -246.126)" fill="#fff"/>
        <rect id="Rectangle_38" data-name="Rectangle 38" width="39.86" height="0.493" transform="translate(0.272 26.042)" fill="#fff"/>
      </g>
    </g>
  </g>
</svg>
