<svg xmlns="http://www.w3.org/2000/svg" width="80" height="80" viewBox="0 0 80 80">
  <g id="Group_18913" data-name="Group 18913" transform="translate(-3636 -419)">
    <g id="Group_18904" data-name="Group 18904" transform="translate(3636 419)">
      <g id="Group_16711" data-name="Group 16711" transform="translate(0 0)">
        <rect id="Rectangle_6593" data-name="Rectangle 6593" width="80" height="80" rx="14" transform="translate(0 0)" fill="#0a56a0"/>
        <g id="Group_4024" data-name="Group 4024" transform="translate(21.331 32.295)">
          <g id="Group_48" data-name="Group 48" transform="translate(0.23 12.443)">
            <g id="Group_47" data-name="Group 47">
              <path id="Path_82" data-name="Path 82" d="M14.79,376.675h.7l-.236,1.091a1.954,1.954,0,0,1-.643.115.858.858,0,0,1-.63-.222.83.83,0,0,1-.225-.619,1.775,1.775,0,0,1,.156-.751,1.252,1.252,0,0,1,.432-.527,1.065,1.065,0,0,1,.612-.188,1.758,1.758,0,0,1,.337.031,1.61,1.61,0,0,1,.317.1l-.1.233a1.932,1.932,0,0,0-.254-.091,1.1,1.1,0,0,0-.3-.038.78.78,0,0,0-.472.156,1.014,1.014,0,0,0-.331.435,1.589,1.589,0,0,0-.118.625.643.643,0,0,0,.157.459.574.574,0,0,0,.44.167,1.164,1.164,0,0,0,.4-.06l.147-.681h-.444Z" transform="translate(-13.76 -375.572)" fill="#fff"/>
              <path id="Path_83" data-name="Path 83" d="M47.509,378.315l.474-2.244h.261l-.424,2.008h.867l-.051.236Z" transform="translate(-45.316 -376.036)" fill="#fff"/>
              <path id="Path_84" data-name="Path 84" d="M76.414,376.415a1.917,1.917,0,0,1-.135.739,1.132,1.132,0,0,1-.387.505.979.979,0,0,1-.582.179.807.807,0,0,1-.613-.229.894.894,0,0,1-.219-.644,1.816,1.816,0,0,1,.147-.74,1.207,1.207,0,0,1,.4-.516.982.982,0,0,1,.579-.181.757.757,0,0,1,.589.236A.932.932,0,0,1,76.414,376.415Zm-.824-.654a.665.665,0,0,0-.431.155,1,1,0,0,0-.3.431,1.705,1.705,0,0,0-.105.611.7.7,0,0,0,.15.477.516.516,0,0,0,.408.171.647.647,0,0,0,.418-.15,1,1,0,0,0,.292-.429,1.71,1.71,0,0,0,.107-.619.718.718,0,0,0-.144-.477A.5.5,0,0,0,75.589,375.761Z" transform="translate(-70.533 -375.528)" fill="#fff"/>
              <path id="Path_85" data-name="Path 85" d="M111.38,376.071q.663,0,.663.516a.527.527,0,0,1-.134.365.643.643,0,0,1-.376.193v.015a.5.5,0,0,1,.271.17.455.455,0,0,1,.094.289.615.615,0,0,1-.233.51.978.978,0,0,1-.625.185h-.711l.474-2.244Zm-.741,2.022h.408a.652.652,0,0,0,.427-.124.428.428,0,0,0,.149-.349.334.334,0,0,0-.114-.273.505.505,0,0,0-.329-.094h-.362Zm.226-1.061h.381a.6.6,0,0,0,.382-.112.368.368,0,0,0,.143-.306.283.283,0,0,0-.1-.239.526.526,0,0,0-.322-.079h-.324Z" transform="translate(-104.056 -376.036)" fill="#fff"/>
              <path id="Path_86" data-name="Path 86" d="M138.42,377.6h-.761l-.376.714h-.29l1.227-2.244h.267l.282,2.244h-.261Zm-.028-.239-.054-.459a5.172,5.172,0,0,1-.044-.537q-.057.135-.124.269t-.383.728Z" transform="translate(-128.985 -376.036)" fill="#fff"/>
              <path id="Path_87" data-name="Path 87" d="M171.167,378.315l.474-2.244h.261l-.424,2.008h.867l-.051.236Z" transform="translate(-160.94 -376.036)" fill="#fff"/>
              <path id="Path_88" data-name="Path 88" d="M214.533,378.315h-.264l.425-2.012h-.623l.051-.232h1.512l-.046.232h-.626Z" transform="translate(-201.056 -376.036)" fill="#fff"/>
              <path id="Path_89" data-name="Path 89" d="M238.782,377.382l-.2.933h-.261l.474-2.244h.491q.685,0,.685.562a.67.67,0,0,1-.565.689l.367.993h-.285l-.321-.933Zm.226-1.082q-.157.758-.178.858h.258a.7.7,0,0,0,.456-.13.456.456,0,0,0,.16-.375.326.326,0,0,0-.1-.269.538.538,0,0,0-.337-.084Z" transform="translate(-223.732 -376.036)" fill="#fff"/>
              <path id="Path_90" data-name="Path 90" d="M264.995,377.6h-.761l-.376.714h-.29l1.227-2.244h.267l.282,2.244h-.261Zm-.028-.239-.054-.459a5.2,5.2,0,0,1-.044-.537q-.057.135-.124.269t-.383.728Z" transform="translate(-247.336 -376.036)" fill="#fff"/>
              <path id="Path_91" data-name="Path 91" d="M300.6,378.013q.094-.221.249-.519l.735-1.423h.293l-1.2,2.244H300.4l-.249-2.244h.261l.149,1.428q.031.3.031.514Z" transform="translate(-281.543 -376.036)" fill="#fff"/>
              <path id="Path_92" data-name="Path 92" d="M327.9,378.315h-1.128l.474-2.244h1.128l-.049.235h-.869l-.151.72h.809l-.044.233h-.812l-.175.823h.867Z" transform="translate(-306.43 -376.036)" fill="#fff"/>
              <path id="Path_93" data-name="Path 93" d="M354.02,378.315l.474-2.244h.261l-.424,2.008h.867l-.051.236Z" transform="translate(-331.912 -376.036)" fill="#fff"/>
              <path id="Path_94" data-name="Path 94" d="M410.774,378.315h-1.128l.474-2.244h1.128l-.049.235h-.869l-.15.72h.809l-.044.233h-.812l-.175.823h.867Z" transform="translate(-383.924 -376.036)" fill="#fff"/>
              <path id="Path_95" data-name="Path 95" d="M438.47,378.315h-.278l-.706-1.877h-.009q-.049.339-.114.642l-.264,1.236h-.249l.474-2.244h.276l.7,1.873h.009q.046-.344.11-.622l.267-1.251h.252Z" transform="translate(-409.362 -376.036)" fill="#fff"/>
              <path id="Path_96" data-name="Path 96" d="M475.93,376.675h.7l-.236,1.091a1.955,1.955,0,0,1-.643.115.858.858,0,0,1-.63-.222.83.83,0,0,1-.225-.619,1.773,1.773,0,0,1,.156-.751,1.252,1.252,0,0,1,.432-.527,1.065,1.065,0,0,1,.612-.188,1.758,1.758,0,0,1,.337.031,1.609,1.609,0,0,1,.317.1l-.1.233a1.927,1.927,0,0,0-.254-.091,1.1,1.1,0,0,0-.3-.038.78.78,0,0,0-.472.156,1.014,1.014,0,0,0-.331.435,1.589,1.589,0,0,0-.118.625.643.643,0,0,0,.157.459.574.574,0,0,0,.44.167,1.163,1.163,0,0,0,.4-.06l.147-.681h-.444Z" transform="translate(-444.938 -375.572)" fill="#fff"/>
              <path id="Path_97" data-name="Path 97" d="M508.65,378.315l.477-2.244h.258l-.477,2.244Z" transform="translate(-476.495 -376.036)" fill="#fff"/>
              <path id="Path_98" data-name="Path 98" d="M525.945,378.315h-.278l-.706-1.877h-.009q-.049.339-.114.642l-.264,1.236h-.249l.474-2.244h.276l.7,1.873h.009q.046-.344.111-.622l.267-1.251h.252Z" transform="translate(-491.152 -376.036)" fill="#fff"/>
              <path id="Path_99" data-name="Path 99" d="M561.991,378.315h-1.128l.474-2.244h1.128l-.049.235h-.869l-.15.72h.809l-.044.233h-.812l-.175.823h.867Z" transform="translate(-525.316 -376.036)" fill="#fff"/>
            </g>
          </g>
          <path id="Path_100" data-name="Path 100" d="M251.746,185.976l-.72,2.511-2.416.064-2.575,8.926h-4.287l1.744-8.3,3.839-.609-6.67.144.608-2.735Z" transform="translate(-225.688 -185.849)" fill="#fff"/>
          <path id="Path_101" data-name="Path 101" d="M421.018,185.976l-.64,2.368-3.984.1L415.627,191h4l-.543,1.873L414.97,193l-.687,2.448,4.046.128-.544,1.9H409.58a1.309,1.309,0,0,1-.032-.383,18.41,18.41,0,0,1,.465-3.727,18.053,18.053,0,0,1,1.359-4.208l3.775-.656-4.463.064,1.024-2.591Z" transform="translate(-383.602 -185.849)" fill="#fff"/>
          <path id="Path_102" data-name="Path 102" d="M18.054,189.391l-1.247,5.967a6.672,6.672,0,0,1-1.217-2,5.166,5.166,0,0,1-.288-1.76q0-1.983,2.672-4.191a22.017,22.017,0,0,1,5.919-3.391H16.518a13.628,13.628,0,0,0-4.1,2.911,6.738,6.738,0,0,0-2.207,4.639,5.156,5.156,0,0,0,.432,2.191,8.513,8.513,0,0,0,1.345,1.888h8.989l1.052-3.707h1.1l.584-2.548H18.054Z" transform="translate(-10.216 -184.017)" fill="#fff"/>
        </g>
      </g>
    </g>
  </g>
</svg>
