<svg xmlns="http://www.w3.org/2000/svg" width="80" height="80" viewBox="0 0 80 80">
  <g id="Group_18910" data-name="Group 18910" transform="translate(-3636 -926)">
    <g id="Group_18907" data-name="Group 18907" transform="translate(3636 926)">
      <g id="Group_16715" data-name="Group 16715" transform="translate(0 0)">
        <rect id="Rectangle_6592" data-name="Rectangle 6592" width="80" height="80" rx="14" transform="translate(0 0)"/>
        <g id="Group_121" data-name="Group 121" transform="translate(19.479 29)">
          <path id="Path_56" data-name="Path 56" d="M573.481,387.825c.145.052.277.1.167.291a13.537,13.537,0,0,1-2.268,3.166,3.615,3.615,0,0,1-3.745.526,2.4,2.4,0,0,1-1.177-2.012,4.6,4.6,0,0,1,.644-2.575c.713-1.446,1.432-2.889,2.117-4.348a3.343,3.343,0,0,0,.26-1.1c.037-.4-.271-.588-.635-.389a3.353,3.353,0,0,0-.764.568,9.816,9.816,0,0,0-1.855,2.785c-.53,1.113-1.071,2.221-1.606,3.332-.55,1.142-1.108,2.28-1.643,3.429a.553.553,0,0,1-.6.383c-1.254-.023-2.509-.009-3.763-.008h-.333c.161-.37.3-.7.453-1.038q.907-2.031,1.817-4.06c.48-1.07.968-2.137,1.441-3.21.246-.559.48-1.125.69-1.7a.5.5,0,0,0-.062-.445.542.542,0,0,0-.452-.02,3.134,3.134,0,0,0-1.426,1.157c-.544.733-1.039,1.5-1.555,2.256l-.141.2-.306-.136c.434-.662.834-1.316,1.278-1.939a6.5,6.5,0,0,1,1.529-1.67,3.293,3.293,0,0,1,2.983-.488,1.984,1.984,0,0,1,1.325,1.446,4.472,4.472,0,0,1-.037,2.307.494.494,0,0,0-.007.256c.215-.39.42-.785.645-1.168a9.794,9.794,0,0,1,1.561-2.151,3.491,3.491,0,0,1,4.067-.33,2.536,2.536,0,0,1,.983,2.02,4.211,4.211,0,0,1-.457,2.054c-.693,1.474-1.42,2.931-2.126,4.4-.19.4-.352.8-.526,1.207a.406.406,0,0,0,.074.5.416.416,0,0,0,.532.015,8.314,8.314,0,0,0,1-.774,8.764,8.764,0,0,0,1.761-2.507c.027-.054.06-.1.092-.156C573.436,387.881,573.459,387.855,573.481,387.825Z" transform="translate(-557.804 -374.703)" fill="#fff"/>
          <path id="Path_57" data-name="Path 57" d="M670.564,387.559l.267.145c-.313.5-.607.993-.927,1.469a11.321,11.321,0,0,1-1.693,2.149,3.362,3.362,0,0,1-3.542.5,2.254,2.254,0,0,1-1.121-1.9,4.84,4.84,0,0,1,.18-1.744.522.522,0,0,0,.018-.269c-.157.256-.3.52-.472.768-.524.77-1.031,1.552-1.592,2.294a3.348,3.348,0,0,1-4.2.687,2.284,2.284,0,0,1-1.029-1.746,4.021,4.021,0,0,1,.262-1.934,42.487,42.487,0,0,1,2.129-4.484c.259-.5.479-1.011.711-1.52a.427.427,0,0,0-.084-.546c-.172-.143-.361-.071-.533.024a4.636,4.636,0,0,0-1.547,1.468c-.417.6-.8,1.23-1.189,1.848-.059.094-.116.2-.23.1a.237.237,0,0,1-.049-.221,18.146,18.146,0,0,1,2.07-2.969,3.467,3.467,0,0,1,3.895-.7A2.3,2.3,0,0,1,663,382.727a4.11,4.11,0,0,1-.407,2.466c-.394.843-.794,1.684-1.206,2.518-.339.688-.717,1.357-1.043,2.051A4.15,4.15,0,0,0,660,390.84c-.088.535.267.782.744.516a2.968,2.968,0,0,0,.789-.654,14.729,14.729,0,0,0,2.143-3.466c.518-1.128,1.076-2.237,1.617-3.355.45-.931.9-1.862,1.348-2.8a.287.287,0,0,1,.3-.186c1.358,0,2.717,0,4.075,0a1.83,1.83,0,0,1,.208.027l-.625,1.4q-.921,2.067-1.843,4.134c-.468,1.047-.95,2.088-1.406,3.139a9.592,9.592,0,0,0-.467,1.312c-.094.347.061.486.417.443a1.717,1.717,0,0,0,1.089-.642,18.656,18.656,0,0,0,2.084-3.019C670.5,387.656,670.529,387.614,670.564,387.559Z" transform="translate(-630.7 -374.724)" fill="#fff"/>
          <path id="Path_58" data-name="Path 58" d="M630.655,388.2l.27.143a15.192,15.192,0,0,1-2.372,3.164,3.1,3.1,0,0,1-1.9.652,3.042,3.042,0,0,1-1.621-.238,2.264,2.264,0,0,1-1.263-1.863,4.278,4.278,0,0,1,.5-2.523q1.26-2.551,2.508-5.108a1.791,1.791,0,0,0,.187-.562.52.52,0,0,0-.125-.406.413.413,0,0,0-.4.008,6.9,6.9,0,0,0-1.131,1.009c-.5.623-.92,1.31-1.374,1.97-.029.042-.059.083-.088.125-.226-.045-.27-.128-.146-.335a13.079,13.079,0,0,1,1.609-2.309,3.313,3.313,0,0,1,3.036-1.157,2.39,2.39,0,0,1,2.09,2.369,5.018,5.018,0,0,1-.489,2.229,41.109,41.109,0,0,1-2.137,4.188c-.212.383-.375.794-.554,1.2a.943.943,0,0,0-.076.3.391.391,0,0,0,.446.466,1.557,1.557,0,0,0,.943-.5,9.1,9.1,0,0,0,1.506-1.9C630.271,388.824,630.452,388.52,630.655,388.2Z" transform="translate(-606.598 -374.778)" fill="#fff"/>
          <path id="Path_59" data-name="Path 59" d="M642.134,359.382a2.2,2.2,0,0,1,4.394.07,2.182,2.182,0,0,1-2.231,2.091A2.113,2.113,0,0,1,642.134,359.382Z" transform="translate(-620.411 -357.243)" fill="#fff"/>
          <path id="Path_60" data-name="Path 60" d="M559.37,434.5a.841.841,0,0,1,.531,1.034.746.746,0,0,1-.651.639,1.621,1.621,0,0,1-.257.025c-.786,0-1.572,0-2.358,0-.151,0-.245-.022-.244-.206,0-.941,0-1.883,0-2.824,0-.156.063-.207.219-.205.769.007,1.537-.005,2.306.008a.8.8,0,0,1,.77,1.145A1.95,1.95,0,0,1,559.37,434.5Zm-2.682.148c0,.407-.007.785.009,1.162,0,.051.121.14.187.14.691.01,1.383.015,2.074,0a.62.62,0,0,0,.677-.631.681.681,0,0,0-.688-.667c-.293-.013-.588-.007-.882-.008Zm0-1.418c0,.326.009.617,0,.908-.008.19.055.261.251.256.432-.011.865,0,1.3,0a5.644,5.644,0,0,0,.75-.036.561.561,0,0,0-.057-1.113c-.138-.012-.277-.01-.415-.01Z" transform="translate(-556.388 -413.781)" fill="#fff"/>
          <path id="Path_61" data-name="Path 61" d="M597.417,436.164a.453.453,0,0,1-.54-.158c-.293-.362-.619-.7-.923-1.049a.511.511,0,0,0-.443-.206,9.692,9.692,0,0,1-.985,0c-.215-.012-.267.077-.262.269.009.319.011.64-.006.959,0,.073-.1.142-.147.213-.039-.072-.112-.144-.113-.216-.007-.925,0-1.849-.007-2.774,0-.182.058-.238.239-.236.7.009,1.4,0,2.1.007a.876.876,0,0,1,.926,1.2.669.669,0,0,1-.465.476c-.186.058-.379.092-.6.144Zm-1.968-2.923v-.013c-.328,0-.657-.01-.985.008a.259.259,0,0,0-.188.164,8.751,8.751,0,0,0,0,.932c0,.06.088.166.136.166.7,0,1.4,0,2.1-.036a.584.584,0,0,0,.494-.632.563.563,0,0,0-.569-.586C596.106,433.227,595.777,433.241,595.449,433.241Z" transform="translate(-584.466 -413.784)" fill="#fff"/>
          <path id="Path_62" data-name="Path 62" d="M631.978,433.007c.108-.008.193-.019.277-.019.848,0,1.7,0,2.544,0,.086,0,.172.079.258.121a.778.778,0,0,1-.267.116c-.744.009-1.488.011-2.232,0-.213,0-.3.065-.287.281a4.891,4.891,0,0,1,0,.622c-.014.22.081.281.289.278.649-.01,1.3,0,1.947,0a.643.643,0,0,1,.206.009c.052.018.09.078.134.12-.052.041-.1.108-.157.116a2.832,2.832,0,0,1-.389.006c-.588,0-1.177.006-1.765,0-.187,0-.27.051-.263.246.009.277.008.554,0,.831-.006.189.068.258.26.257.77-.008,1.54,0,2.31,0a.762.762,0,0,1,.206.007c.045.013.078.067.116.1-.039.038-.076.077-.117.111-.011.009-.034,0-.051,0-.943,0-1.886,0-2.829-.006-.064,0-.18-.094-.181-.145C631.975,435.048,631.978,434.038,631.978,433.007Z" transform="translate(-612.83 -413.799)" fill="#fff"/>
          <path id="Path_63" data-name="Path 63" d="M666.767,432.619a1.794,1.794,0,0,1,1.66.878,1.621,1.621,0,0,1-.727,2.32,2.2,2.2,0,0,1-2.353-.3,1.666,1.666,0,0,1,.833-2.811C666.372,432.659,666.571,432.646,666.767,432.619Zm-.027,3.149c.06,0,.121,0,.181,0a1.379,1.379,0,0,0,1.249-.784,1.441,1.441,0,0,0-.086-1.482,1.6,1.6,0,0,0-1.56-.613,1.452,1.452,0,0,0-1.2,2.109A1.478,1.478,0,0,0,666.74,435.767Z" transform="translate(-637.374 -413.525)" fill="#fff"/>
          <path id="Path_64" data-name="Path 64" d="M678.824,362.554c-.006-.108-.016-.2-.016-.293,0-.865.006-1.73-.005-2.6,0-.228.067-.294.3-.291.848.013,1.7,0,2.544.01.072,0,.144.069.215.106-.07.039-.14.111-.21.112-.77.008-1.54.012-2.31,0-.21,0-.275.069-.263.268a4.952,4.952,0,0,1,0,.623c-.014.22.08.28.289.276.64-.011,1.28,0,1.921,0a.54.54,0,0,1,.18,0,.9.9,0,0,1,.181.121c-.06.041-.12.116-.182.117-.632.009-1.263,0-1.895.006-.539,0-.492-.1-.489.5,0,.255-.06.593.075.74.118.13.47.055.718.057.623,0,1.246,0,1.869,0,.162,0,.284.018.2.241Z" transform="translate(-647.793 -358.834)" fill="#fff"/>
          <path id="Path_65" data-name="Path 65" d="M685.908,432.837a1.256,1.256,0,0,1,.3.169c.818.826,1.63,1.659,2.444,2.489.056.057.122.106.239.206v-.548c0-.683,0-1.366.006-2.048,0-.078.082-.154.126-.23.045.076.129.151.13.227.009.916.009,1.832,0,2.748a.832.832,0,0,1-.083.246c-.1-.035-.226-.044-.294-.111-.618-.615-1.225-1.242-1.838-1.862-.259-.262-.525-.518-.828-.815-.008.139-.018.237-.018.335,0,.709,0,1.417,0,2.126a.6.6,0,0,1-.009.205c-.019.05-.084.084-.128.124-.04-.044-.115-.088-.116-.132-.007-1.018-.005-2.036-.005-3.054Z" transform="translate(-653.044 -413.688)" fill="#fff"/>
          <path id="Path_66" data-name="Path 66" d="M624.7,360.749h2.722v-.938a.572.572,0,0,1,.005-.205.889.889,0,0,1,.147-.191c.041.061.115.12.118.181.012.3.006.605.006.908,0,.622,0,1.245-.006,1.868,0,.074-.085.146-.131.219-.046-.074-.13-.148-.132-.223-.013-.439-.006-.878-.006-1.36H626.9c-.631,0-1.263.009-1.894,0-.23,0-.327.062-.314.307.018.354.013.709,0,1.063,0,.073-.093.143-.142.214-.048-.072-.138-.143-.139-.215q-.014-1.375,0-2.75c0-.071.091-.142.139-.213.049.073.138.144.141.219C624.7,360,624.7,360.37,624.7,360.749Z" transform="translate(-607.172 -358.864)" fill="#fff"/>
          <path id="Path_67" data-name="Path 67" d="M616.142,435.161a1.939,1.939,0,0,1-3.213.12,1.692,1.692,0,0,1,1.327-2.566,1.812,1.812,0,0,1,1.634.591,2.539,2.539,0,0,1,.163.24l-.189.145c-.058-.064-.112-.116-.159-.174a1.569,1.569,0,0,0-2.117-.287,1.466,1.466,0,0,0-.545,1.538,1.447,1.447,0,0,0,1.269,1.061,1.565,1.565,0,0,0,1.5-.669C615.939,434.985,616.022,435.083,616.142,435.161Z" transform="translate(-598.427 -413.589)" fill="#fff"/>
          <path id="Path_68" data-name="Path 68" d="M707.883,436.145c-.19.074-.327.031-.375-.157a.785.785,0,0,0-1-.647,7.7,7.7,0,0,1-1.192.007.289.289,0,0,0-.333.212c-.053.153-.142.294-.208.444s-.16.22-.363.129c.088-.191.173-.383.265-.571q.57-1.161,1.143-2.32a1.414,1.414,0,0,1,.114-.2.237.237,0,0,1,.4.019c.51,1,1.013,2,1.518,2.994A.557.557,0,0,1,707.883,436.145Zm-2.656-1.066h1.833l-.93-1.85Z" transform="translate(-666.917 -413.762)" fill="#fff"/>
          <path id="Path_69" data-name="Path 69" d="M578.226,436.191c-.183.091-.285.046-.357-.107a4.826,4.826,0,0,1-.231-.461.284.284,0,0,0-.328-.211c-.545.01-1.089.011-1.634,0a.323.323,0,0,0-.358.221c-.056.144-.149.275-.2.421-.065.2-.184.22-.374.153.2-.421.392-.832.593-1.238q.448-.9.911-1.8c.036-.068.133-.152.194-.147a.362.362,0,0,1,.257.145c.429.826.845,1.659,1.264,2.49C578.051,435.834,578.136,436.009,578.226,436.191Zm-.814-1.027-.941-1.876-.913,1.876Z" transform="translate(-570.095 -413.827)" fill="#fff"/>
          <path id="Path_70" data-name="Path 70" d="M650.643,434.576c0-.449,0-.9,0-1.347,0-.11-.022-.234.154-.24.2-.007.165.131.165.248,0,.829.008,1.658,0,2.487,0,.211.072.267.269.263.613-.009,1.227-.007,1.84,0a.7.7,0,0,1,.229.093c-.076.044-.151.125-.228.126-.725.007-1.451,0-2.176,0-.188,0-.258-.061-.253-.256C650.652,435.492,650.643,435.034,650.643,434.576Z" transform="translate(-626.764 -413.8)" fill="#fff"/>
          <path id="Path_71" data-name="Path 71" d="M663.131,362.55c-.235.079-.285-.011-.283-.2.007-.787,0-1.574,0-2.361v-.362c-.419,0-.806.005-1.192,0a.694.694,0,0,1-.228-.1c.078-.041.154-.118.232-.119q1.31-.013,2.62,0c.078,0,.155.078.232.12a.72.72,0,0,1-.228.1c-.294.012-.589.017-.882,0-.212-.011-.285.054-.281.274.012.787.005,1.574.006,2.361Z" transform="translate(-634.823 -358.851)" fill="#fff"/>
          <path id="Path_72" data-name="Path 72" d="M697.341,362.581v-3.174l.28-.015v2.92h2.3l.06.076c-.05.064-.1.184-.15.185C699.008,362.585,698.188,362.581,697.341,362.581Z" transform="translate(-661.635 -358.848)" fill="#fff"/>
        </g>
      </g>
    </g>
  </g>
</svg>
