<svg xmlns="http://www.w3.org/2000/svg" xmlns:xlink="http://www.w3.org/1999/xlink" width="80" height="80" viewBox="0 0 80 80">
  <defs>
    <clipPath id="clip-path">
      <rect id="Rectangle_648" data-name="Rectangle 648" width="39.27" height="14.601" fill="#fff"/>
    </clipPath>
  </defs>
  <g id="Group_18909" data-name="Group 18909" transform="translate(-3636 -1088)">
    <g id="Group_18908" data-name="Group 18908" transform="translate(3636 1088)">
      <g id="Group_16714" data-name="Group 16714" transform="translate(0 0)">
        <rect id="Rectangle_6596" data-name="Rectangle 6596" width="80" height="80" rx="14" transform="translate(0 0)" fill="#03408f"/>
        <g id="Group_16708" data-name="Group 16708" transform="translate(20.396 32.593)">
          <g id="Group_16328" data-name="Group 16328" transform="translate(0 0)" clip-path="url(#clip-path)">
            <path id="Path_38485" data-name="Path 38485" d="M.183,62.461a1.4,1.4,0,0,0,.127.13.7.7,0,0,0,.125.089.523.523,0,0,0,.134.052.68.68,0,0,0,.154.016.779.779,0,0,0,.2-.025.549.549,0,0,0,.171-.076.4.4,0,0,0,.119-.125.325.325,0,0,0,.045-.171.241.241,0,0,0-.043-.14.537.537,0,0,0-.113-.116,1.293,1.293,0,0,0-.162-.105l-.188-.107q-.127-.074-.219-.138a.826.826,0,0,1-.15-.132A.45.45,0,0,1,.3,61.467a.519.519,0,0,1-.027-.176.476.476,0,0,1,.069-.259.589.589,0,0,1,.18-.181.832.832,0,0,1,.249-.107,1.12,1.12,0,0,1,.276-.035,1.08,1.08,0,0,1,.183.014.685.685,0,0,1,.159.046.648.648,0,0,1,.139.083.769.769,0,0,1,.124.123l-.157.162a.582.582,0,0,0-.205-.186.556.556,0,0,0-.256-.059.893.893,0,0,0-.112.008.707.707,0,0,0-.114.025.564.564,0,0,0-.106.045.375.375,0,0,0-.088.066.3.3,0,0,0-.06.088.271.271,0,0,0-.022.113.352.352,0,0,0,.034.161.418.418,0,0,0,.092.12.785.785,0,0,0,.137.1l.168.094.1.055c.039.021.08.044.121.069a1.2,1.2,0,0,1,.121.087.639.639,0,0,1,.105.11.548.548,0,0,1,.075.136.466.466,0,0,1,.029.167.515.515,0,0,1-.07.273.6.6,0,0,1-.184.19A.837.837,0,0,1,1,62.91a1.228,1.228,0,0,1-.3.036,1.2,1.2,0,0,1-.22-.018A.824.824,0,0,1,.3,62.871a.73.73,0,0,1-.157-.1A1.141,1.141,0,0,1,0,62.641Z" transform="translate(0 -48.345)" fill="#fff"/>
            <path id="Path_38486" data-name="Path 38486" d="M9.392,63.132H9.178l-.263-1.618-.281,1.618H8.4l.373-2.147h.241l.311,1.907.966-1.907h.24l-.373,2.147H9.926l.281-1.618Z" transform="translate(-6.69 -48.565)" fill="#fff"/>
            <path id="Path_38487" data-name="Path 38487" d="M19.368,60.985h.226l.34,2.147h-.257l-.1-.732h-.725l-.356.732h-.232Zm-.442,1.249h.629l-.137-.981Z" transform="translate(-14.542 -48.565)" fill="#fff"/>
            <path id="Path_38488" data-name="Path 38488" d="M27.893,63.132H27.66l.373-2.147h.582a.946.946,0,0,1,.269.033.511.511,0,0,1,.185.1.371.371,0,0,1,.107.149.525.525,0,0,1,.034.194.9.9,0,0,1-.012.142.688.688,0,0,1-.043.135.68.68,0,0,1-.1.159.843.843,0,0,1-.162.154.807.807,0,0,1-.243.119l.433.966h-.277l-.395-.921a2.034,2.034,0,0,1-.208.005H28.05Zm.191-1.092h.222A.91.91,0,0,0,28.571,62a.614.614,0,0,0,.211-.108.49.49,0,0,0,.137-.176.56.56,0,0,0,.049-.242.336.336,0,0,0-.024-.131.219.219,0,0,0-.08-.1.414.414,0,0,0-.147-.059,1.025,1.025,0,0,0-.224-.021h-.26Z" transform="translate(-22.027 -48.565)" fill="#fff"/>
            <path id="Path_38489" data-name="Path 38489" d="M38.244,61.182h-.667l-.338,1.949h-.233l.338-1.949H36.68l.034-.2h1.565Z" transform="translate(-29.21 -48.565)" fill="#fff"/>
            <path id="Path_38490" data-name="Path 38490" d="M53.284,61.182h-.667l-.338,1.949h-.233l.338-1.949H51.72l.034-.2h1.565Z" transform="translate(-41.187 -48.565)" fill="#fff"/>
            <path id="Path_38491" data-name="Path 38491" d="M61.547,61.791a1.712,1.712,0,0,1-.086.312,1.577,1.577,0,0,1-.138.277,1.408,1.408,0,0,1-.182.233,1.182,1.182,0,0,1-.219.178,1.032,1.032,0,0,1-.25.114,1,1,0,0,1-.612-.016.64.64,0,0,1-.244-.164.7.7,0,0,1-.148-.259,1.08,1.08,0,0,1-.05-.341,1.669,1.669,0,0,1,.044-.385,1.607,1.607,0,0,1,.123-.341,1.408,1.408,0,0,1,.188-.285,1.256,1.256,0,0,1,.24-.218,1.076,1.076,0,0,1,.279-.139.974.974,0,0,1,.3-.049.89.89,0,0,1,.323.056.654.654,0,0,1,.244.161.716.716,0,0,1,.153.257,1.036,1.036,0,0,1,.054.345q0,.063-.007.129t-.017.136m-.254.037a1.522,1.522,0,0,0,.025-.266.966.966,0,0,0-.035-.272.586.586,0,0,0-.105-.207A.462.462,0,0,0,61,60.952a.6.6,0,0,0-.243-.046.671.671,0,0,0-.224.038.8.8,0,0,0-.207.11.971.971,0,0,0-.182.174A1.14,1.14,0,0,0,60,61.46a1.353,1.353,0,0,0-.1.281,1.482,1.482,0,0,0-.034.324,1.022,1.022,0,0,0,.036.279.628.628,0,0,0,.1.216.471.471,0,0,0,.171.139.536.536,0,0,0,.235.049.63.63,0,0,0,.205-.034.78.78,0,0,0,.19-.1.97.97,0,0,0,.168-.147,1.213,1.213,0,0,0,.14-.188,1.348,1.348,0,0,0,.171-.455" transform="translate(-47.477 -48.345)" fill="#fff"/>
            <path id="Path_38492" data-name="Path 38492" d="M71.018,60.985l-.253,1.458q-.007.038-.011.073a.425.425,0,0,0,0,.068.338.338,0,0,0,.116.279.588.588,0,0,0,.369.094,1.064,1.064,0,0,0,.28-.032.523.523,0,0,0,.2-.1.457.457,0,0,0,.125-.161.891.891,0,0,0,.069-.225l.254-1.455h.231l-.251,1.44a1.167,1.167,0,0,1-.1.317.688.688,0,0,1-.184.231.788.788,0,0,1-.281.141,1.414,1.414,0,0,1-.39.048.823.823,0,0,1-.51-.128.471.471,0,0,1-.163-.394,1.194,1.194,0,0,1,.021-.211l.251-1.444Z" transform="translate(-56.153 -48.565)" fill="#fff"/>
            <path id="Path_38493" data-name="Path 38493" d="M80.157,63.132h-.233l.373-2.147h.582a.946.946,0,0,1,.269.033.51.51,0,0,1,.185.1.371.371,0,0,1,.107.149.525.525,0,0,1,.034.194.872.872,0,0,1-.012.142.66.66,0,0,1-.043.135.672.672,0,0,1-.1.159.843.843,0,0,1-.162.154.807.807,0,0,1-.243.119l.433.966h-.277l-.395-.921a2.04,2.04,0,0,1-.208.005h-.156Zm.19-1.092h.222A.91.91,0,0,0,80.835,62a.611.611,0,0,0,.21-.108.491.491,0,0,0,.138-.176.56.56,0,0,0,.049-.242.336.336,0,0,0-.024-.131.22.22,0,0,0-.08-.1.416.416,0,0,0-.147-.059,1.026,1.026,0,0,0-.224-.021H80.5Z" transform="translate(-63.647 -48.565)" fill="#fff"/>
            <path id="Path_38494" data-name="Path 38494" d="M88.077,63.132l.373-2.147h.233l-.373,2.147Z" transform="translate(-70.14 -48.565)" fill="#fff"/>
            <path id="Path_38495" data-name="Path 38495" d="M91.14,62.461a1.429,1.429,0,0,0,.127.13.7.7,0,0,0,.124.089.527.527,0,0,0,.134.052.679.679,0,0,0,.153.016.781.781,0,0,0,.2-.025.554.554,0,0,0,.171-.076.4.4,0,0,0,.119-.125.326.326,0,0,0,.044-.171.242.242,0,0,0-.042-.14.537.537,0,0,0-.113-.116,1.307,1.307,0,0,0-.162-.105l-.188-.107q-.127-.074-.218-.138a.821.821,0,0,1-.15-.132.446.446,0,0,1-.086-.144.519.519,0,0,1-.027-.176.474.474,0,0,1,.069-.259.585.585,0,0,1,.18-.181.832.832,0,0,1,.249-.107A1.119,1.119,0,0,1,92,60.709a1.084,1.084,0,0,1,.184.014.69.69,0,0,1,.159.046.654.654,0,0,1,.139.083.786.786,0,0,1,.124.123l-.158.162a.583.583,0,0,0-.206-.186.556.556,0,0,0-.256-.059.9.9,0,0,0-.112.008.709.709,0,0,0-.114.025.566.566,0,0,0-.106.045.374.374,0,0,0-.088.066.3.3,0,0,0-.06.088.268.268,0,0,0-.023.113.349.349,0,0,0,.034.161.418.418,0,0,0,.092.12.777.777,0,0,0,.137.1l.168.094.1.055c.039.021.079.044.121.069a1.158,1.158,0,0,1,.121.087.631.631,0,0,1,.105.11.548.548,0,0,1,.075.136.466.466,0,0,1,.029.167.513.513,0,0,1-.07.273.6.6,0,0,1-.184.19.835.835,0,0,1-.26.112,1.227,1.227,0,0,1-.3.036,1.2,1.2,0,0,1-.22-.018.826.826,0,0,1-.182-.056.743.743,0,0,1-.157-.1,1.156,1.156,0,0,1-.143-.135Z" transform="translate(-72.433 -48.345)" fill="#fff"/>
            <path id="Path_38496" data-name="Path 38496" d="M100.349,63.132h-.214l-.263-1.618-.281,1.618h-.233l.373-2.147h.241l.311,1.907.966-1.907h.24l-.373,2.147h-.233l.281-1.618Z" transform="translate(-79.124 -48.565)" fill="#fff"/>
            <path id="Path_38497" data-name="Path 38497" d="M116.855,62.461a1.432,1.432,0,0,0,.127.13.69.69,0,0,0,.124.089.528.528,0,0,0,.134.052.679.679,0,0,0,.153.016.781.781,0,0,0,.2-.025.554.554,0,0,0,.171-.076.4.4,0,0,0,.119-.125.326.326,0,0,0,.044-.171.242.242,0,0,0-.042-.14.536.536,0,0,0-.113-.116,1.309,1.309,0,0,0-.162-.105l-.188-.107q-.127-.074-.218-.138a.822.822,0,0,1-.15-.132.446.446,0,0,1-.086-.144.519.519,0,0,1-.027-.176.474.474,0,0,1,.069-.259.585.585,0,0,1,.18-.181.832.832,0,0,1,.249-.107,1.119,1.119,0,0,1,.276-.035,1.084,1.084,0,0,1,.184.014.69.69,0,0,1,.159.046.654.654,0,0,1,.139.083.786.786,0,0,1,.124.123l-.158.162a.583.583,0,0,0-.206-.186.556.556,0,0,0-.256-.059.9.9,0,0,0-.112.008.709.709,0,0,0-.114.025.565.565,0,0,0-.106.045.374.374,0,0,0-.088.066.3.3,0,0,0-.06.088.268.268,0,0,0-.023.113.349.349,0,0,0,.034.161.418.418,0,0,0,.092.12.777.777,0,0,0,.137.1l.168.094.1.055c.039.021.079.044.121.069a1.158,1.158,0,0,1,.121.087.631.631,0,0,1,.105.11.548.548,0,0,1,.075.136.466.466,0,0,1,.029.167.513.513,0,0,1-.07.273.6.6,0,0,1-.184.19.835.835,0,0,1-.26.112,1.228,1.228,0,0,1-.3.036,1.2,1.2,0,0,1-.22-.018.826.826,0,0,1-.182-.056.744.744,0,0,1-.157-.1,1.156,1.156,0,0,1-.143-.135Z" transform="translate(-92.911 -48.345)" fill="#fff"/>
            <path id="Path_38498" data-name="Path 38498" d="M127.642,61.791a1.711,1.711,0,0,1-.086.312,1.577,1.577,0,0,1-.138.277,1.409,1.409,0,0,1-.182.233,1.182,1.182,0,0,1-.219.178,1.032,1.032,0,0,1-.25.114,1,1,0,0,1-.612-.016.64.64,0,0,1-.244-.164.7.7,0,0,1-.148-.259,1.08,1.08,0,0,1-.05-.341,1.669,1.669,0,0,1,.044-.385,1.608,1.608,0,0,1,.123-.341,1.407,1.407,0,0,1,.188-.285,1.256,1.256,0,0,1,.24-.218,1.076,1.076,0,0,1,.279-.139.974.974,0,0,1,.3-.049.89.89,0,0,1,.323.056.654.654,0,0,1,.244.161.717.717,0,0,1,.153.257,1.036,1.036,0,0,1,.054.345q0,.063-.007.129t-.017.136m-.254.037a1.522,1.522,0,0,0,.025-.266.967.967,0,0,0-.035-.272.586.586,0,0,0-.105-.207.462.462,0,0,0-.175-.132.6.6,0,0,0-.243-.046.671.671,0,0,0-.224.038.8.8,0,0,0-.207.11.971.971,0,0,0-.182.174,1.141,1.141,0,0,0-.144.232,1.353,1.353,0,0,0-.1.281,1.481,1.481,0,0,0-.034.324,1.022,1.022,0,0,0,.036.279.628.628,0,0,0,.1.216.471.471,0,0,0,.171.139.536.536,0,0,0,.235.049.63.63,0,0,0,.205-.034.78.78,0,0,0,.19-.1.97.97,0,0,0,.168-.147,1.212,1.212,0,0,0,.14-.188,1.349,1.349,0,0,0,.171-.455" transform="translate(-100.111 -48.345)" fill="#fff"/>
            <path id="Path_38499" data-name="Path 38499" d="M137.311,63.132h-1.2l.373-2.147h.233l-.341,1.957h.967Z" transform="translate(-108.392 -48.565)" fill="#fff"/>
            <path id="Path_38500" data-name="Path 38500" d="M144.23,60.985l-.253,1.458q-.007.038-.011.073a.425.425,0,0,0,0,.068.338.338,0,0,0,.116.279.588.588,0,0,0,.369.094,1.064,1.064,0,0,0,.28-.032.523.523,0,0,0,.2-.1.456.456,0,0,0,.125-.161.891.891,0,0,0,.069-.225l.254-1.455h.231l-.251,1.44a1.167,1.167,0,0,1-.1.317.688.688,0,0,1-.184.231.788.788,0,0,1-.281.141,1.414,1.414,0,0,1-.39.048.823.823,0,0,1-.51-.128.471.471,0,0,1-.163-.394,1.193,1.193,0,0,1,.021-.211L144,60.985Z" transform="translate(-114.456 -48.565)" fill="#fff"/>
            <path id="Path_38501" data-name="Path 38501" d="M155.568,61.182H154.9l-.338,1.949h-.233l.338-1.949H154l.034-.2H155.6Z" transform="translate(-122.64 -48.565)" fill="#fff"/>
            <path id="Path_38502" data-name="Path 38502" d="M161.249,63.132l.373-2.147h.233l-.373,2.147Z" transform="translate(-128.41 -48.565)" fill="#fff"/>
            <path id="Path_38503" data-name="Path 38503" d="M166.993,61.791a1.715,1.715,0,0,1-.086.312,1.576,1.576,0,0,1-.138.277,1.408,1.408,0,0,1-.182.233,1.183,1.183,0,0,1-.219.178,1.033,1.033,0,0,1-.251.114,1,1,0,0,1-.612-.016.64.64,0,0,1-.244-.164.7.7,0,0,1-.148-.259,1.08,1.08,0,0,1-.05-.341,1.67,1.67,0,0,1,.044-.385,1.609,1.609,0,0,1,.123-.341,1.408,1.408,0,0,1,.188-.285,1.258,1.258,0,0,1,.24-.218,1.077,1.077,0,0,1,.279-.139.974.974,0,0,1,.3-.049.89.89,0,0,1,.323.056.654.654,0,0,1,.244.161.716.716,0,0,1,.153.257,1.037,1.037,0,0,1,.054.345c0,.042,0,.085-.007.129s-.01.089-.017.136m-.254.037a1.521,1.521,0,0,0,.025-.266.967.967,0,0,0-.035-.272.586.586,0,0,0-.105-.207.462.462,0,0,0-.175-.132.6.6,0,0,0-.243-.046.671.671,0,0,0-.224.038.8.8,0,0,0-.207.11.971.971,0,0,0-.182.174,1.14,1.14,0,0,0-.144.232,1.354,1.354,0,0,0-.1.281,1.483,1.483,0,0,0-.034.324,1.021,1.021,0,0,0,.036.279.628.628,0,0,0,.1.216.471.471,0,0,0,.171.139.536.536,0,0,0,.235.049.63.63,0,0,0,.205-.034.78.78,0,0,0,.19-.1.97.97,0,0,0,.168-.147,1.212,1.212,0,0,0,.14-.188,1.347,1.347,0,0,0,.171-.455" transform="translate(-131.448 -48.345)" fill="#fff"/>
            <path id="Path_38504" data-name="Path 38504" d="M176,61.368l-.306,1.763h-.231l.371-2.147h.233l.759,1.771.308-1.771h.233l-.373,2.147h-.223Z" transform="translate(-139.729 -48.565)" fill="#fff"/>
            <path id="Path_38505" data-name="Path 38505" d="M184.909,62.461a1.43,1.43,0,0,0,.127.13.69.69,0,0,0,.124.089.527.527,0,0,0,.134.052.679.679,0,0,0,.153.016.781.781,0,0,0,.2-.025.554.554,0,0,0,.171-.076.4.4,0,0,0,.119-.125.327.327,0,0,0,.044-.171.242.242,0,0,0-.042-.14.537.537,0,0,0-.113-.116,1.306,1.306,0,0,0-.162-.105l-.188-.107q-.127-.074-.218-.138a.822.822,0,0,1-.15-.132.447.447,0,0,1-.086-.144.519.519,0,0,1-.027-.176.474.474,0,0,1,.069-.259.585.585,0,0,1,.18-.181.833.833,0,0,1,.249-.107,1.119,1.119,0,0,1,.276-.035,1.084,1.084,0,0,1,.184.014.689.689,0,0,1,.159.046.654.654,0,0,1,.139.083.785.785,0,0,1,.124.123l-.158.162a.583.583,0,0,0-.206-.186.556.556,0,0,0-.256-.059.9.9,0,0,0-.112.008.709.709,0,0,0-.114.025.565.565,0,0,0-.106.045.374.374,0,0,0-.088.066.3.3,0,0,0-.06.088.267.267,0,0,0-.023.113.349.349,0,0,0,.034.161.419.419,0,0,0,.092.12.777.777,0,0,0,.137.1l.168.094.1.055c.039.021.079.044.121.069a1.156,1.156,0,0,1,.121.087.631.631,0,0,1,.105.11.548.548,0,0,1,.075.136.466.466,0,0,1,.029.167.513.513,0,0,1-.07.273.6.6,0,0,1-.184.19.835.835,0,0,1-.26.112,1.228,1.228,0,0,1-.3.036,1.2,1.2,0,0,1-.22-.018.826.826,0,0,1-.182-.056.744.744,0,0,1-.157-.1,1.156,1.156,0,0,1-.143-.135Z" transform="translate(-147.105 -48.345)" fill="#fff"/>
            <path id="Path_38506" data-name="Path 38506" d="M7.774,6.126H4.019a3,3,0,0,1-1.412-.28,1.858,1.858,0,0,1-.771-.72,2.074,2.074,0,0,1-.262-.978A3.988,3.988,0,0,1,1.69,3.078,4.5,4.5,0,0,1,2.119,2,3.926,3.926,0,0,1,2.9,1.008,3.847,3.847,0,0,1,4.048.28,4.011,4.011,0,0,1,5.606,0h8.064l-.713,2.729H6.086a.751.751,0,0,0-.378.091.405.405,0,0,0-.2.258.25.25,0,0,0,.08.25.474.474,0,0,0,.327.1H9.666a3.071,3.071,0,0,1,1.412.273,1.81,1.81,0,0,1,.771.713,2.077,2.077,0,0,1,.262.978,3.987,3.987,0,0,1-.117,1.069,4.484,4.484,0,0,1-.429,1.077,4,4,0,0,1-.771.993,3.753,3.753,0,0,1-1.143.728,4,4,0,0,1-1.557.28H.031l.7-2.729H7.6a.752.752,0,0,0,.378-.091.407.407,0,0,0,.2-.258.21.21,0,0,0-.073-.243.536.536,0,0,0-.335-.091" transform="translate(-0.025 0)" fill="#fff"/>
            <path id="Path_38507" data-name="Path 38507" d="M84.349,0H73.359l-.713,2.62H78l-2.515.37-.817,6.515,3.461.033L80.452,2.62h3.183Z" transform="translate(-57.851 0)" fill="#fff"/>
            <path id="Path_38508" data-name="Path 38508" d="M133.6,6.126h-3.755a3,3,0,0,1-1.412-.28,1.858,1.858,0,0,1-.771-.72,2.074,2.074,0,0,1-.262-.978,3.988,3.988,0,0,1,.116-1.069A4.5,4.5,0,0,1,127.947,2a3.926,3.926,0,0,1,.779-.993,3.847,3.847,0,0,1,1.15-.728A4.011,4.011,0,0,1,131.434,0H139.5l-.713,2.729h-6.87a.751.751,0,0,0-.378.091.405.405,0,0,0-.2.258.25.25,0,0,0,.08.25.474.474,0,0,0,.327.1h3.755a3.071,3.071,0,0,1,1.412.273,1.81,1.81,0,0,1,.771.713,2.077,2.077,0,0,1,.262.978,3.987,3.987,0,0,1-.117,1.069,4.484,4.484,0,0,1-.429,1.077,4,4,0,0,1-.771.993,3.754,3.754,0,0,1-1.143.728,4,4,0,0,1-1.557.28h-8.063l.7-2.729h6.87a.752.752,0,0,0,.378-.091.407.407,0,0,0,.2-.258.21.21,0,0,0-.073-.243.536.536,0,0,0-.335-.091" transform="translate(-100.227 0)" fill="#fff"/>
          </g>
        </g>
      </g>
    </g>
  </g>
</svg>
