<svg xmlns="http://www.w3.org/2000/svg" width="80" height="80" viewBox="0 0 80 80">
  <g id="Group_18912" data-name="Group 18912" transform="translate(-3636 -588)">
    <g id="Group_18905" data-name="Group 18905" transform="translate(3636 588)">
      <g id="Group_18900" data-name="Group 18900" transform="translate(0 0)">
        <rect id="Rectangle_6596" data-name="Rectangle 6596" width="80" height="80" rx="14" transform="translate(0 0)" fill="#e53b5f"/>
      </g>
      <g id="Group_18901" data-name="Group 18901" transform="translate(18.286 26.286)">
        <path id="Path_160" data-name="Path 160" d="M122.463,521.722c-.21-.01-.346-.021-.482-.022-.529,0-1.058,0-1.587,0a.838.838,0,0,1-.883-.872.86.86,0,0,1,.873-.894c.529-.014,1.058,0,1.587,0h.453c.013-.163.032-.3.033-.429,0-.6,0-1.209,0-1.814a7.138,7.138,0,0,1,5.9-6.915,7.676,7.676,0,0,1,5.574,1.065,5.892,5.892,0,0,1,2.8,4.566,6.677,6.677,0,0,1-.47,3.365,3.98,3.98,0,0,1-2.292,2.326,4.4,4.4,0,0,1-3.449-.139,3.082,3.082,0,0,1-1.4-1.284l-.224-.377c-.1.069-.185.117-.259.178a4.41,4.41,0,0,1-2.6,1.088c-.5.032-1,.087-1.5.133-.085.008-.17.02-.3.035a6.945,6.945,0,0,0,.141,2.137,1.116,1.116,0,0,0,.983.819.964.964,0,0,0,1.092-.62,4.321,4.321,0,0,0,.219-.987.857.857,0,0,1,.947-.812.808.808,0,0,1,.781.692,3.1,3.1,0,0,1-2.392,3.475,2.849,2.849,0,0,1-3.243-1.83,4.2,4.2,0,0,1-.3-1.548C122.461,522.627,122.463,522.2,122.463,521.722Zm1.769-1.818c.18,0,.3.006.423,0,.276-.016.552-.048.828-.057a3.262,3.262,0,0,0,2.592-1.334,6.649,6.649,0,0,0,.626-.941.878.878,0,0,1,1.1-.493.858.858,0,0,1,.58,1.019,3.231,3.231,0,0,0-.01.79,1.65,1.65,0,0,0,.928,1.458,2.357,2.357,0,0,0,3.273-1.149,5.144,5.144,0,0,0,.393-1.489,4.49,4.49,0,0,0-2.759-4.8,6.265,6.265,0,0,0-3.439-.414,5.381,5.381,0,0,0-4.38,4.073,5.878,5.878,0,0,0-.148,1.156C124.215,518.423,124.232,519.128,124.232,519.9Z" transform="translate(-106.529 -510.638)" fill="#fff"/>
        <path id="Path_161" data-name="Path 161" d="M412.061,561.217c0,.376.008.748-.008,1.12,0,.06-.1.151-.165.167a2.291,2.291,0,0,1-.593.086,6.355,6.355,0,0,1-1.269-.1,1.354,1.354,0,0,1-1.078-1.408c-.009-.755,0-1.51,0-2.265,0-.136,0-.272,0-.454h-1.037a5.024,5.024,0,0,1-.015-1.331h1.034v-1.517a4.237,4.237,0,0,1,1.635-.031v1.5c.5.1.982-.01,1.475.075v1.272h-1.418a1.988,1.988,0,0,0-.049.287c0,.591,0,1.183,0,1.774a1.408,1.408,0,0,0,.022.263.658.658,0,0,0,.671.594C411.5,561.265,411.738,561.234,412.061,561.217Z" transform="translate(-407.858 -537.268)" fill="#fff"/>
        <path id="Path_162" data-name="Path 162" d="M481.527,577.525c-.273-.017-.5-.044-.72-.043a1.24,1.24,0,0,0-1.4,1.323c-.032.779-.028,1.56-.042,2.34,0,.148-.017.3-.027.466h-1.513c-.089-.314-.1-5.02-.011-5.415h1.517l.073.843c.214-.243.371-.446.554-.622a1.115,1.115,0,0,1,.741-.332c.26-.009.521,0,.812,0A8.005,8.005,0,0,1,481.527,577.525Z" transform="translate(-472.605 -556.405)" fill="#fff"/>
        <path id="Path_163" data-name="Path 163" d="M541.14,583.019V577.6h1.574v5.422Z" transform="translate(-531.33 -557.812)" fill="#fff"/>
        <path id="Path_164" data-name="Path 164" d="M539.84,542.334a.944.944,0,0,1-.945-.961.959.959,0,0,1,.932-.947.954.954,0,1,1,.013,1.908Z" transform="translate(-529.251 -523.376)" fill="#fff"/>
        <path id="Path_165" data-name="Path 165" d="M584.212,581.1v1.818a3.5,3.5,0,0,1-1.529.04,2.131,2.131,0,0,1-.035-.28c0-1.411-.027-2.822.007-4.232a2.7,2.7,0,0,1,1.779-2.578,2.806,2.806,0,0,1,3.773,1.976,2.852,2.852,0,0,1-2.089,3.431,2.751,2.751,0,0,1-1.526-.056Zm1.225-1.235a1.356,1.356,0,0,0,1.312-1.333,1.288,1.288,0,1,0-1.312,1.333Z" transform="translate(-569.774 -556.011)" fill="#fff"/>
        <path id="Path_166" data-name="Path 166" d="M669.164,580.592l.945-1.044c.116.09.21.168.308.24a1.477,1.477,0,0,0,1.356.248c.179-.053.332-.125.353-.337a.382.382,0,0,0-.306-.421c-.319-.11-.654-.175-.978-.272a5.686,5.686,0,0,1-.815-.282,1.24,1.24,0,0,1-.735-1.1,1.642,1.642,0,0,1,1.054-1.776,3.394,3.394,0,0,1,2.677.074,3.219,3.219,0,0,1,.494.331l-.98.932a4.5,4.5,0,0,0-.723-.316,1.327,1.327,0,0,0-.587.038.383.383,0,0,0-.313.378.37.37,0,0,0,.292.391c.287.091.581.156.87.242a5.343,5.343,0,0,1,.89.293,1.538,1.538,0,0,1,.409,2.409,1.88,1.88,0,0,1-.968.558,4.488,4.488,0,0,1-2.42-.059A1.716,1.716,0,0,1,669.164,580.592Z" transform="translate(-649.932 -555.966)" fill="#fff"/>
        <path id="Path_167" data-name="Path 167" d="M741.827,562.488a3.807,3.807,0,0,1-2.122-.039,1.307,1.307,0,0,1-.925-1.292c-.015-.78-.007-1.561-.013-2.342,0-.146-.021-.293-.035-.474h-1.037v-1.308h1.064v-1.59c.557-.034,1.064-.019,1.616-.008V557c.5.068.962,0,1.453.048a4.957,4.957,0,0,1,.028,1.278h-1.41a1.936,1.936,0,0,0-.052.293c0,.592-.008,1.184.006,1.775.015.654.261.881.912.865.161,0,.322-.03.482-.046A2.747,2.747,0,0,1,741.827,562.488Z" transform="translate(-713.419 -537.268)" fill="#fff"/>
        <path id="Path_168" data-name="Path 168" d="M809.288,583.048h-1.517a50.248,50.248,0,0,1-.024-5.431h1.477c.143.086.087.253.087.394,0,1.131,0,2.262,0,3.393,0,.415,0,.829,0,1.244C809.312,582.771,809.3,582.893,809.288,583.048Z" transform="translate(-778.258 -557.831)" fill="#fff"/>
        <path id="Path_169" data-name="Path 169" d="M807.767,541.386a.924.924,0,0,1-.955.939.933.933,0,0,1-.922-.978.947.947,0,0,1,.941-.931A.932.932,0,0,1,807.767,541.386Z" transform="translate(-776.595 -523.367)" fill="#fff"/>
        <path id="Path_170" data-name="Path 170" d="M849.906,576.535l-1.032,1.079a1.321,1.321,0,0,0-1.158-.357,1.28,1.28,0,0,0-.8.46,1.612,1.612,0,0,0,.053,1.961,1.369,1.369,0,0,0,1.908.041l1.022,1.074a1.644,1.644,0,0,1-1.167.643,3.073,3.073,0,0,1-3.318-1.238,2.831,2.831,0,0,1,2.214-4.355,3.352,3.352,0,0,1,1.487.16A1.626,1.626,0,0,1,849.906,576.535Z" transform="translate(-812.81 -556.168)" fill="#fff"/>
        <g id="Group_73" data-name="Group 73" transform="translate(37.827 16.752)">
          <path id="Path_171" data-name="Path 171" d="M921.861,536.379h1.569v8.451h-1.539C921.817,544.552,921.787,537.061,921.861,536.379Z" transform="translate(-921.818 -536.379)" fill="#fff"/>
          <path id="Path_172" data-name="Path 172" d="M951.611,576.968a1.043,1.043,0,0,1,.238-.727,11.572,11.572,0,0,1,1.851-1.879.817.817,0,0,1,.406-.171.405.405,0,0,1,.44.561,1.53,1.53,0,0,1-.185.326c-.3.462-.614.921-.92,1.383a.9.9,0,0,0,.005,1.093c.313.457.631.91.934,1.373a.987.987,0,0,1,.168.41.41.41,0,0,1-.568.437,1.067,1.067,0,0,1-.387-.226c-.537-.531-1.072-1.064-1.585-1.617A1.292,1.292,0,0,1,951.611,576.968Z" transform="translate(-949.415 -571.405)" fill="#fff"/>
        </g>
        <path id="Path_173" data-name="Path 173" d="M206.914,577.222a.607.607,0,0,0,.581.615.6.6,0,0,0,.021-1.206A.6.6,0,0,0,206.914,577.222Z" transform="translate(-187.499 -571.773)" fill="#fff"/>
      </g>
    </g>
  </g>
</svg>
