<svg xmlns="http://www.w3.org/2000/svg" xmlns:xlink="http://www.w3.org/1999/xlink" width="52.001" height="52.001" viewBox="0 0 52.001 52.001">
  <defs>
    <filter id="Path_38975" x="0" y="0" width="52.001" height="52.001" filterUnits="userSpaceOnUse">
      <feOffset dy="3" input="SourceAlpha"/>
      <feGaussianBlur stdDeviation="3" result="blur"/>
      <feFlood flood-opacity="0.161"/>
      <feComposite operator="in" in2="blur"/>
      <feComposite in="SourceGraphic"/>
    </filter>
  </defs>
  <g id="phoneicon" transform="translate(9 6)">
    <g transform="matrix(1, 0, 0, 1, -9, -6)" filter="url(#Path_38975)">
      <path id="Path_38975-2" data-name="Path 38975" d="M1111,342a17,17,0,1,0-17-17A17.033,17.033,0,0,0,1111,342Z" transform="translate(-1085 -302)" fill="#159ad9" fill-rule="evenodd"/>
    </g>
    <path id="Path_38976" data-name="Path 38976" d="M1195.983,419.275c-2.081-2.048-5.585-6.385-5.951-9.842a4.467,4.467,0,0,1,.778-3.1,6.172,6.172,0,0,1,2.766-2.168,1.29,1.29,0,0,1,1.883.736l2.121,4.58c.413.891-.682,1.727-1.312,2.6-.4.558-.459.707-.126,1.305a19.113,19.113,0,0,0,5.729,5.728c.6.332.747.273,1.3-.126.878-.629,1.714-1.724,2.6-1.312l4.58,2.121a1.29,1.29,0,0,1,.737,1.883,6.171,6.171,0,0,1-2.168,2.766,4.467,4.467,0,0,1-3.1.777C1202.369,424.86,1198.031,421.356,1195.983,419.275Z" transform="translate(-1183.628 -397.629)" fill="#fff" fill-rule="evenodd"/>
  </g>
</svg>
