<?xml version="1.0" encoding="utf-8"?>
<!-- Generator: Adobe Illustrator 26.0.2, SVG Export Plug-In . SVG Version: 6.00 Build 0)  -->
<svg version="1.1" id="Layer_1" xmlns="http://www.w3.org/2000/svg" xmlns:xlink="http://www.w3.org/1999/xlink" x="0px" y="0px"
	 viewBox="0 0 52.5 80" style="enable-background:new 0 0 52.5 80;" xml:space="preserve">
<style type="text/css">
	.st0{fill:none;}
	.st1{clip-path:url(#SVGID_00000016768417420001046900000000849994645065086098_);}
	.st2{fill:#FFFFFF;}
	.st3{filter:url(#RL-logo-new-);}
	.st4{fill:url(#RL-logo-new--2_00000081619675491562003220000012886384261473238920_);}
</style>
<filter  filterUnits="userSpaceOnUse" height="146" id="RL-logo-new-" width="102" x="0" y="0">
	<feOffset  dy="3" input="SourceAlpha"></feOffset>
	<feGaussianBlur  result="blur" stdDeviation="3"></feGaussianBlur>
	<feFlood  flood-opacity="0.161"></feFlood>
	<feComposite  in2="blur" operator="in"></feComposite>
	<feComposite  in="SourceGraphic" operator="over"></feComposite>
</filter>
<pattern  x="-14.8" y="116" width="595" height="912" patternUnits="userSpaceOnUse" id="pattern" viewBox="0 -912 595 912" style="overflow:visible;">
	<g>
		<rect y="-912" class="st0" width="595" height="912"/>
		
			<image style="overflow:visible;enable-background:new    ;" width="595" height="912" xlink:href="F041649C.png"  transform="matrix(1 0 0 -1 0 0)">
		</image>
	</g>
</pattern>
<g id="Group_16340" transform="translate(-909 -41)">
	<g id="Group_85" transform="translate(920.216 87.818)">
		<g>
			<defs>
				<rect id="SVGID_1_" x="-24.8" y="-30" width="79.6" height="87.2"/>
			</defs>
			<clipPath id="SVGID_00000029760318984295196480000002242569865665144967_">
				<use xlink:href="#SVGID_1_"  style="overflow:visible;"/>
			</clipPath>
			<g id="Group_84" style="clip-path:url(#SVGID_00000029760318984295196480000002242569865665144967_);">
				<path id="Path_6" class="st2" d="M51.6-30h-73.1c-1.7,0-3.2,1.3-3.2,3.1v45.6c0,4.3,0.7,8.6,2.2,12.7c1.7,4.9,4.4,9.4,7.9,13.3
					C-10,49.7-4,53.4,2.6,55.3c8.1,2.4,16.7,2.4,24.8,0c6.7-1.9,12.6-5.7,17.3-10.8c3.5-3.9,6.1-8.4,7.9-13.3
					c1.5-4.1,2.2-8.4,2.2-12.7v-45.6C54.8-28.7,53.3-30,51.6-30"/>
			</g>
		</g>
	</g>
	<g transform="matrix(1, 0, 0, 1, 909, 41)" class="st3">
		
			<pattern  id="RL-logo-new--2_00000101797429202149101990000009472774544795465646_" xlink:href="#pattern" patternTransform="matrix(0.1412 0 0 -0.1404 -6911.1558 -9348.9121)">
		</pattern>
		
			<rect id="RL-logo-new--2_00000098911106940470398610000005228294069900810916_" x="-15.8" y="-24" style="fill:url(#RL-logo-new--2_00000101797429202149101990000009472774544795465646_);" width="84" height="128"/>
	</g>
</g>
</svg>
