<svg id="Component_53_6" data-name="Component 53 – 6" xmlns="http://www.w3.org/2000/svg" xmlns:xlink="http://www.w3.org/1999/xlink" width="136.029" height="107.052" viewBox="0 0 136.029 107.052">
  <defs>
    <clipPath id="clip-path">
      <rect id="SVGID" width="15.706" height="21.197" fill="none"/>
    </clipPath>
    <clipPath id="clip-path-3">
      <rect id="SVGID-3" data-name="SVGID" width="11.585" height="18.748" fill="none"/>
    </clipPath>
    <clipPath id="clip-path-4">
      <rect id="SVGID-4" data-name="SVGID" width="11.583" height="18.747" fill="none"/>
    </clipPath>
    <clipPath id="clip-path-5">
      <rect id="SVGID-5" data-name="SVGID" width="22.245" height="22.297" fill="none"/>
    </clipPath>
  </defs>
  <g id="Group_18965" data-name="Group 18965">
    <path id="Path_103" data-name="Path 103" d="M167.582,45.8c-.008,2.609-1.91,4.639-3.831,4.492-1.949-.152-2.945-2.1-2.941-4.27-.029-2.178,1.028-4.226,3.009-4.468,1.943-.239,3.789,1.636,3.762,4.245" transform="translate(-108.187 -31.639)" fill="#d2c9c0"/>
    <path id="Path_104" data-name="Path 104" d="M238.674,61.684c.023,1.618-.808,3.147-2.193,3.355-1.363.206-2.57-1.057-2.5-2.879.058-1.822,1.377-3.359,2.667-3.37s2.01,1.288,2.022,2.894" transform="translate(-154.622 -42.59)" fill="#d2c9c0"/>
    <path id="Path_105" data-name="Path 105" d="M216.174,85.516c-.231,1.48-1.851,2.392-3.522,2.373s-2.948-.742-2.9-2.116,1.658-2.812,3.531-2.9,3.131,1.183,2.895,2.639" transform="translate(-139.243 -57.873)" fill="#d2c9c0"/>
    <path id="Path_106" data-name="Path 106" d="M219.89,23.162a3.517,3.517,0,0,1-3.836,4,5.166,5.166,0,0,1-4.882-4.488c-.073-2.206,1.717-3.387,4-3.358a4.586,4.586,0,0,1,4.72,3.848" transform="translate(-140.146 -17.538)" fill="#a20f10"/>
    <path id="Path_107" data-name="Path 107" d="M183.059,86.675c.112,1.069-.832,1.726-2.127,1.72a2.668,2.668,0,0,1-2.735-1.935,1.807,1.807,0,0,1,2.116-2,2.922,2.922,0,0,1,2.745,2.22" transform="translate(-119.206 -58.874)" fill="#d2c9c0"/>
    <path id="Path_108" data-name="Path 108" d="M185.932,19.366c-.052,1.455-1.744,2.989-3.7,3.079s-3.271-1.245-3.027-2.792c.243-1.576,1.943-2.547,3.7-2.525,1.737.011,3.081.779,3.032,2.238" transform="translate(-119.84 -16.151)" fill="#bd8d00"/>
    <g id="Group_54" data-name="Group 54" transform="translate(55.098 9.214)" style="mix-blend-mode: multiply;isolation: isolate">
      <g id="Group_53" data-name="Group 53">
        <g id="Group_52" data-name="Group 52" clip-path="url(#clip-path)">
          <g id="Group_51" data-name="Group 51">
            <g id="Group_50" data-name="Group 50" clip-path="url(#clip-path)">
              <path id="Path_109" data-name="Path 109" d="M199.083,70.452a2.891,2.891,0,0,1-4.422.73,3.769,3.769,0,0,1-.146-5.283c1.423-1.583,3.56-1.479,4.48-.171a4.615,4.615,0,0,1,.087,4.724" transform="translate(-184.036 -55.573)" fill="#a20f10"/>
              <path id="Path_110" data-name="Path 110" d="M178.174,47.43a3.253,3.253,0,0,1-4.381.434,2.761,2.761,0,0,1,.111-3.909,3.362,3.362,0,0,1,4.142-.4,2.492,2.492,0,0,1,.128,3.879" transform="translate(-171.043 -41.794)" fill="#a20f10"/>
              <path id="Path_111" data-name="Path 111" d="M188.977,91.43a3.2,3.2,0,0,1-3.054.1,1.377,1.377,0,0,1-.2-2.356A2.769,2.769,0,0,1,189.047,89a1.446,1.446,0,0,1-.069,2.433" transform="translate(-178.732 -70.674)" fill="#e71618"/>
              <path id="Path_112" data-name="Path 112" d="M169.874,77.148a1.186,1.186,0,0,1-1.931-.271,2.378,2.378,0,0,1-.094-2.343c.372-.6,1.191-.607,1.844.119a1.964,1.964,0,0,1,.18,2.495" transform="translate(-167.584 -61.516)" fill="#bd8d00"/>
              <path id="Path_113" data-name="Path 113" d="M202.809,43.254c-.607.721-1.86.536-2.87-.372-1-.924-1.166-2.091-.434-2.7a2.5,2.5,0,0,1,3.066.034,2.338,2.338,0,0,1,.237,3.041" transform="translate(-187.555 -39.67)" fill="#650a00"/>
            </g>
          </g>
        </g>
      </g>
    </g>
    <g id="Group_59" data-name="Group 59" transform="translate(71.307 8.186)" style="mix-blend-mode: multiply;isolation: isolate">
      <g id="Group_58" data-name="Group 58" transform="translate(0 0)">
        <g id="Group_57" data-name="Group 57" clip-path="url(#clip-path-3)">
          <g id="Group_56" data-name="Group 56" transform="translate(0.001 0.001)">
            <g id="Group_55" data-name="Group 55" clip-path="url(#clip-path-4)">
              <path id="Path_114" data-name="Path 114" d="M218.358,55.49a3.48,3.48,0,0,1-4.446,2.6c-1.742-.736-2.127-2.557-1.913-4.244a3.121,3.121,0,0,1,3.627-2.915,3.675,3.675,0,0,1,2.732,4.559" transform="translate(-211.946 -45.756)" fill="#bd8d00"/>
              <path id="Path_115" data-name="Path 115" d="M237.03,68.779a2.127,2.127,0,0,1-2.179,2.009,1.9,1.9,0,0,1-1.492-2.52,2.4,2.4,0,0,1,2.584-1.857c.936.254,1.233,1.221,1.087,2.368" transform="translate(-225.481 -55.586)" fill="#bd8d00"/>
              <path id="Path_116" data-name="Path 116" d="M218.558,80.82c-.292.845-1.374,1.19-2.526,1.027a1.989,1.989,0,0,1-1.687-2.344c.185-1.025,1.181-1.487,2.449-1.092s2.064,1.549,1.764,2.41" transform="translate(-213.445 -63.139)" fill="#650a00"/>
              <path id="Path_117" data-name="Path 117" d="M231.585,40.205c-.233,1.4-1.576,2.146-3.406,1.645-1.812-.519-2.864-2.185-2.379-3.472s1.99-1.673,3.539-1.47a2.728,2.728,0,0,1,2.245,3.3" transform="translate(-220.664 -36.858)" fill="#e71618"/>
            </g>
          </g>
        </g>
      </g>
    </g>
    <g id="Group_64" data-name="Group 64" transform="translate(54.11 0.297)" style="mix-blend-mode: multiply;isolation: isolate">
      <g id="Group_63" data-name="Group 63">
        <g id="Group_62" data-name="Group 62" clip-path="url(#clip-path-5)">
          <g id="Group_61" data-name="Group 61">
            <g id="Group_60" data-name="Group 60" clip-path="url(#clip-path-5)">
              <path id="Path_118" data-name="Path 118" d="M191.8,47.532a3.8,3.8,0,1,1,2.672-4.64,3.807,3.807,0,0,1-2.672,4.64" transform="translate(-178.886 -31.008)" fill="#d2c9c0"/>
              <path id="Path_119" data-name="Path 119" d="M189.532,19.806c-1.732.44-3.49-.477-3.809-1.826-.323-1.375.776-2.45,2.26-2.655s3.016.168,3.583,1.341-.305,2.712-2.034,3.14" transform="translate(-178.072 -15.268)" fill="#d2c9c0"/>
              <path id="Path_120" data-name="Path 120" d="M190.278,70.737a2.532,2.532,0,0,1-2.653-.954c-.415-.813.184-1.84,1.405-2.112a2.384,2.384,0,0,1,2.788,1.269c.278.922-.459,1.637-1.539,1.8" transform="translate(-179.231 -48.482)" fill="#650a00"/>
              <path id="Path_121" data-name="Path 121" d="M167.245,62.982a2.073,2.073,0,0,1-2.311-1.771c-.209-1.178.2-2.214,1.038-2.4a2.452,2.452,0,0,1,2.4,1.813,1.639,1.639,0,0,1-1.125,2.359" transform="translate(-164.881 -42.883)" fill="#650a00"/>
              <path id="Path_122" data-name="Path 122" d="M215.7,51.016a2.284,2.284,0,0,1-3.221-1.787,3.561,3.561,0,0,1,2.059-4.047c1.434-.45,2.457.542,2.679,2.01.237,1.47-.2,3.174-1.517,3.825" transform="translate(-195.035 -34.182)" fill="#650a00"/>
              <path id="Path_123" data-name="Path 123" d="M170.66,32.195a1.25,1.25,0,0,1-1.725-1.055,2.037,2.037,0,0,1,1.09-2.208,1.321,1.321,0,0,1,1.864.988,2.09,2.09,0,0,1-1.229,2.275" transform="translate(-167.433 -23.862)" fill="#e71618"/>
              <path id="Path_124" data-name="Path 124" d="M208.564,27.405a3.425,3.425,0,0,1-3.841-2.369,2.449,2.449,0,0,1,1.858-3.359,3.2,3.2,0,0,1,3.6,2.226,2.636,2.636,0,0,1-1.619,3.5" transform="translate(-190.066 -19.303)" fill="#d2c9c0"/>
            </g>
          </g>
        </g>
      </g>
    </g>
    <path id="Path_125" data-name="Path 125" d="M191.2,46.726a3.5,3.5,0,1,1,.836-6.408,3.444,3.444,0,0,1,1.629,2.13,3.5,3.5,0,0,1-2.465,4.278m3.041-4.427a4.027,4.027,0,0,0-1.908-2.5,4.15,4.15,0,0,0-5.681,1.582,4.087,4.087,0,0,0,4.708,5.915,4.135,4.135,0,0,0,2.881-5" transform="translate(-124.257 -30.191)" fill="#cc9017"/>
    <path id="Path_126" data-name="Path 126" d="M237.857,61.172c.021,1.372-.64,2.861-1.938,3.055a1.648,1.648,0,0,1-1.364-.425,2.705,2.705,0,0,1-.793-2.146c.059-1.755,1.3-3.076,2.375-3.085,1.255-.008,1.712,1.4,1.721,2.6m-1.726-3.2c-1.515.013-2.9,1.722-2.964,3.657a3.285,3.285,0,0,0,.991,2.613,2.229,2.229,0,0,0,1.849.57c1.444-.215,2.472-1.751,2.447-3.651s-.949-3.2-2.323-3.188" transform="translate(-154.104 -42.073)" fill="#cc9017"/>
    <path id="Path_127" data-name="Path 127" d="M166.766,45.281a4.658,4.658,0,0,1-1.409,3.378,2.82,2.82,0,0,1-2.1.819c-1.846-.145-2.667-2.1-2.665-3.972-.025-1.848.824-3.94,2.746-4.173a2.675,2.675,0,0,1,2.123.721,4.225,4.225,0,0,1,1.306,3.227m-3.5-4.54c-1.961.238-3.307,2.2-3.272,4.769,0,2.575,1.288,4.411,3.216,4.562a3.394,3.394,0,0,0,2.548-.976,5.191,5.191,0,0,0,1.6-3.813,4.818,4.818,0,0,0-1.5-3.674,3.271,3.271,0,0,0-2.591-.868" transform="translate(-107.669 -31.122)" fill="#cc9017"/>
    <path id="Path_128" data-name="Path 128" d="M219.079,22.678a3.269,3.269,0,0,1-.811,2.641,3.447,3.447,0,0,1-2.718,1.028c-2.288-.075-4.522-2.119-4.6-4.2a2.672,2.672,0,0,1,.736-2.037,4.019,4.019,0,0,1,2.96-1.014,4.317,4.317,0,0,1,4.429,3.584m-4.42-4.179a4.592,4.592,0,0,0-3.392,1.192,3.278,3.278,0,0,0-.906,2.473c.086,2.415,2.55,4.69,5.172,4.778a4.026,4.026,0,0,0,3.172-1.221,3.859,3.859,0,0,0,.966-3.11,4.851,4.851,0,0,0-5.012-4.113" transform="translate(-139.63 -17.021)" fill="#cc9017"/>
    <path id="Path_129" data-name="Path 129" d="M198.311,69.785a2.614,2.614,0,0,1-1.831,1.272,2.586,2.586,0,0,1-2.142-.618,3.1,3.1,0,0,1-1.04-2.176,3.642,3.642,0,0,1,.921-2.679,3,3,0,0,1,2.387-1.068,2.108,2.108,0,0,1,1.628.868,4.3,4.3,0,0,1,.076,4.4m.411-4.742a2.709,2.709,0,0,0-2.081-1.12,3.6,3.6,0,0,0-2.863,1.262,4.242,4.242,0,0,0-1.073,3.12,3.7,3.7,0,0,0,1.248,2.589,3.176,3.176,0,0,0,2.624.751,3.212,3.212,0,0,0,2.246-1.558,4.913,4.913,0,0,0-.1-5.044" transform="translate(-128.423 -45.844)" fill="#cc9017"/>
    <path id="Path_130" data-name="Path 130" d="M215.366,84.955c-.22,1.4-1.827,2.138-3.226,2.122a3.111,3.111,0,0,1-2.209-.73,1.434,1.434,0,0,1-.4-1.078c.041-1.141,1.469-2.529,3.246-2.607a2.645,2.645,0,0,1,2.14.782,1.8,1.8,0,0,1,.449,1.512m-2.618-2.888c-1.938.086-3.754,1.6-3.813,3.18a2.03,2.03,0,0,0,.567,1.512,3.631,3.631,0,0,0,2.631.912c1.69.019,3.545-.875,3.822-2.623a2.391,2.391,0,0,0-.6-2,3.234,3.234,0,0,0-2.611-.978" transform="translate(-138.727 -57.359)" fill="#cc9017"/>
    <path id="Path_131" data-name="Path 131" d="M188.3,90.661a2.914,2.914,0,0,1-2.755.091,1.1,1.1,0,0,1-.6-.818,1.228,1.228,0,0,1,.462-1.053,2.46,2.46,0,0,1,2.944-.164,1.146,1.146,0,0,1-.048,1.945m.414-2.415A3.059,3.059,0,0,0,185,88.44a1.811,1.811,0,0,0-.652,1.567,1.691,1.691,0,0,0,.917,1.271,3.5,3.5,0,0,0,3.355-.116,1.792,1.792,0,0,0,.837-1.422,1.814,1.814,0,0,0-.745-1.494" transform="translate(-123.117 -60.943)" fill="#cc9017"/>
    <path id="Path_132" data-name="Path 132" d="M217.551,54.9a3.392,3.392,0,0,1-1.744,2.225,2.777,2.777,0,0,1-2.3.17c-1.84-.778-1.873-2.8-1.729-3.93a3.162,3.162,0,0,1,1.191-2.188,2.608,2.608,0,0,1,2.086-.472,3.136,3.136,0,0,1,2.059,1.425,3.509,3.509,0,0,1,.438,2.77m-2.389-4.78a3.186,3.186,0,0,0-2.55.58,3.708,3.708,0,0,0-1.425,2.6c-.281,2.206.481,3.867,2.093,4.548a3.379,3.379,0,0,0,2.8-.189,4,4,0,0,0,2.05-2.617,4.1,4.1,0,0,0-.517-3.229,3.725,3.725,0,0,0-2.451-1.691" transform="translate(-140.121 -37.052)" fill="#cc9017"/>
    <path id="Path_133" data-name="Path 133" d="M188.945,19a3.228,3.228,0,0,1-2.454-.344,2.077,2.077,0,0,1-.992-1.263,1.612,1.612,0,0,1,.232-1.31,2.537,2.537,0,0,1,1.779-.982c1.167-.17,2.723.038,3.275,1.176a1.579,1.579,0,0,1-.04,1.365,2.643,2.643,0,0,1-1.8,1.357m2.374-2.983c-.569-1.174-2.1-1.765-3.892-1.5a3.131,3.131,0,0,0-2.185,1.234,2.186,2.186,0,0,0-.321,1.782,2.658,2.658,0,0,0,1.262,1.635,3.815,3.815,0,0,0,2.907.411,3.229,3.229,0,0,0,2.195-1.677,2.155,2.155,0,0,0,.035-1.881" transform="translate(-123.447 -14.454)" fill="#cc9017"/>
    <path id="Path_134" data-name="Path 134" d="M173.442,106.289c7.327,0,13.768,1.307,17.489,3.282-2.3-2.586-9.257-4.467-17.489-4.467s-15.2,1.881-17.492,4.467c3.722-1.974,10.162-3.282,17.492-3.282" transform="translate(-105.103 -71.981)" fill="#cc9017"/>
    <path id="Path_135" data-name="Path 135" d="M243.526,214.727a1.271,1.271,0,0,1-.556-.093.689.689,0,0,1-.282-.149.732.732,0,0,1-.2-.3,1.748,1.748,0,0,1-.116-.485,6.387,6.387,0,0,1-.035-.71V202.605a6.182,6.182,0,0,0-.034-.665,5.132,5.132,0,0,0-.118-.671,2.231,2.231,0,0,0-.233-.588,1.236,1.236,0,0,0-.393-.423,1.091,1.091,0,0,0-.609-.162h-3.022v.473h.591a2.162,2.162,0,0,1,.76.121,1.706,1.706,0,0,1,.559.353,1.35,1.35,0,0,1,.234.643,7.167,7.167,0,0,1,.077,1.207v12.863h10.546V214.74h-5.978c-.506,0-.9,0-1.188-.012m40.593.312a5.708,5.708,0,0,1-1.149-.562,8.276,8.276,0,0,1-1.018-.766c-.314-.287-.629-.582-.93-.892l-5.71-5.767,2.382-2.368c.691-.716,1.225-1.268,1.6-1.662s.6-.634.671-.719a13.065,13.065,0,0,1,1.079-.894,5.683,5.683,0,0,1,.86-.533,2.971,2.971,0,0,1,.744-.255,4.046,4.046,0,0,1,.717-.062V200.1h-1.23a3.075,3.075,0,0,0-1.259.232,3.808,3.808,0,0,0-.947.6,7.137,7.137,0,0,0-.807.839,10.719,10.719,0,0,1-.847.915l-3.594,3.538-1.524,1.432v-4.75c0-.626-.017-1.122-.045-1.492a1.792,1.792,0,0,0-.25-.85.945.945,0,0,0-.617-.381,6.062,6.062,0,0,0-1.158-.088h-3.1l.045.031h-.03v11.733l-8.271-10.325a5.344,5.344,0,0,0-.7-.707,3.056,3.056,0,0,0-.693-.439,2.924,2.924,0,0,0-.8-.223,7.613,7.613,0,0,0-.988-.057h-2.026V200.1h-2.1c0,.756,0,1.452-.008,2.089s-.007,1.238-.007,1.805-.005,1.108-.01,1.621-.007,1.024-.007,1.533c0,.457,0,.918,0,1.385s.008.951.014,1.457.012,1.038.016,1.6.016,1.16.029,1.8v.16a3.427,3.427,0,0,0,.145,1.071,1.553,1.553,0,0,0,.442.678,1.773,1.773,0,0,0,.751.358,5.023,5.023,0,0,0,1.1.1h1.836v-.427H256.2a3.008,3.008,0,0,1-.546-.052,1.247,1.247,0,0,1-.5-.217.811.811,0,0,1-.357-.22.8.8,0,0,1-.187-.368,2.575,2.575,0,0,1-.072-.585c-.019-.234-.019-.525-.019-.873V200.6a3.064,3.064,0,0,1,2.084.725,2.86,2.86,0,0,1,.785,2.19v12.255h1.018V203.456l10.176,12.578h.426V200.559h.291a2.722,2.722,0,0,1,.5.052,1.621,1.621,0,0,1,.538.213.94.94,0,0,1,.288.211.785.785,0,0,1,.177.351,2.81,2.81,0,0,1,.093.589c.024.243.029.552.029.919v12.85h2.222v-7.783l5.338,5.344a15.976,15.976,0,0,0,1.63,1.446,9.468,9.468,0,0,0,1.385.889,5.2,5.2,0,0,0,1.149.451,3.941,3.941,0,0,0,.937.128,2.87,2.87,0,0,0,.627-.064,5.277,5.277,0,0,0,.512-.14,3.617,3.617,0,0,0,.39-.157,1.553,1.553,0,0,1,.294-.117v-.445a4.322,4.322,0,0,1-1.3-.255" transform="translate(-157.125 -132.265)" fill="#cc9017"/>
    <path id="Path_136" data-name="Path 136" d="M54.544,203.053a7.066,7.066,0,0,0-1.2-1.558,5.478,5.478,0,0,0-1.649-1.07,9.216,9.216,0,0,0-2.266-.615,20.753,20.753,0,0,0-3.059-.2H40.09v.429h.589a1.574,1.574,0,0,1,1.282.484,1.405,1.405,0,0,1,.243.655,6.992,6.992,0,0,1,.083,1.224v12.867h4.681a11.19,11.19,0,0,0,3.789-.584,7.553,7.553,0,0,0,2.717-1.634,6.6,6.6,0,0,0,1.639-2.5,8.824,8.824,0,0,0,.553-3.192,9.176,9.176,0,0,0-.277-2.291,7.49,7.49,0,0,0-.844-2.017m-1.934,7.315a6.5,6.5,0,0,1-1.3,2.21,5.7,5.7,0,0,1-1.954,1.4,5.98,5.98,0,0,1-2.441.494,11.752,11.752,0,0,1-2.409-.312V200.848a8.786,8.786,0,0,1,1.238-.284,7.633,7.633,0,0,1,1.115-.088,6.186,6.186,0,0,1,2.5.5,5.734,5.734,0,0,1,1.966,1.412,6.576,6.576,0,0,1,1.288,2.208,8.588,8.588,0,0,1,.458,2.88,8.5,8.5,0,0,1-.465,2.892M97.35,214.2a3.25,3.25,0,0,1-.551-.755c-.169-.307-.353-.688-.542-1.132l-5.389-12.981h-.44L83.646,215.3l1.074-.027,1.516-3.555a6.758,6.758,0,0,1,.441-.743,7.559,7.559,0,0,1,.64-.8,7.791,7.791,0,0,1,.817-.772,6.329,6.329,0,0,1,.993-.663,6.069,6.069,0,0,1,1.166-.473,5.12,5.12,0,0,1,1.328-.21,3.17,3.17,0,0,0-.951-.338,5.9,5.9,0,0,0-1.209-.123,4.652,4.652,0,0,0-.961.094,1.584,1.584,0,0,0-.7.311l2.218-5.059,3.921,9.4a5.54,5.54,0,0,0,.943,1.6,4.157,4.157,0,0,0,1.079.9,3.4,3.4,0,0,0,1.1.4,5.9,5.9,0,0,0,.994.093,3.65,3.65,0,0,0,.51-.031,3.3,3.3,0,0,1,.394-.031v-.427a3.365,3.365,0,0,1-.928-.194,1.888,1.888,0,0,1-.672-.448m-13.744-4.441A3.209,3.209,0,0,0,83,208.689a3.68,3.68,0,0,0-2.511-1.085c1.025-.02,3.311-2.412,2.368-5.14a3.871,3.871,0,0,0-.675-1.132,3.964,3.964,0,0,0-.88-.808,4.739,4.739,0,0,0-1.178-.547,8.071,8.071,0,0,0-1.54-.313,18.608,18.608,0,0,0-2.011-.1H69.83v.016H68.535a.682.682,0,0,0-.437.117.6.6,0,0,0-.192.42,4.643,4.643,0,0,0-.035.844c0,.36.01.824.01,1.393v6.82c0,.293-.01.615-.037.965s-.062.709-.116,1.081a6.338,6.338,0,0,1-.245,1.072,3.008,3.008,0,0,1-.371.774,2.656,2.656,0,0,1-.51.6,3.429,3.429,0,0,1-.724.472,4.014,4.014,0,0,1-.923.331,5.985,5.985,0,0,1-1.175.118,6.068,6.068,0,0,1-1.182-.118,4,4,0,0,1-.924-.331,3.383,3.383,0,0,1-.724-.472,2.641,2.641,0,0,1-.515-.6,3.041,3.041,0,0,1-.366-.774,6.128,6.128,0,0,1-.246-1.072c-.053-.372-.092-.731-.115-1.081s-.04-.672-.04-.965v-6.82q0-.853.014-1.393a5.9,5.9,0,0,0-.034-.844.626.626,0,0,0-.194-.42.689.689,0,0,0-.44-.117h-3.83v.439h.59a2.666,2.666,0,0,1,.767.1.886.886,0,0,1,.482.33,2.894,2.894,0,0,1,.426,1.91v6.119c0,.927.031,1.71.085,2.348a6.021,6.021,0,0,0,.286,1.494,4.524,4.524,0,0,0,.726,1.341,5.117,5.117,0,0,0,1.138,1.054,8.052,8.052,0,0,0,4.09.866,8.047,8.047,0,0,0,4.089-.866A5,5,0,0,0,69,213.66a4.439,4.439,0,0,0,.728-1.341,6.087,6.087,0,0,0,.286-1.494q.084-.956.085-2.348v-6.119a2.893,2.893,0,0,1,.427-1.91.861.861,0,0,1,.465-.322c.062.015.144.009.2.03a1.543,1.543,0,0,1,.577.367,3.578,3.578,0,0,1,.313,1.885v12.864h5.081a11.655,11.655,0,0,0,3.936-.5,4.07,4.07,0,0,0,1.118-.646,4.676,4.676,0,0,0,.858-.9,4.067,4.067,0,0,0,.534-1.062,3.6,3.6,0,0,0,.188-1.144,4.218,4.218,0,0,0-.192-1.259m-2.758,2.743a3.021,3.021,0,0,1-.84,1.04,4.109,4.109,0,0,1-1.339.683,6.034,6.034,0,0,1-1.779.243,10.436,10.436,0,0,1-1.293-.081,10.17,10.17,0,0,1-1.3-.255v-4.392c.123-.111.227-.23.36-.339a6.306,6.306,0,0,1,1-.663,6.018,6.018,0,0,1,1.162-.473,5.161,5.161,0,0,1,1.331-.21,3.178,3.178,0,0,0-.953-.338,5.908,5.908,0,0,0-1.209-.123,4.718,4.718,0,0,0-.965.094,1.6,1.6,0,0,0-.7.311.091.091,0,0,1-.021.026v-7.406a4.831,4.831,0,0,1,.964-.168c.342-.03.7-.042,1.075-.042a7.088,7.088,0,0,1,1.864.221,3.242,3.242,0,0,1,1.364.741,3.046,3.046,0,0,1,.866,1.035,2.956,2.956,0,0,1,.277,1.277,4.97,4.97,0,0,1-.375,2.131,9.665,9.665,0,0,1-1.385,2.12,4.623,4.623,0,0,1,2.195,3.24,2.777,2.777,0,0,1-.3,1.33m23.549,2.339a2.98,2.98,0,0,1-.543-.052,1.254,1.254,0,0,1-.5-.217.837.837,0,0,1-.358-.221.809.809,0,0,1-.185-.368,3.287,3.287,0,0,1-.077-.585c-.01-.233-.017-.524-.017-.873V199.614h-2.1c0,.755,0,1.453-.01,2.089s-.006,1.238-.006,1.805,0,1.108-.008,1.622-.009,1.023-.009,1.532c0,.457,0,.918.009,1.385s0,.952.008,1.457.006,1.038.016,1.6.014,1.161.032,1.8v.16a3.249,3.249,0,0,0,.147,1.071,1.453,1.453,0,0,0,.438.679,1.747,1.747,0,0,0,.756.358,4.985,4.985,0,0,0,1.094.1h1.838v-.427Z" transform="translate(-31.576 -131.782)" fill="#cc9017"/>
    <path id="Path_137" data-name="Path 137" d="M52.393,142.647l-1.377.166H49.188q0-1.814,1.567-1.851a1.858,1.858,0,0,1,1.329.522,10.462,10.462,0,0,0,.452-1.164,3.823,3.823,0,0,0-2.256-.783q-2.989,0-2.99,3.275H45.936v1.425h7.714Zm21.245-3.18a1.419,1.419,0,0,0,1.448-1.424,1.452,1.452,0,0,0-1.448-1.448,1.47,1.47,0,0,0-1.472,1.423,1.445,1.445,0,0,0,1.472,1.449m9,14.785a1.429,1.429,0,0,0-1.425,1.424,1.4,1.4,0,0,0,1.425,1.448,1.436,1.436,0,1,0,0-2.872m-3.8,0a1.464,1.464,0,0,0-1.448,1.424,1.438,1.438,0,0,0,1.448,1.448,1.436,1.436,0,1,0,0-2.872m12.816-14V147.8c0,1.305-.57,1.946-1.732,1.946h-4.39c-1.163,0-1.733-.616-1.733-1.875v-6.124l-2.823.617.475,3.062v2.445c0,1.259-.57,1.875-1.732,1.875H76.985c-1.164,0-1.732-.616-1.732-1.875V141.84l-2.824.641.475,3.085v2.3c0,1.259-.57,1.875-1.733,1.875H60.415a1.572,1.572,0,0,1-1.757-1.661V136.6l-2.777.641.452,3.037v7.6c0,1.259-.594,1.875-1.757,1.875H44.8c-1.875,0-2.824-1.163-2.824-3.465a5.2,5.2,0,0,1,1.115-2.9H40.977a6.619,6.619,0,0,0-.926,3.371,5.541,5.541,0,0,0,1.21,3.726,4.117,4.117,0,0,0,3.252,1.4H55.169a3.731,3.731,0,0,0,2.3-.689,4.006,4.006,0,0,0,2.374.689H71.787a3.628,3.628,0,0,0,2.279-.712,3.622,3.622,0,0,0,2.325.712H80.33a3.627,3.627,0,0,0,2.279-.712,3.625,3.625,0,0,0,2.326.712h5.553a3.268,3.268,0,0,0,3.537-3.537v-11.89l-2.777.665Zm14.314,19.059a1.43,1.43,0,0,0-1.472,1.447,1.448,1.448,0,0,0,2.9,0,1.433,1.433,0,0,0-1.424-1.447m3.774,0a1.41,1.41,0,0,0-1.448,1.447,1.435,1.435,0,0,0,2.871,0,1.418,1.418,0,0,0-1.423-1.447m36.087-13.79v2.35c0,1.259-.57,1.875-1.732,1.875H120.038c-1.138,0-1.708-.641-1.708-1.946l.024-5.958h-4.463a5.345,5.345,0,0,0-4.035,1.614,5.816,5.816,0,0,0-1.542,4.177,4.443,4.443,0,0,0,1.234,3.348,4.079,4.079,0,0,0,2.99,1.186,3.548,3.548,0,0,1-.759,2.017,3.266,3.266,0,0,1-2.184,1.424h-2.824c-3.039,0-4.7-2.184-4.7-5.886v-4.249H99.747v4.3a8.07,8.07,0,0,0,1.566,5.316,6.4,6.4,0,0,0,5.127,2.041h3.7a5.274,5.274,0,0,0,4.817-5.34v-1.567h-1.97c-1.495-.023-2.231-1.02-2.231-2.967,0-2.54,1-3.8,2.967-3.8h2.23v4.889a3.261,3.261,0,0,0,3.513,3.537h25.193a3.235,3.235,0,0,0,3.512-3.442v-6.575l-2.754.618Zm-.38,8.734a1.428,1.428,0,0,0-1.424,1.424,1.4,1.4,0,0,0,1.424,1.448,1.448,1.448,0,0,0,1.447-1.424,1.41,1.41,0,0,0-1.447-1.448m14.074-4.533v-2.564a5.659,5.659,0,0,0-1.354-3.8,4.366,4.366,0,0,0-3.488-1.519,5.687,5.687,0,0,1-.737.095c.072.641.119,1.092.119,1.329a1.815,1.815,0,0,1,.735-.167,1.965,1.965,0,0,1,1.662.9,4.93,4.93,0,0,1,.688,2.754v2.491l-.071.5H151.07l-.618,2.136h9.423Z" transform="translate(-31.552 -91.876)" fill="#cc9017"/>
    <path id="Path_138" data-name="Path 138" d="M26.469,274.978v.785H22.824v10.726H20.556V275.763H19.318a2.179,2.179,0,0,0-1.464.462,2.061,2.061,0,0,0-.541,1.631H16.79v-1.482a2.172,2.172,0,0,1,.06-.515,1.031,1.031,0,0,1,.227-.444,1.2,1.2,0,0,1,.454-.315,1.919,1.919,0,0,1,.741-.122Z" transform="translate(-16.79 -179.786)" fill="#cc9017"/>
    <path id="Path_139" data-name="Path 139" d="M48.564,281.222h-.7v5.267H45.581v-9.243a3.079,3.079,0,0,0-.217-1.264q-.218-.479-1-.48h-.174v-.524H49c.28,0,.586.012.924.035a6.5,6.5,0,0,1,1.03.157,5.781,5.781,0,0,1,1.02.34,3.137,3.137,0,0,1,.88.575,2.762,2.762,0,0,1,.62.873,2.947,2.947,0,0,1,.235,1.229,2.586,2.586,0,0,1-.253,1.179,2.64,2.64,0,0,1-.662.836,3.567,3.567,0,0,1-.916.549,7.151,7.151,0,0,1-.995.332l1.831,3.052a6.5,6.5,0,0,0,.637.915,3.675,3.675,0,0,0,.585.568,2.337,2.337,0,0,0,.514.3,2.2,2.2,0,0,0,.427.131v.436a1.838,1.838,0,0,1-.5.122,4.805,4.805,0,0,1-.689.052,3.185,3.185,0,0,1-.882-.121,2.662,2.662,0,0,1-.837-.419,4.6,4.6,0,0,1-.82-.785,9.976,9.976,0,0,1-.847-1.2ZM49,275.676c-.14,0-.279.006-.419.017a2.734,2.734,0,0,0-.366.053c-.128.023-.245.041-.349.053v4.726h1.046a2.992,2.992,0,0,0,.838-.121,2.117,2.117,0,0,0,.759-.4,1.989,1.989,0,0,0,.55-.749,2.835,2.835,0,0,0,.21-1.151,2.773,2.773,0,0,0-.21-1.143,2.157,2.157,0,0,0-.541-.75,2,2,0,0,0-.732-.409,2.7,2.7,0,0,0-.785-.122" transform="translate(-34.176 -179.786)" fill="#cc9017"/>
    <path id="Path_140" data-name="Path 140" d="M83.089,284.29a3.675,3.675,0,0,0,.767,1.222,1.732,1.732,0,0,0,1.047.522v.437a2.869,2.869,0,0,1-.392.061c-.169.017-.317.025-.445.025a5.552,5.552,0,0,1-.9-.078,3.231,3.231,0,0,1-.942-.313,3.109,3.109,0,0,1-.871-.681,4.06,4.06,0,0,1-.725-1.2l-.4-.976H75.563l-1.438,3.174h-.873L78.4,274.977h.785Zm-7.158-1.761h3.963l-1.928-4.552Z" transform="translate(-52.622 -179.785)" fill="#cc9017"/>
    <path id="Path_141" data-name="Path 141" d="M100.661,276.715a4.514,4.514,0,0,0-.811-1.368,1.555,1.555,0,0,0-.916-.463v-.348c.048,0,.16-.005.341-.017s.31-.018.391-.018a6.487,6.487,0,0,1,.933.069,2.995,2.995,0,0,1,1.8.959,3.962,3.962,0,0,1,.725,1.186l2.762,6.524,3.69-8.564h.873l-5.024,11.686h-.7Z" transform="translate(-68.92 -179.483)" fill="#cc9017"/>
    <path id="Path_142" data-name="Path 142" d="M139.224,274.978a1.925,1.925,0,0,1,.742.122,1.2,1.2,0,0,1,.453.315,1.044,1.044,0,0,1,.227.444,2.177,2.177,0,0,1,.061.515v1.482h-.523a2.018,2.018,0,0,0-.566-1.6,2.4,2.4,0,0,0-1.614-.489H135.2v4.361h4.533v.784H135.2v4.8h2.982a2.969,2.969,0,0,0,1.631-.427,3.177,3.177,0,0,0,1.125-1.56l.472.175-.508,1.377a2.484,2.484,0,0,1-.5.889,1.337,1.337,0,0,1-1.021.331h-6.452v-9.242a3.094,3.094,0,0,0-.219-1.266q-.219-.478-1-.479h-.175v-.523Z" transform="translate(-89.607 -179.786)" fill="#cc9017"/>
    <path id="Path_143" data-name="Path 143" d="M169.854,285.7v.785H161.57v-9.243a3.078,3.078,0,0,0-.218-1.264c-.145-.32-.479-.48-1-.48h-.173v-.523h2.092a2.212,2.212,0,0,1,.759.113,1.021,1.021,0,0,1,.49.376,1.677,1.677,0,0,1,.252.7,7.161,7.161,0,0,1,.069,1.081V285.7Z" transform="translate(-107.784 -179.786)" fill="#cc9017"/>
    <path id="Path_144" data-name="Path 144" d="M200.124,283.527a2.572,2.572,0,0,1,.217-1.072,3.261,3.261,0,0,1,.593-.881,5.223,5.223,0,0,1,.873-.742,9.883,9.883,0,0,1,1.073-.636c-.081-.07-.231-.212-.445-.427a5.941,5.941,0,0,1-.654-.793,6.049,6.049,0,0,1-.585-1.047,2.915,2.915,0,0,1-.253-1.186,2.392,2.392,0,0,1,.925-2.006,4.1,4.1,0,0,1,2.564-.715,3.688,3.688,0,0,1,2.406.681,2.181,2.181,0,0,1,.82,1.761,2.432,2.432,0,0,1-.219,1.021,3.821,3.821,0,0,1-.593.915,6.073,6.073,0,0,1-.862.82q-.491.385-1.03.733l3.225,3.488a7.477,7.477,0,0,0,.585-.733q.272-.383.462-.679c.152-.233.291-.465.42-.7l.662.435a6.479,6.479,0,0,1-.384.749q-.191.332-.48.741a7.987,7.987,0,0,1-.671.828l1.691,1.8h-2.371l-.664-.662a5.554,5.554,0,0,1-.837.505,6.027,6.027,0,0,1-.959.349,4.442,4.442,0,0,1-1.2.157,8.1,8.1,0,0,1-2.032-.218,3.976,3.976,0,0,1-1.334-.585,2.137,2.137,0,0,1-.725-.854,2.554,2.554,0,0,1-.217-1.048m4.465,2.006a3.108,3.108,0,0,0,.959-.139,3.577,3.577,0,0,0,.732-.315,3.044,3.044,0,0,0,.629-.453q-.891-.976-1.667-1.8t-1.665-1.8a4.361,4.361,0,0,0-.828,1,2.462,2.462,0,0,0-.358,1.317,2.243,2.243,0,0,0,.549,1.587,2.141,2.141,0,0,0,1.649.593m-1.378-8.79a3.048,3.048,0,0,0,.114.863,3.593,3.593,0,0,0,.278.707,3.047,3.047,0,0,0,.357.54c.129.152.245.279.349.384a4.508,4.508,0,0,0,.907-1.125,2.968,2.968,0,0,0,.348-1.474,3.317,3.317,0,0,0-.1-.907,1.881,1.881,0,0,0-.27-.592,1,1,0,0,0-.366-.324.914.914,0,0,0-.392-.1,1.057,1.057,0,0,0-.907.428,2.873,2.873,0,0,0-.313,1.6" transform="translate(-133.136 -179.179)" fill="#cc9017"/>
    <path id="Path_145" data-name="Path 145" d="M251.332,274.978v.785h-3.646v10.726h-2.267V275.763h-1.239a2.177,2.177,0,0,0-1.464.462,2.059,2.059,0,0,0-.542,1.631h-.522v-1.482a2.154,2.154,0,0,1,.06-.515,1.023,1.023,0,0,1,.227-.444,1.2,1.2,0,0,1,.453-.315,1.92,1.92,0,0,1,.741-.122Z" transform="translate(-159.491 -179.786)" fill="#cc9017"/>
    <path id="Path_146" data-name="Path 146" d="M268.192,280.128a6.926,6.926,0,0,1,.409-2.407,5.725,5.725,0,0,1,1.168-1.936,5.509,5.509,0,0,1,1.815-1.292,6.174,6.174,0,0,1,4.727,0,5.406,5.406,0,0,1,1.8,1.292,5.808,5.808,0,0,1,1.161,1.936,7.263,7.263,0,0,1,0,4.813,5.8,5.8,0,0,1-1.161,1.936,5.388,5.388,0,0,1-1.8,1.291,6.162,6.162,0,0,1-4.727,0,5.491,5.491,0,0,1-1.815-1.291,5.712,5.712,0,0,1-1.168-1.936,6.925,6.925,0,0,1-.409-2.406m9.086,0a7.4,7.4,0,0,0-.872-3.932,2.865,2.865,0,0,0-4.909,0,9.393,9.393,0,0,0,0,7.865,2.866,2.866,0,0,0,4.909,0,7.4,7.4,0,0,0,.872-3.933" transform="translate(-176.333 -179.18)" fill="#cc9017"/>
    <path id="Path_147" data-name="Path 147" d="M305.634,281.989a5.2,5.2,0,0,0,.706,2.852,2.314,2.314,0,0,0,2.067,1.037,3.048,3.048,0,0,0,2.59-1.064,5.539,5.539,0,0,0,.811-3.349v-6.488h.871v6.488a8.892,8.892,0,0,1-.245,2.2,4.13,4.13,0,0,1-.793,1.631,3.441,3.441,0,0,1-1.43,1.019,5.848,5.848,0,0,1-2.154.349q-4.708,0-4.709-5.2v-4.22a3.082,3.082,0,0,0-.218-1.264c-.146-.32-.479-.48-1-.48v-.523h1.918a2.233,2.233,0,0,1,.76.114,1.019,1.019,0,0,1,.487.375,1.665,1.665,0,0,1,.253.7,7.028,7.028,0,0,1,.071,1.082Z" transform="translate(-197.869 -179.785)" fill="#cc9017"/>
    <path id="Path_148" data-name="Path 148" d="M339.3,281.222h-.7v5.267h-2.285v-9.243a3.108,3.108,0,0,0-.216-1.264c-.146-.319-.481-.48-1-.48h-.175v-.524h4.814q.418,0,.924.035a6.492,6.492,0,0,1,1.03.157,5.809,5.809,0,0,1,1.019.34,3.158,3.158,0,0,1,.881.575,2.758,2.758,0,0,1,.619.873,2.935,2.935,0,0,1,.235,1.229,2.572,2.572,0,0,1-.253,1.179,2.655,2.655,0,0,1-.662.836,3.555,3.555,0,0,1-.917.549,7.1,7.1,0,0,1-.994.332l1.832,3.052a6.483,6.483,0,0,0,.636.915,3.749,3.749,0,0,0,.584.568,2.317,2.317,0,0,0,.515.3,2.215,2.215,0,0,0,.426.131v.436a1.821,1.821,0,0,1-.5.122,4.783,4.783,0,0,1-.689.052,3.179,3.179,0,0,1-.88-.121,2.666,2.666,0,0,1-.837-.419,4.665,4.665,0,0,1-.82-.785,10.123,10.123,0,0,1-.846-1.2Zm.437-5.547c-.139,0-.279.006-.419.017a2.69,2.69,0,0,0-.366.053c-.129.023-.245.041-.349.053v4.726h1.047a2.976,2.976,0,0,0,.837-.121,2.111,2.111,0,0,0,.76-.4,2,2,0,0,0,.549-.749A2.837,2.837,0,0,0,342,278.1a2.774,2.774,0,0,0-.208-1.143,2.167,2.167,0,0,0-.542-.75,1.979,1.979,0,0,0-.732-.409,2.685,2.685,0,0,0-.784-.122" transform="translate(-218.678 -179.786)" fill="#cc9017"/>
    <path id="Path_149" data-name="Path 149" d="M369.791,286.239a7.309,7.309,0,0,1-1.422-.14,5.2,5.2,0,0,1-1.265-.41,2.843,2.843,0,0,1-.905-.662,1.29,1.29,0,0,1-.349-.881V282.1h.522a4.288,4.288,0,0,0,1.118,2.582,3.273,3.273,0,0,0,2.3.767,2.678,2.678,0,0,0,1.587-.427,1.456,1.456,0,0,0,.6-1.264,1.724,1.724,0,0,0-.48-1.247,6.457,6.457,0,0,0-1.317-1l-2.146-1.291a5.055,5.055,0,0,1-1.673-1.43,2.982,2.982,0,0,1-.489-1.691,2.6,2.6,0,0,1,1.055-2.181,4.606,4.606,0,0,1,2.852-.8,7.334,7.334,0,0,1,1.422.14,5.247,5.247,0,0,1,1.263.41,2.853,2.853,0,0,1,.907.662,1.3,1.3,0,0,1,.349.881v2.041h-.524a4.474,4.474,0,0,0-1.108-2.582,2.98,2.98,0,0,0-2.131-.767,2.245,2.245,0,0,0-1.481.453,1.525,1.525,0,0,0-.547,1.239,1.582,1.582,0,0,0,.131.654,1.933,1.933,0,0,0,.366.532,3.711,3.711,0,0,0,.567.471c.223.151.473.308.751.47l2.145,1.273a6.515,6.515,0,0,1,1.736,1.369,2.5,2.5,0,0,1,.549,1.63,2.831,2.831,0,0,1-1.133,2.372,5.223,5.223,0,0,1-3.243.873" transform="translate(-238.308 -179.239)" fill="#cc9017"/>
    <rect id="Rectangle_38" data-name="Rectangle 38" width="135.107" height="1.672" transform="translate(0.922 88.269)" fill="#cc9017"/>
  </g>
</svg>
