<svg id="GTE" xmlns="http://www.w3.org/2000/svg" width="141.683" height="55.866" viewBox="0 0 141.683 55.866">
  <g id="Group_4024" data-name="Group 4024">
    <g id="Group_48" data-name="Group 48" transform="translate(0.872 47.118)">
      <g id="Group_47" data-name="Group 47">
        <path id="Path_82" data-name="Path 82" d="M17.66,379.743h2.668l-.9,4.133a7.4,7.4,0,0,1-2.435.436,3.25,3.25,0,0,1-2.386-.84,3.144,3.144,0,0,1-.852-2.345,6.722,6.722,0,0,1,.59-2.845,4.74,4.74,0,0,1,1.636-1.994,4.033,4.033,0,0,1,2.319-.712,6.66,6.66,0,0,1,1.276.116,6.09,6.09,0,0,1,1.2.372l-.384.883a7.334,7.334,0,0,0-.962-.343,4.159,4.159,0,0,0-1.131-.145,2.953,2.953,0,0,0-1.787.59,3.84,3.84,0,0,0-1.253,1.648,6.017,6.017,0,0,0-.448,2.366,2.436,2.436,0,0,0,.6,1.738,2.175,2.175,0,0,0,1.665.634,4.407,4.407,0,0,0,1.511-.227l.558-2.581h-1.68Z" transform="translate(-13.76 -375.563)" fill="#0a56a0"/>
        <path id="Path_83" data-name="Path 83" d="M47.509,384.569l1.8-8.5h.988l-1.6,7.6h3.284l-.192.9Z" transform="translate(-39.206 -375.937)" fill="#0a56a0"/>
        <path id="Path_84" data-name="Path 84" d="M81.808,378.888a7.258,7.258,0,0,1-.511,2.8,4.285,4.285,0,0,1-1.465,1.912,3.707,3.707,0,0,1-2.2.677,3.057,3.057,0,0,1-2.319-.869,3.385,3.385,0,0,1-.831-2.438,6.878,6.878,0,0,1,.558-2.8,4.57,4.57,0,0,1,1.532-1.953,3.719,3.719,0,0,1,2.194-.686,2.865,2.865,0,0,1,2.232.9A3.527,3.527,0,0,1,81.808,378.888Zm-3.121-2.476a2.518,2.518,0,0,0-1.633.587,3.788,3.788,0,0,0-1.119,1.634,6.456,6.456,0,0,0-.4,2.313,2.642,2.642,0,0,0,.57,1.8,1.953,1.953,0,0,0,1.546.648,2.452,2.452,0,0,0,1.584-.567,3.775,3.775,0,0,0,1.107-1.625,6.474,6.474,0,0,0,.407-2.343,2.719,2.719,0,0,0-.546-1.8A1.878,1.878,0,0,0,78.686,376.411Z" transform="translate(-59.539 -375.528)" fill="#0a56a0"/>
        <path id="Path_85" data-name="Path 85" d="M114.306,376.071q2.511,0,2.511,1.953a2,2,0,0,1-.506,1.383,2.434,2.434,0,0,1-1.424.732v.058a1.9,1.9,0,0,1,1.026.642,1.723,1.723,0,0,1,.357,1.1,2.33,2.33,0,0,1-.883,1.933,3.7,3.7,0,0,1-2.366.7H110.33l1.8-8.5Zm-2.808,7.655h1.546a2.469,2.469,0,0,0,1.616-.468,1.622,1.622,0,0,0,.564-1.322,1.263,1.263,0,0,0-.433-1.032,1.913,1.913,0,0,0-1.247-.357h-1.372Zm.854-4.016h1.442a2.281,2.281,0,0,0,1.447-.424,1.392,1.392,0,0,0,.541-1.157,1.073,1.073,0,0,0-.387-.9,1.993,1.993,0,0,0-1.218-.3h-1.227Z" transform="translate(-86.57 -375.937)" fill="#0a56a0"/>
        <path id="Path_86" data-name="Path 86" d="M142.4,381.866h-2.883l-1.424,2.7h-1.1l4.644-8.5h1.011l1.07,8.5h-.988Zm-.1-.907-.2-1.738a19.565,19.565,0,0,1-.169-2.034q-.215.512-.468,1.017T140,380.959Z" transform="translate(-106.673 -375.937)" fill="#0a56a0"/>
        <path id="Path_87" data-name="Path 87" d="M171.167,384.569l1.8-8.5h.988l-1.6,7.6h3.284l-.192.9Z" transform="translate(-132.439 -375.937)" fill="#0a56a0"/>
        <path id="Path_88" data-name="Path 88" d="M215.821,384.569h-1l1.61-7.621h-2.36l.192-.878h5.726l-.174.878h-2.372Z" transform="translate(-164.788 -375.937)" fill="#0a56a0"/>
        <path id="Path_89" data-name="Path 89" d="M240.061,381.035l-.75,3.534h-.988l1.8-8.5h1.86q2.592,0,2.592,2.128a2.539,2.539,0,0,1-2.139,2.61l1.389,3.761h-1.081l-1.215-3.534Zm.854-4.1q-.593,2.871-.674,3.249h.977a2.666,2.666,0,0,0,1.726-.494,1.727,1.727,0,0,0,.6-1.418,1.236,1.236,0,0,0-.392-1.02,2.039,2.039,0,0,0-1.276-.317Z" transform="translate(-183.073 -375.937)" fill="#0a56a0"/>
        <path id="Path_90" data-name="Path 90" d="M268.973,381.866H266.09l-1.424,2.7h-1.1l4.644-8.5h1.011l1.07,8.5H269.3Zm-.1-.907-.2-1.738a19.649,19.649,0,0,1-.169-2.034q-.215.512-.468,1.017t-1.45,2.755Z" transform="translate(-202.106 -375.937)" fill="#0a56a0"/>
        <path id="Path_91" data-name="Path 91" d="M301.842,383.424q.355-.837.942-1.965l2.784-5.388h1.11l-4.54,8.5h-1.046l-.942-8.5h.988l.564,5.406q.116,1.139.116,1.947Z" transform="translate(-229.689 -375.937)" fill="#0a56a0"/>
        <path id="Path_92" data-name="Path 92" d="M331.039,384.569h-4.272l1.8-8.5h4.273l-.186.889h-3.29l-.57,2.726h3.063l-.168.884H328.61l-.663,3.116h3.284Z" transform="translate(-249.757 -375.937)" fill="#0a56a0"/>
        <path id="Path_93" data-name="Path 93" d="M354.02,384.569l1.8-8.5h.988l-1.6,7.6h3.284l-.192.9Z" transform="translate(-270.304 -375.937)" fill="#0a56a0"/>
        <path id="Path_94" data-name="Path 94" d="M413.918,384.569h-4.272l1.8-8.5h4.273l-.186.889h-3.29l-.57,2.726h3.063l-.168.884h-3.075l-.663,3.116h3.284Z" transform="translate(-312.244 -375.937)" fill="#0a56a0"/>
        <path id="Path_95" data-name="Path 95" d="M442.983,384.569h-1.052l-2.674-7.109h-.035q-.186,1.285-.43,2.43l-1,4.679h-.942l1.8-8.5h1.046l2.668,7.092h.035q.174-1.3.418-2.354l1.011-4.737h.953Z" transform="translate(-332.756 -375.937)" fill="#0a56a0"/>
        <path id="Path_96" data-name="Path 96" d="M478.8,379.743h2.668l-.9,4.133a7.4,7.4,0,0,1-2.436.436,3.251,3.251,0,0,1-2.386-.84,3.145,3.145,0,0,1-.852-2.345,6.718,6.718,0,0,1,.59-2.845,4.739,4.739,0,0,1,1.636-1.994,4.033,4.033,0,0,1,2.319-.712,6.66,6.66,0,0,1,1.276.116,6.088,6.088,0,0,1,1.2.372l-.384.883a7.309,7.309,0,0,0-.962-.343,4.157,4.157,0,0,0-1.131-.145,2.954,2.954,0,0,0-1.788.59,3.838,3.838,0,0,0-1.252,1.648,6.018,6.018,0,0,0-.448,2.366,2.435,2.435,0,0,0,.6,1.738,2.174,2.174,0,0,0,1.665.634,4.405,4.405,0,0,0,1.511-.227l.558-2.581h-1.68Z" transform="translate(-361.444 -375.563)" fill="#0a56a0"/>
        <path id="Path_97" data-name="Path 97" d="M508.65,384.569l1.808-8.5h.977l-1.808,8.5Z" transform="translate(-386.89 -375.937)" fill="#0a56a0"/>
        <path id="Path_98" data-name="Path 98" d="M530.458,384.569h-1.052l-2.674-7.109H526.7q-.186,1.285-.43,2.43l-1,4.679h-.941l1.8-8.5h1.046l2.668,7.092h.035q.174-1.3.418-2.354l1.012-4.737h.953Z" transform="translate(-398.709 -375.937)" fill="#0a56a0"/>
        <path id="Path_99" data-name="Path 99" d="M565.135,384.569h-4.272l1.8-8.5h4.272l-.186.889h-3.29l-.57,2.726h3.063l-.168.884h-3.075l-.663,3.116h3.284Z" transform="translate(-426.257 -375.937)" fill="#0a56a0"/>
      </g>
    </g>
    <path id="Path_100" data-name="Path 100" d="M282.637,185.976l-2.725,9.51-9.147.242-9.749,33.8H244.78l6.6-31.434,14.536-2.305-25.259.544,2.3-10.357Z" transform="translate(-183.963 -185.494)" fill="#0a56a0"/>
    <path id="Path_101" data-name="Path 101" d="M452.981,185.976l-2.423,8.968-15.085.362-2.9,9.691H447.71l-2.055,7.092-15.573.48-2.6,9.271,15.323.484-2.059,7.205H409.67a4.955,4.955,0,0,1-.122-1.45,69.719,69.719,0,0,1,1.76-14.115,68.366,68.366,0,0,1,5.146-15.934l14.3-2.483-16.9.242,3.877-9.812Z" transform="translate(-311.299 -185.494)" fill="#0a56a0"/>
    <path id="Path_102" data-name="Path 102" d="M39.9,204.368l-4.722,22.595a25.266,25.266,0,0,1-4.609-7.571,19.562,19.562,0,0,1-1.09-6.663q0-7.509,10.118-15.871a83.373,83.373,0,0,1,22.414-12.84H34.082A51.606,51.606,0,0,0,18.574,195.04q-8.357,8.662-8.358,17.566a19.524,19.524,0,0,0,1.634,8.3,32.234,32.234,0,0,0,5.093,7.15h34.04l3.982-14.037h4.163l2.212-9.648H39.9Z" transform="translate(-10.216 -184.017)" fill="#0a56a0"/>
  </g>
</svg>
