<svg id="Component_7_7" data-name="Component 7 – 7" xmlns="http://www.w3.org/2000/svg" width="137" height="75.251" viewBox="0 0 137 75.251">
  <path id="Path_56" data-name="Path 56" d="M609.106,404.7c.486.174.926.337.557.972-2.2,3.768-4.376,7.563-7.583,10.588-3.006,2.834-9.024,3.662-12.524,1.758-2.628-1.43-3.618-3.9-3.935-6.73-.352-3.14.812-5.892,2.153-8.611,2.384-4.836,4.79-9.661,7.08-14.541a11.17,11.17,0,0,0,.871-3.666c.124-1.349-.905-1.965-2.122-1.3a11.214,11.214,0,0,0-2.555,1.9,32.824,32.824,0,0,0-6.2,9.315c-1.772,3.722-3.581,7.429-5.371,11.144-1.84,3.818-3.706,7.625-5.494,11.468a1.848,1.848,0,0,1-1.994,1.282c-4.193-.076-8.389-.03-12.585-.028h-1.115c.54-1.237,1.018-2.358,1.516-3.471q3.033-6.791,6.075-13.578c1.606-3.579,3.237-7.146,4.818-10.735.823-1.871,1.606-3.762,2.307-5.681a1.678,1.678,0,0,0-.206-1.488,1.813,1.813,0,0,0-1.511-.067,10.483,10.483,0,0,0-4.769,3.871c-1.821,2.451-3.474,5.024-5.2,7.546-.146.213-.295.424-.473.68l-1.023-.453c1.45-2.213,2.79-4.4,4.274-6.483a21.732,21.732,0,0,1,5.114-5.584,11.013,11.013,0,0,1,9.974-1.632,6.635,6.635,0,0,1,4.431,4.837,14.953,14.953,0,0,1-.124,7.714,1.65,1.65,0,0,0-.023.856c.717-1.3,1.4-2.626,2.158-3.907a32.752,32.752,0,0,1,5.219-7.193c3.178-3.067,9.915-3.887,13.6-1.1a8.48,8.48,0,0,1,3.289,6.755A14.08,14.08,0,0,1,606.207,396c-2.316,4.929-4.749,9.8-7.109,14.711-.635,1.322-1.177,2.691-1.759,4.038a1.357,1.357,0,0,0,.247,1.679,1.392,1.392,0,0,0,1.778.049,27.8,27.8,0,0,0,3.333-2.587,29.314,29.314,0,0,0,5.89-8.384c.09-.18.2-.351.307-.522C608.956,404.887,609.031,404.8,609.106,404.7Z" transform="translate(-556.678 -360.817)" fill="#7c7c7c"/>
  <path id="Path_57" data-name="Path 57" d="M704.917,403.747l.894.485c-1.048,1.667-2.03,3.32-3.1,4.913a37.889,37.889,0,0,1-5.661,7.186c-3.02,2.747-8.472,3.528-11.844,1.684-2.494-1.365-3.466-3.672-3.75-6.355a16.184,16.184,0,0,1,.6-5.834,1.744,1.744,0,0,0,.059-.9c-.524.857-1.014,1.738-1.578,2.568-1.751,2.574-3.448,5.191-5.323,7.673a11.2,11.2,0,0,1-14.052,2.3,7.637,7.637,0,0,1-3.442-5.84,13.448,13.448,0,0,1,.875-6.468,141.972,141.972,0,0,1,7.121-15c.865-1.656,1.6-3.38,2.376-5.083a1.427,1.427,0,0,0-.281-1.826c-.577-.479-1.208-.237-1.782.079a15.5,15.5,0,0,0-5.174,4.908c-1.4,2.012-2.664,4.112-3.976,6.182-.2.313-.389.656-.769.326a.791.791,0,0,1-.163-.739,60.67,60.67,0,0,1,6.922-9.928c3.041-3.345,9.184-4.468,13.025-2.34a7.678,7.678,0,0,1,3.739,5.846,13.749,13.749,0,0,1-1.362,8.246c-1.319,2.819-2.655,5.631-4.033,8.422-1.134,2.3-2.4,4.538-3.487,6.859a13.908,13.908,0,0,0-1.152,3.6c-.294,1.79.892,2.615,2.487,1.725a9.932,9.932,0,0,0,2.638-2.188,49.264,49.264,0,0,0,7.167-11.591c1.732-3.771,3.6-7.482,5.407-11.22,1.506-3.114,3.02-6.226,4.51-9.348a.959.959,0,0,1,1-.621c4.542.011,9.086,0,13.628.005a6.109,6.109,0,0,1,.7.09c-.716,1.61-1.4,3.154-2.09,4.7q-3.082,6.914-6.165,13.826c-1.566,3.5-3.176,6.982-4.7,10.5a32.075,32.075,0,0,0-1.561,4.387c-.314,1.161.2,1.625,1.4,1.483a5.744,5.744,0,0,0,3.642-2.146,62.387,62.387,0,0,0,6.969-10.1C704.7,404.07,704.8,403.93,704.917,403.747Z" transform="translate(-571.599 -360.821)" fill="#7c7c7c"/>
  <path id="Path_58" data-name="Path 58" d="M647.117,405.714l.9.477c-2.463,3.713-4.585,7.61-7.932,10.582-1.793,1.593-4.065,2-6.358,2.179a10.173,10.173,0,0,1-5.422-.795,7.573,7.573,0,0,1-4.223-6.232,14.308,14.308,0,0,1,1.671-8.437q4.213-8.532,8.386-17.084a5.987,5.987,0,0,0,.625-1.878,1.739,1.739,0,0,0-.418-1.358,1.383,1.383,0,0,0-1.331.028,23.093,23.093,0,0,0-3.781,3.376c-1.671,2.084-3.077,4.381-4.595,6.588-.1.14-.2.276-.3.417-.757-.15-.9-.427-.488-1.121a43.75,43.75,0,0,1,5.38-7.722c2.747-2.923,6.075-4.5,10.152-3.87,4.183.648,6.748,3.7,6.991,7.923a16.782,16.782,0,0,1-1.635,7.453,137.5,137.5,0,0,1-7.148,14.007c-.711,1.281-1.255,2.655-1.853,4a3.151,3.151,0,0,0-.253,1,1.309,1.309,0,0,0,1.492,1.56,5.206,5.206,0,0,0,3.154-1.657,30.427,30.427,0,0,0,5.035-6.359C645.832,407.806,646.438,406.791,647.117,405.714Z" transform="translate(-566.666 -360.833)" fill="#7c7c7c"/>
  <path id="Path_59" data-name="Path 59" d="M642.14,364.4c-.224-4.29,3.727-7.266,7.364-7.149,4.337.139,7.363,3.078,7.333,7.382a7.3,7.3,0,0,1-7.46,6.994A7.065,7.065,0,0,1,642.14,364.4Z" transform="translate(-569.493 -357.243)" fill="#7c7c7c"/>
  <path id="Path_60" data-name="Path 60" d="M566.362,438.1c1.94,1.022,1.987,2.143,1.777,3.457a2.5,2.5,0,0,1-2.179,2.136,5.436,5.436,0,0,1-.861.082c-2.628.007-5.257,0-7.885.013-.506,0-.818-.074-.816-.69.013-3.148,0-6.3-.01-9.445,0-.521.212-.691.731-.686,2.57.024,5.142-.017,7.712.028a2.683,2.683,0,0,1,2.575,3.828A6.516,6.516,0,0,1,566.362,438.1Zm-8.969.5c0,1.361-.025,2.625.029,3.888.008.172.4.467.625.469,2.312.034,4.626.051,6.937.008a2.074,2.074,0,0,0,2.265-2.11,2.278,2.278,0,0,0-2.3-2.23c-.981-.044-1.965-.023-2.948-.025C560.5,438.591,559,438.592,557.393,438.592Zm-.014-4.741c0,1.089.029,2.064-.011,3.036-.026.635.186.873.839.857,1.445-.037,2.892,0,4.338-.013a18.875,18.875,0,0,0,2.508-.121,1.875,1.875,0,0,0-.192-3.723c-.461-.039-.925-.034-1.388-.035C561.483,433.85,559.495,433.851,557.378,433.851Z" transform="translate(-556.388 -368.816)" fill="#7c7c7c"/>
  <path id="Path_61" data-name="Path 61" d="M605.447,443.662a1.516,1.516,0,0,1-1.8-.528c-.979-1.21-2.069-2.331-3.087-3.51a1.706,1.706,0,0,0-1.483-.69,32.4,32.4,0,0,1-3.294,0c-.72-.04-.894.258-.875.9.03,1.068.037,2.14-.019,3.206-.013.246-.32.475-.491.713-.131-.241-.375-.481-.378-.723-.025-3.092,0-6.185-.025-9.277-.005-.607.2-.8.8-.79,2.341.03,4.682-.014,7.023.024,2.5.04,3.755,1.7,3.1,4.007a2.236,2.236,0,0,1-1.555,1.594c-.621.194-1.267.307-2.01.48Zm-6.581-9.776v-.042c-1.1,0-2.2-.032-3.293.025a.866.866,0,0,0-.629.548,29.245,29.245,0,0,0,0,3.118c.009.2.3.556.454.555,2.338,0,4.68.009,7.013-.119a1.953,1.953,0,0,0,1.653-2.113,1.884,1.884,0,0,0-1.9-1.96C601.063,433.84,599.963,433.886,598.866,433.886Z" transform="translate(-562.135 -368.817)" fill="#7c7c7c"/>
  <path id="Path_62" data-name="Path 62" d="M631.979,433.056c.363-.026.644-.064.925-.065,2.836-.005,5.672-.015,8.506.014.289,0,.574.263.862.4a2.605,2.605,0,0,1-.892.387c-2.488.03-4.976.036-7.464,0-.711-.01-1,.216-.959.941a16.4,16.4,0,0,1,0,2.082c-.048.736.272.939.967.929,2.169-.033,4.34-.013,6.511-.012a2.151,2.151,0,0,1,.688.031c.176.061.3.262.448.4-.173.136-.335.362-.524.388a9.469,9.469,0,0,1-1.3.02c-1.967,0-3.935.021-5.9-.013-.627-.011-.9.171-.88.822.031.925.028,1.853,0,2.778-.019.631.228.864.868.858,2.576-.026,5.151-.013,7.726-.014a2.553,2.553,0,0,1,.69.025c.15.043.261.225.389.345-.13.125-.254.257-.391.373-.036.029-.113.013-.17.013-3.154,0-6.308.01-9.461-.021-.213,0-.6-.314-.606-.486C631.969,439.88,631.979,436.5,631.979,433.056Z" transform="translate(-567.941 -368.82)" fill="#7c7c7c"/>
  <path id="Path_63" data-name="Path 63" d="M671.263,432.619c2.341.081,4.362.79,5.55,2.935a5.422,5.422,0,0,1-2.432,7.76,7.373,7.373,0,0,1-7.868-1.007,5.573,5.573,0,0,1,2.787-9.4C669.941,432.754,670.607,432.711,671.263,432.619Zm-.089,10.53c.2,0,.4.013.607,0a4.613,4.613,0,0,0,4.176-2.623,4.821,4.821,0,0,0-.288-4.955c-1.249-1.827-3.167-2.182-5.216-2.049a4.857,4.857,0,0,0-4.012,7.052C667.43,442.5,669.16,443.092,671.173,443.148Z" transform="translate(-572.965 -368.764)" fill="#7c7c7c"/>
  <path id="Path_64" data-name="Path 64" d="M678.875,370.007c-.021-.362-.054-.671-.054-.98,0-2.894.021-5.787-.018-8.68-.01-.764.224-.983.987-.972,2.834.043,5.671.008,8.506.032.241,0,.481.232.72.356-.234.13-.467.371-.7.373-2.575.028-5.15.042-7.725,0-.7-.011-.919.231-.879.9a16.586,16.586,0,0,1,0,2.082c-.048.736.268.935.967.923,2.141-.036,4.282-.013,6.423-.013a1.8,1.8,0,0,1,.6.015,3.019,3.019,0,0,1,.6.405c-.2.135-.4.387-.607.39-2.112.029-4.225,0-6.336.021-1.8.016-1.646-.323-1.635,1.674.005.853-.2,1.982.25,2.475.4.435,1.57.185,2.4.191,2.083.015,4.166.011,6.25,0,.54,0,.95.062.681.807Z" transform="translate(-575.097 -357.568)" fill="#7c7c7c"/>
  <path id="Path_65" data-name="Path 65" d="M686.077,432.837a4.2,4.2,0,0,1,1,.565c2.737,2.762,5.45,5.549,8.173,8.325.189.192.409.355.8.689v-1.834c0-2.284-.014-4.567.019-6.849,0-.259.273-.514.42-.771.151.253.431.5.433.76.031,3.063.029,6.127.009,9.19a2.786,2.786,0,0,1-.278.823c-.332-.119-.756-.146-.984-.372-2.068-2.057-4.1-4.153-6.146-6.227-.867-.877-1.757-1.731-2.769-2.724-.027.465-.062.792-.062,1.119,0,2.37,0,4.74,0,7.11a2.021,2.021,0,0,1-.029.686c-.063.168-.279.28-.428.416-.134-.147-.385-.294-.386-.442-.022-3.4-.017-6.809-.017-10.213Z" transform="translate(-576.173 -368.797)" fill="#7c7c7c"/>
  <path id="Path_66" data-name="Path 66" d="M625.385,363.88h9.1v-3.137a1.912,1.912,0,0,1,.018-.687,2.963,2.963,0,0,1,.491-.639c.137.2.384.4.393.607.041,1.011.02,2.024.021,3.036,0,2.081.015,4.164-.021,6.246,0,.246-.285.489-.439.734-.155-.249-.435-.494-.442-.746-.042-1.467-.02-2.936-.02-4.547h-1.733c-2.111,0-4.222.029-6.333-.006-.768-.013-1.093.208-1.052,1.027.06,1.183.043,2.372-.007,3.555-.011.245-.31.477-.476.715-.161-.24-.461-.477-.463-.717q-.047-4.6,0-9.2c0-.239.3-.474.466-.712.164.244.461.483.471.734C625.413,361.378,625.385,362.612,625.385,363.88Z" transform="translate(-566.783 -357.575)" fill="#7c7c7c"/>
  <path id="Path_67" data-name="Path 67" d="M624.237,440.92c-2.054,3.977-8.672,4.046-10.745.4a5.658,5.658,0,0,1,4.438-8.58,6.061,6.061,0,0,1,5.464,1.977,8.567,8.567,0,0,1,.544.8l-.631.484c-.195-.213-.374-.388-.533-.582a5.248,5.248,0,0,0-7.08-.961,4.9,4.9,0,0,0-1.821,5.145,4.84,4.84,0,0,0,4.243,3.548,5.236,5.236,0,0,0,5.031-2.237C623.555,440.332,623.835,440.659,624.237,440.92Z" transform="translate(-564.993 -368.776)" fill="#7c7c7c"/>
  <path id="Path_68" data-name="Path 68" d="M716.013,443.667c-.635.247-1.092.1-1.253-.526-.453-1.762-1.513-2.406-3.336-2.164a25.735,25.735,0,0,1-3.985.022.968.968,0,0,0-1.115.707c-.176.513-.476.984-.694,1.484s-.534.735-1.215.431c.3-.639.578-1.28.886-1.909q1.9-3.883,3.824-7.76a4.724,4.724,0,0,1,.38-.68.792.792,0,0,1,1.338.062q2.557,5,5.076,10.014A1.853,1.853,0,0,1,716.013,443.667Zm-8.881-3.565h6.131l-3.112-6.187Z" transform="translate(-579.012 -368.813)" fill="#7c7c7c"/>
  <path id="Path_69" data-name="Path 69" d="M586.385,443.615c-.612.3-.953.155-1.2-.359a16.147,16.147,0,0,1-.772-1.542.95.95,0,0,0-1.1-.706c-1.821.032-3.644.036-5.464,0a1.08,1.08,0,0,0-1.2.74c-.188.482-.5.918-.66,1.407-.219.668-.616.735-1.251.511.673-1.409,1.31-2.784,1.983-4.141q1.5-3.018,3.046-6.01c.119-.227.446-.51.649-.491a1.21,1.21,0,0,1,.858.486c1.436,2.763,2.825,5.548,4.226,8.328C585.8,442.421,586.085,443.008,586.385,443.615Zm-2.722-3.435c-1.062-2.118-2.051-4.09-3.147-6.274-1.082,2.222-2.041,4.193-3.053,6.274Z" transform="translate(-559.194 -368.825)" fill="#7c7c7c"/>
  <path id="Path_70" data-name="Path 70" d="M650.653,438.3c0-1.5,0-3,0-4.506,0-.367-.075-.784.513-.8.659-.022.551.438.551.83,0,2.773.026,5.546-.012,8.318-.009.707.241.891.9.881,2.051-.031,4.1-.024,6.152,0a2.337,2.337,0,0,1,.767.31c-.254.146-.506.419-.762.421-2.426.022-4.852-.016-7.278,0-.63,0-.862-.2-.844-.856C650.681,441.361,650.654,439.83,650.653,438.3Z" transform="translate(-570.793 -368.819)" fill="#7c7c7c"/>
  <path id="Path_71" data-name="Path 71" d="M667.115,369.941c-.787.265-.953-.037-.947-.681.024-2.631.011-5.263.012-7.895v-1.212c-1.4,0-2.695.018-3.986-.015a2.319,2.319,0,0,1-.761-.322c.259-.138.517-.394.777-.4q4.38-.043,8.762,0c.259,0,.517.262.775.4a2.409,2.409,0,0,1-.762.319c-.982.039-1.968.057-2.948,0-.71-.038-.952.18-.941.916.042,2.631.018,5.263.02,7.9Z" transform="translate(-572.443 -357.572)" fill="#7c7c7c"/>
  <path id="Path_72" data-name="Path 72" d="M697.341,370.058V359.444l.936-.052v9.764h7.68l.2.256c-.168.215-.333.615-.5.618C702.914,370.07,700.175,370.058,697.341,370.058Z" transform="translate(-577.931 -357.571)" fill="#7c7c7c"/>
</svg>
