<svg id="STS" xmlns="http://www.w3.org/2000/svg" xmlns:xlink="http://www.w3.org/1999/xlink" width="150.259" height="55.866" viewBox="0 0 150.259 55.866">
  <defs>
    <clipPath id="clip-path">
      <rect id="Rectangle_648" data-name="Rectangle 648" width="150.259" height="55.866" fill="none"/>
    </clipPath>
  </defs>
  <g id="Group_16708" data-name="Group 16708">
    <g id="Group_16328" data-name="Group 16328" clip-path="url(#clip-path)">
      <path id="Path_38485" data-name="Path 38485" d="M.7,67.413a5.368,5.368,0,0,0,.485.5,2.671,2.671,0,0,0,.477.341,2,2,0,0,0,.511.2,2.6,2.6,0,0,0,.588.062,2.983,2.983,0,0,0,.768-.1,2.1,2.1,0,0,0,.655-.291,1.521,1.521,0,0,0,.457-.477,1.242,1.242,0,0,0,.171-.655.922.922,0,0,0-.163-.535,2.053,2.053,0,0,0-.432-.446,4.945,4.945,0,0,0-.619-.4q-.348-.194-.721-.408-.487-.283-.836-.53a3.161,3.161,0,0,1-.574-.506,1.722,1.722,0,0,1-.33-.552,1.986,1.986,0,0,1-.105-.672,1.821,1.821,0,0,1,.265-.99,2.255,2.255,0,0,1,.69-.694,3.185,3.185,0,0,1,.951-.409,4.286,4.286,0,0,1,1.056-.133,4.131,4.131,0,0,1,.7.055,2.623,2.623,0,0,1,.609.178,2.478,2.478,0,0,1,.531.317,2.944,2.944,0,0,1,.475.471l-.6.619a2.228,2.228,0,0,0-.786-.713,2.128,2.128,0,0,0-.98-.225,3.419,3.419,0,0,0-.427.029,2.705,2.705,0,0,0-.438.094,2.157,2.157,0,0,0-.406.171,1.435,1.435,0,0,0-.336.252,1.167,1.167,0,0,0-.231.338,1.035,1.035,0,0,0-.086.432,1.345,1.345,0,0,0,.13.618A1.6,1.6,0,0,0,2.5,63.8a3,3,0,0,0,.524.375q.3.173.642.362.173.095.4.212c.15.079.3.167.462.265a4.594,4.594,0,0,1,.463.333,2.444,2.444,0,0,1,.4.419,2.1,2.1,0,0,1,.286.522,1.782,1.782,0,0,1,.11.639,1.97,1.97,0,0,1-.267,1.043,2.294,2.294,0,0,1-.7.729,3.2,3.2,0,0,1-1,.427,4.7,4.7,0,0,1-1.141.139,4.594,4.594,0,0,1-.841-.07,3.154,3.154,0,0,1-.7-.215,2.794,2.794,0,0,1-.6-.365A4.366,4.366,0,0,1,0,68.1Z" transform="translate(0 -13.402)" fill="#00408f"/>
      <path id="Path_38486" data-name="Path 38486" d="M12.192,69.2h-.818l-1.006-6.19L9.293,69.2H8.4l1.426-8.213h.923l1.19,7.3,3.694-7.3h.918L15.126,69.2h-.89l1.074-6.19Z" transform="translate(-1.855 -13.463)" fill="#00408f"/>
      <path id="Path_38487" data-name="Path 38487" d="M22.5,60.985h.866l1.3,8.213h-.985l-.394-2.8H20.51l-1.362,2.8h-.887ZM20.8,65.765h2.406l-.524-3.753Z" transform="translate(-4.031 -13.463)" fill="#00408f"/>
      <path id="Path_38488" data-name="Path 38488" d="M28.551,69.2H27.66l1.426-8.213h2.227a3.619,3.619,0,0,1,1.028.128,1.955,1.955,0,0,1,.708.365,1.419,1.419,0,0,1,.408.569,2.009,2.009,0,0,1,.131.742,3.426,3.426,0,0,1-.046.545,2.631,2.631,0,0,1-.163.517,2.6,2.6,0,0,1-.371.61,3.226,3.226,0,0,1-.62.59,3.086,3.086,0,0,1-.928.454l1.657,3.7H32.057l-1.51-3.522a7.781,7.781,0,0,1-.8.021h-.6Zm.729-4.178h.849a3.481,3.481,0,0,0,1.016-.142,2.347,2.347,0,0,0,.806-.414,1.877,1.877,0,0,0,.526-.673,2.145,2.145,0,0,0,.189-.926,1.285,1.285,0,0,0-.091-.5A.838.838,0,0,0,32.267,62a1.583,1.583,0,0,0-.563-.228,3.922,3.922,0,0,0-.856-.079h-1Z" transform="translate(-6.106 -13.463)" fill="#00408f"/>
      <path id="Path_38489" data-name="Path 38489" d="M42.667,61.74H40.114l-1.3,7.459h-.891l1.294-7.459H36.68l.132-.755H42.8Z" transform="translate(-8.097 -13.463)" fill="#00408f"/>
      <path id="Path_38490" data-name="Path 38490" d="M57.707,61.74H55.154l-1.3,7.459h-.891l1.294-7.459H51.72l.132-.755h5.987Z" transform="translate(-11.417 -13.463)" fill="#00408f"/>
      <path id="Path_38491" data-name="Path 38491" d="M67,64.85a6.548,6.548,0,0,1-.328,1.193,6.031,6.031,0,0,1-.527,1.061,5.388,5.388,0,0,1-.7.891,4.522,4.522,0,0,1-.839.681,3.949,3.949,0,0,1-.958.438,3.812,3.812,0,0,1-2.341-.062,2.448,2.448,0,0,1-.933-.627,2.665,2.665,0,0,1-.566-.99,4.133,4.133,0,0,1-.192-1.305,6.385,6.385,0,0,1,.167-1.473,6.153,6.153,0,0,1,.47-1.305,5.387,5.387,0,0,1,.718-1.09,4.806,4.806,0,0,1,.918-.833,4.118,4.118,0,0,1,1.069-.532,3.727,3.727,0,0,1,1.166-.186,3.407,3.407,0,0,1,1.237.213,2.5,2.5,0,0,1,.934.616,2.741,2.741,0,0,1,.587.983,3.966,3.966,0,0,1,.2,1.318q0,.241-.025.492T67,64.85m-.97.142a5.823,5.823,0,0,0,.094-1.017,3.7,3.7,0,0,0-.136-1.04,2.242,2.242,0,0,0-.4-.792,1.769,1.769,0,0,0-.669-.5,2.3,2.3,0,0,0-.93-.175,2.566,2.566,0,0,0-.856.146,3.048,3.048,0,0,0-.793.42,3.714,3.714,0,0,0-.7.665,4.363,4.363,0,0,0-.552.886,5.176,5.176,0,0,0-.365,1.077,5.67,5.67,0,0,0-.132,1.241,3.909,3.909,0,0,0,.137,1.068,2.4,2.4,0,0,0,.4.826,1.8,1.8,0,0,0,.655.532,2.051,2.051,0,0,0,.9.189,2.409,2.409,0,0,0,.786-.131,2.984,2.984,0,0,0,.725-.367,3.712,3.712,0,0,0,.642-.563,4.64,4.64,0,0,0,.535-.718,5.158,5.158,0,0,0,.655-1.742" transform="translate(-13.161 -13.402)" fill="#00408f"/>
      <path id="Path_38492" data-name="Path 38492" d="M72.443,60.985l-.969,5.577q-.027.146-.042.281a1.63,1.63,0,0,0-.011.259,1.294,1.294,0,0,0,.443,1.067,2.251,2.251,0,0,0,1.414.358,4.069,4.069,0,0,0,1.072-.123,2,2,0,0,0,.752-.372,1.747,1.747,0,0,0,.478-.618,3.409,3.409,0,0,0,.265-.862l.971-5.567H77.7l-.959,5.508a4.468,4.468,0,0,1-.383,1.214,2.634,2.634,0,0,1-.7.883,3.014,3.014,0,0,1-1.074.54,5.409,5.409,0,0,1-1.494.183,3.151,3.151,0,0,1-1.953-.49,1.8,1.8,0,0,1-.622-1.507,4.568,4.568,0,0,1,.079-.807l.959-5.525Z" transform="translate(-15.566 -13.463)" fill="#00408f"/>
      <path id="Path_38493" data-name="Path 38493" d="M80.815,69.2h-.891l1.426-8.213h2.228a3.619,3.619,0,0,1,1.028.128,1.951,1.951,0,0,1,.708.365,1.421,1.421,0,0,1,.408.569,2.009,2.009,0,0,1,.131.742,3.339,3.339,0,0,1-.047.545,2.528,2.528,0,0,1-.163.517,2.571,2.571,0,0,1-.37.61,3.226,3.226,0,0,1-.62.59,3.087,3.087,0,0,1-.928.454l1.657,3.7H84.322l-1.51-3.522a7.8,7.8,0,0,1-.8.021h-.6Zm.729-4.178h.849a3.481,3.481,0,0,0,1.016-.142,2.337,2.337,0,0,0,.8-.414,1.879,1.879,0,0,0,.527-.673,2.144,2.144,0,0,0,.189-.926,1.285,1.285,0,0,0-.091-.5A.843.843,0,0,0,84.532,62a1.589,1.589,0,0,0-.563-.228,3.925,3.925,0,0,0-.857-.079h-1Z" transform="translate(-17.644 -13.463)" fill="#00408f"/>
      <path id="Path_38494" data-name="Path 38494" d="M88.077,69.2,89.5,60.985h.891L88.968,69.2Z" transform="translate(-19.444 -13.463)" fill="#00408f"/>
      <path id="Path_38495" data-name="Path 38495" d="M91.659,67.413a5.472,5.472,0,0,0,.485.5,2.665,2.665,0,0,0,.476.341,2.018,2.018,0,0,0,.512.2,2.6,2.6,0,0,0,.587.062,2.989,2.989,0,0,0,.768-.1,2.119,2.119,0,0,0,.655-.291,1.53,1.53,0,0,0,.457-.477,1.249,1.249,0,0,0,.17-.655.927.927,0,0,0-.162-.535,2.053,2.053,0,0,0-.432-.446,5,5,0,0,0-.619-.4q-.348-.194-.721-.408-.487-.283-.835-.53a3.141,3.141,0,0,1-.574-.506,1.708,1.708,0,0,1-.33-.552,1.986,1.986,0,0,1-.105-.672,1.814,1.814,0,0,1,.265-.99,2.238,2.238,0,0,1,.69-.694,3.184,3.184,0,0,1,.951-.409,4.281,4.281,0,0,1,1.056-.133,4.147,4.147,0,0,1,.7.055,2.639,2.639,0,0,1,.608.178,2.5,2.5,0,0,1,.532.317,3.009,3.009,0,0,1,.475.471l-.6.619a2.23,2.23,0,0,0-.787-.713,2.126,2.126,0,0,0-.98-.225,3.428,3.428,0,0,0-.427.029,2.713,2.713,0,0,0-.437.094,2.164,2.164,0,0,0-.407.171,1.43,1.43,0,0,0-.335.252,1.151,1.151,0,0,0-.231.338,1.024,1.024,0,0,0-.087.432,1.336,1.336,0,0,0,.131.618,1.6,1.6,0,0,0,.354.459,2.972,2.972,0,0,0,.524.375q.3.173.642.362.173.095.4.212c.15.079.3.167.461.265a4.432,4.432,0,0,1,.464.333,2.416,2.416,0,0,1,.4.419,2.1,2.1,0,0,1,.286.522,1.783,1.783,0,0,1,.11.639,1.963,1.963,0,0,1-.268,1.043,2.286,2.286,0,0,1-.7.729,3.2,3.2,0,0,1-1,.427,4.7,4.7,0,0,1-1.139.139,4.59,4.59,0,0,1-.842-.07,3.16,3.16,0,0,1-.7-.215,2.847,2.847,0,0,1-.6-.365,4.426,4.426,0,0,1-.545-.518Z" transform="translate(-20.079 -13.402)" fill="#00408f"/>
      <path id="Path_38496" data-name="Path 38496" d="M103.148,69.2h-.818l-1.006-6.19-1.075,6.19h-.891l1.426-8.213h.923l1.19,7.3,3.7-7.3h.917L106.083,69.2h-.891l1.074-6.19Z" transform="translate(-21.934 -13.463)" fill="#00408f"/>
      <path id="Path_38497" data-name="Path 38497" d="M117.374,67.413a5.478,5.478,0,0,0,.485.5,2.64,2.64,0,0,0,.476.341,2.018,2.018,0,0,0,.512.2,2.6,2.6,0,0,0,.587.062,2.988,2.988,0,0,0,.768-.1,2.119,2.119,0,0,0,.655-.291,1.53,1.53,0,0,0,.457-.477,1.249,1.249,0,0,0,.17-.655.927.927,0,0,0-.162-.535,2.053,2.053,0,0,0-.432-.446,5,5,0,0,0-.619-.4q-.348-.194-.721-.408-.487-.283-.835-.53a3.142,3.142,0,0,1-.574-.506,1.708,1.708,0,0,1-.33-.552,1.986,1.986,0,0,1-.105-.672,1.814,1.814,0,0,1,.265-.99,2.238,2.238,0,0,1,.69-.694,3.185,3.185,0,0,1,.951-.409,4.282,4.282,0,0,1,1.056-.133,4.146,4.146,0,0,1,.7.055,2.639,2.639,0,0,1,.608.178,2.5,2.5,0,0,1,.532.317,3.008,3.008,0,0,1,.475.471l-.6.619a2.23,2.23,0,0,0-.787-.713,2.126,2.126,0,0,0-.98-.225,3.429,3.429,0,0,0-.427.029,2.714,2.714,0,0,0-.437.094,2.165,2.165,0,0,0-.407.171,1.431,1.431,0,0,0-.335.252,1.152,1.152,0,0,0-.231.338,1.024,1.024,0,0,0-.086.432,1.335,1.335,0,0,0,.131.618,1.6,1.6,0,0,0,.354.459,2.972,2.972,0,0,0,.524.375q.3.173.642.362.173.095.4.212c.15.079.3.167.461.265a4.436,4.436,0,0,1,.464.333,2.416,2.416,0,0,1,.4.419,2.1,2.1,0,0,1,.286.522,1.782,1.782,0,0,1,.11.639,1.963,1.963,0,0,1-.268,1.043,2.285,2.285,0,0,1-.7.729,3.2,3.2,0,0,1-1,.427,4.7,4.7,0,0,1-1.139.139,4.59,4.59,0,0,1-.842-.07,3.16,3.16,0,0,1-.7-.215,2.848,2.848,0,0,1-.6-.365,4.427,4.427,0,0,1-.545-.518Z" transform="translate(-25.756 -13.402)" fill="#00408f"/>
      <path id="Path_38498" data-name="Path 38498" d="M133.093,64.85a6.55,6.55,0,0,1-.328,1.193,6.03,6.03,0,0,1-.527,1.061,5.388,5.388,0,0,1-.7.891,4.523,4.523,0,0,1-.839.681,3.95,3.95,0,0,1-.958.438,3.812,3.812,0,0,1-2.341-.062,2.448,2.448,0,0,1-.933-.627,2.666,2.666,0,0,1-.566-.99,4.133,4.133,0,0,1-.192-1.305,6.385,6.385,0,0,1,.167-1.473,6.153,6.153,0,0,1,.47-1.305,5.387,5.387,0,0,1,.718-1.09,4.805,4.805,0,0,1,.918-.833,4.118,4.118,0,0,1,1.069-.532,3.727,3.727,0,0,1,1.166-.186,3.407,3.407,0,0,1,1.237.213,2.5,2.5,0,0,1,.934.616,2.741,2.741,0,0,1,.587.983,3.966,3.966,0,0,1,.2,1.318q0,.241-.025.492t-.065.519m-.97.142a5.823,5.823,0,0,0,.094-1.017,3.7,3.7,0,0,0-.136-1.04,2.242,2.242,0,0,0-.4-.792,1.769,1.769,0,0,0-.669-.5,2.3,2.3,0,0,0-.93-.175,2.565,2.565,0,0,0-.856.146,3.048,3.048,0,0,0-.793.42,3.714,3.714,0,0,0-.7.665,4.365,4.365,0,0,0-.552.886,5.176,5.176,0,0,0-.365,1.077,5.67,5.67,0,0,0-.132,1.241,3.908,3.908,0,0,0,.137,1.068,2.4,2.4,0,0,0,.4.826,1.8,1.8,0,0,0,.655.532,2.051,2.051,0,0,0,.9.189,2.409,2.409,0,0,0,.786-.131,2.983,2.983,0,0,0,.725-.367,3.712,3.712,0,0,0,.642-.563,4.64,4.64,0,0,0,.535-.718,5.157,5.157,0,0,0,.655-1.742" transform="translate(-27.752 -13.402)" fill="#00408f"/>
      <path id="Path_38499" data-name="Path 38499" d="M140.7,69.2h-4.591l1.426-8.213h.891l-1.305,7.489h3.7Z" transform="translate(-30.047 -13.463)" fill="#00408f"/>
      <path id="Path_38500" data-name="Path 38500" d="M145.655,60.985l-.969,5.577q-.027.146-.042.281a1.63,1.63,0,0,0-.011.259,1.294,1.294,0,0,0,.443,1.067,2.251,2.251,0,0,0,1.414.358,4.069,4.069,0,0,0,1.072-.123,2,2,0,0,0,.752-.372,1.747,1.747,0,0,0,.478-.618,3.408,3.408,0,0,0,.265-.862l.971-5.567h.885l-.959,5.508a4.468,4.468,0,0,1-.383,1.214,2.634,2.634,0,0,1-.7.883,3.015,3.015,0,0,1-1.074.54,5.41,5.41,0,0,1-1.494.183,3.151,3.151,0,0,1-1.953-.49,1.8,1.8,0,0,1-.622-1.507,4.566,4.566,0,0,1,.079-.807l.959-5.525Z" transform="translate(-31.728 -13.463)" fill="#00408f"/>
      <path id="Path_38501" data-name="Path 38501" d="M159.99,61.74h-2.553l-1.3,7.459h-.891l1.294-7.459H154l.132-.755h5.987Z" transform="translate(-33.997 -13.463)" fill="#00408f"/>
      <path id="Path_38502" data-name="Path 38502" d="M161.249,69.2l1.426-8.213h.891L162.139,69.2Z" transform="translate(-35.596 -13.463)" fill="#00408f"/>
      <path id="Path_38503" data-name="Path 38503" d="M172.444,64.85a6.549,6.549,0,0,1-.328,1.193,6.029,6.029,0,0,1-.527,1.061,5.389,5.389,0,0,1-.7.891,4.522,4.522,0,0,1-.839.681,3.948,3.948,0,0,1-.958.438,3.812,3.812,0,0,1-2.341-.062,2.448,2.448,0,0,1-.933-.627,2.666,2.666,0,0,1-.566-.99,4.133,4.133,0,0,1-.192-1.305,6.386,6.386,0,0,1,.167-1.473,6.151,6.151,0,0,1,.47-1.305,5.386,5.386,0,0,1,.718-1.09,4.806,4.806,0,0,1,.918-.833,4.118,4.118,0,0,1,1.069-.532,3.727,3.727,0,0,1,1.166-.186,3.407,3.407,0,0,1,1.237.213,2.5,2.5,0,0,1,.934.616,2.741,2.741,0,0,1,.587.983,3.966,3.966,0,0,1,.2,1.318q0,.241-.025.492t-.065.519m-.97.142a5.822,5.822,0,0,0,.094-1.017,3.7,3.7,0,0,0-.136-1.04,2.242,2.242,0,0,0-.4-.792,1.769,1.769,0,0,0-.669-.5,2.3,2.3,0,0,0-.93-.175,2.565,2.565,0,0,0-.856.146,3.047,3.047,0,0,0-.793.42,3.714,3.714,0,0,0-.7.665,4.363,4.363,0,0,0-.552.886,5.174,5.174,0,0,0-.365,1.077,5.67,5.67,0,0,0-.132,1.241,3.908,3.908,0,0,0,.137,1.068,2.4,2.4,0,0,0,.4.826,1.8,1.8,0,0,0,.655.532,2.051,2.051,0,0,0,.9.189,2.409,2.409,0,0,0,.786-.131,2.982,2.982,0,0,0,.725-.367,3.712,3.712,0,0,0,.642-.563,4.643,4.643,0,0,0,.535-.718,5.158,5.158,0,0,0,.655-1.742" transform="translate(-36.439 -13.402)" fill="#00408f"/>
      <path id="Path_38504" data-name="Path 38504" d="M177.518,62.452l-1.17,6.746h-.885l1.421-8.213h.891l2.9,6.777,1.18-6.777h.891L181.323,69.2h-.855Z" transform="translate(-38.734 -13.463)" fill="#00408f"/>
      <path id="Path_38505" data-name="Path 38505" d="M185.427,67.413a5.465,5.465,0,0,0,.485.5,2.639,2.639,0,0,0,.476.341,2.018,2.018,0,0,0,.512.2,2.6,2.6,0,0,0,.587.062,2.989,2.989,0,0,0,.768-.1,2.119,2.119,0,0,0,.655-.291,1.53,1.53,0,0,0,.457-.477,1.25,1.25,0,0,0,.17-.655.927.927,0,0,0-.162-.535,2.055,2.055,0,0,0-.433-.446,5,5,0,0,0-.619-.4q-.348-.194-.721-.408-.487-.283-.835-.53a3.142,3.142,0,0,1-.574-.506,1.708,1.708,0,0,1-.33-.552,1.985,1.985,0,0,1-.105-.672,1.814,1.814,0,0,1,.265-.99,2.238,2.238,0,0,1,.69-.694,3.184,3.184,0,0,1,.951-.409,4.282,4.282,0,0,1,1.056-.133,4.147,4.147,0,0,1,.7.055,2.639,2.639,0,0,1,.608.178,2.5,2.5,0,0,1,.532.317,3.006,3.006,0,0,1,.475.471l-.6.619a2.23,2.23,0,0,0-.787-.713,2.126,2.126,0,0,0-.98-.225,3.428,3.428,0,0,0-.427.029,2.715,2.715,0,0,0-.437.094,2.165,2.165,0,0,0-.407.171,1.431,1.431,0,0,0-.335.252,1.152,1.152,0,0,0-.231.338,1.023,1.023,0,0,0-.086.432,1.336,1.336,0,0,0,.131.618,1.6,1.6,0,0,0,.354.459,2.974,2.974,0,0,0,.524.375q.3.173.642.362.173.095.4.212c.15.079.3.167.461.265a4.432,4.432,0,0,1,.464.333,2.414,2.414,0,0,1,.4.419,2.1,2.1,0,0,1,.286.522,1.783,1.783,0,0,1,.11.639,1.964,1.964,0,0,1-.268,1.043,2.286,2.286,0,0,1-.7.729,3.2,3.2,0,0,1-1,.427,4.7,4.7,0,0,1-1.139.139,4.59,4.59,0,0,1-.842-.07,3.159,3.159,0,0,1-.7-.215,2.846,2.846,0,0,1-.6-.365,4.423,4.423,0,0,1-.545-.518Z" transform="translate(-40.779 -13.402)" fill="#00408f"/>
      <path id="Path_38506" data-name="Path 38506" d="M29.659,23.44H15.291a11.5,11.5,0,0,1-5.4-1.073A7.11,7.11,0,0,1,6.936,19.61a7.937,7.937,0,0,1-1-3.742,15.26,15.26,0,0,1,.445-4.09,17.208,17.208,0,0,1,1.643-4.12A15.022,15.022,0,0,1,11,3.859a14.72,14.72,0,0,1,4.4-2.786A15.348,15.348,0,0,1,21.361,0H52.215L49.486,10.443H23.2a2.874,2.874,0,0,0-1.446.348,1.551,1.551,0,0,0-.78.987.958.958,0,0,0,.306.958,1.815,1.815,0,0,0,1.253.376H36.9a11.752,11.752,0,0,1,5.4,1.045,6.927,6.927,0,0,1,2.952,2.727,7.946,7.946,0,0,1,1,3.742,15.257,15.257,0,0,1-.447,4.091,17.158,17.158,0,0,1-1.643,4.119,15.316,15.316,0,0,1-2.952,3.8,14.362,14.362,0,0,1-4.372,2.785,15.316,15.316,0,0,1-5.958,1.073H.031L2.7,26.051H28.992a2.879,2.879,0,0,0,1.447-.348,1.558,1.558,0,0,0,.779-.986.8.8,0,0,0-.277-.929,2.051,2.051,0,0,0-1.282-.348" transform="translate(-0.007 0)" fill="#00408f"/>
      <path id="Path_38507" data-name="Path 38507" d="M117.423,0H75.375L72.646,10.024H93.134L83.51,11.441,80.383,36.37l13.242.125,8.89-26.47h12.18Z" transform="translate(-16.037 0)" fill="#00408f"/>
      <path id="Path_38508" data-name="Path 38508" d="M155.487,23.44H141.119a11.5,11.5,0,0,1-5.4-1.073,7.11,7.11,0,0,1-2.952-2.756,7.937,7.937,0,0,1-1-3.742,15.258,15.258,0,0,1,.445-4.09,17.207,17.207,0,0,1,1.643-4.12,15.022,15.022,0,0,1,2.981-3.8,14.72,14.72,0,0,1,4.4-2.786A15.348,15.348,0,0,1,147.189,0h30.854l-2.729,10.443H149.026a2.874,2.874,0,0,0-1.446.348,1.551,1.551,0,0,0-.78.987.958.958,0,0,0,.306.958,1.815,1.815,0,0,0,1.253.376h14.368a11.752,11.752,0,0,1,5.4,1.045,6.927,6.927,0,0,1,2.952,2.727,7.946,7.946,0,0,1,1,3.742,15.257,15.257,0,0,1-.447,4.091,17.158,17.158,0,0,1-1.643,4.119,15.315,15.315,0,0,1-2.952,3.8,14.362,14.362,0,0,1-4.372,2.785,15.317,15.317,0,0,1-5.958,1.073H125.859l2.673-10.443H154.82a2.879,2.879,0,0,0,1.447-.348,1.557,1.557,0,0,0,.779-.986.8.8,0,0,0-.277-.929,2.051,2.051,0,0,0-1.282-.348" transform="translate(-27.784 0)" fill="#00408f"/>
    </g>
  </g>
</svg>
