<svg id="TRIPstick" xmlns="http://www.w3.org/2000/svg" width="125.826" height="79.051" viewBox="0 0 125.826 79.051">
  <path id="Path_160" data-name="Path 160" d="M128.152,543.08c-.616-.029-1.013-.062-1.41-.063-1.549-.007-3.1.01-4.646-.008a2.454,2.454,0,0,1-2.585-2.552,2.518,2.518,0,0,1,2.555-2.618c1.548-.042,3.1-.01,4.646-.011h1.326c.038-.478.094-.867.1-1.256.012-1.77-.012-3.54.014-5.309a20.893,20.893,0,0,1,17.259-20.242,22.469,22.469,0,0,1,16.317,3.118,17.245,17.245,0,0,1,8.188,13.365,19.542,19.542,0,0,1-1.375,9.851,11.648,11.648,0,0,1-6.71,6.809,12.878,12.878,0,0,1-10.1-.406,9.021,9.021,0,0,1-4.09-3.758l-.654-1.1c-.294.2-.542.342-.757.522a12.909,12.909,0,0,1-7.608,3.184c-1.469.1-2.934.255-4.4.388-.249.022-.5.058-.876.1.056,2.121-.287,4.211.413,6.256a3.266,3.266,0,0,0,2.876,2.4,2.823,2.823,0,0,0,3.2-1.815,12.651,12.651,0,0,0,.641-2.888,2.508,2.508,0,0,1,2.771-2.378,2.365,2.365,0,0,1,2.286,2.025c.417,3.668-1.516,9.32-7,10.172a8.339,8.339,0,0,1-9.493-5.357,12.284,12.284,0,0,1-.88-4.53C128.145,545.73,128.152,544.484,128.152,543.08Zm5.177-5.321c.527,0,.884.017,1.239,0,.809-.047,1.616-.141,2.424-.166a9.55,9.55,0,0,0,7.586-3.905,19.47,19.47,0,0,0,1.832-2.753,2.569,2.569,0,0,1,3.221-1.442,2.511,2.511,0,0,1,1.7,2.981,9.458,9.458,0,0,0-.03,2.313c.217,1.841.906,3.478,2.715,4.268,3.378,1.477,7.635.941,9.579-3.362a15.058,15.058,0,0,0,1.152-4.359,13.141,13.141,0,0,0-8.076-14.058,18.335,18.335,0,0,0-10.067-1.211,15.752,15.752,0,0,0-12.821,11.923,17.2,17.2,0,0,0-.433,3.383C133.28,533.426,133.329,535.488,133.329,537.759Z" transform="translate(-81.511 -510.638)" fill="#e53b5f"/>
  <path id="Path_161" data-name="Path 161" d="M420.162,572.385c0,1.1.022,2.19-.022,3.277-.007.176-.287.442-.483.49a6.694,6.694,0,0,1-1.734.251,18.6,18.6,0,0,1-3.715-.289,3.962,3.962,0,0,1-3.155-4.122c-.026-2.209-.007-4.419-.008-6.629,0-.4,0-.8,0-1.328h-3.036a14.709,14.709,0,0,1-.043-3.9h3.026V555.7a12.4,12.4,0,0,1,4.785-.089v4.4c1.472.292,2.875-.03,4.319.219v3.723h-4.15a5.765,5.765,0,0,0-.143.841c-.01,1.731-.007,3.462,0,5.193a4.116,4.116,0,0,0,.065.769,1.925,1.925,0,0,0,1.965,1.74C418.521,572.525,419.216,572.434,420.162,572.385Z" transform="translate(-407.858 -502.285)" fill="#e53b5f"/>
  <path id="Path_162" data-name="Path 162" d="M488.806,580.311c-.8-.051-1.454-.128-2.109-.127-2.6,0-4,1.289-4.1,3.871-.094,2.28-.081,4.566-.122,6.849-.008.433-.05.865-.08,1.364h-4.43c-.259-.919-.292-14.693-.033-15.85h4.441c.067.772.132,1.519.215,2.468.627-.713,1.086-1.306,1.62-1.821a3.264,3.264,0,0,1,2.169-.972c.762-.028,1.526-.006,2.377-.006A23.436,23.436,0,0,1,488.806,580.311Z" transform="translate(-462.693 -518.492)" fill="#e53b5f"/>
  <path id="Path_163" data-name="Path 163" d="M541.14,593.469V577.6h4.607v15.872Z" transform="translate(-512.427 -519.683)" fill="#e53b5f"/>
  <path id="Path_164" data-name="Path 164" d="M541.661,546.011A2.763,2.763,0,0,1,538.9,543.2a2.807,2.807,0,0,1,2.728-2.772,2.793,2.793,0,1,1,.038,5.585Z" transform="translate(-510.665 -490.52)" fill="#e53b5f"/>
  <path id="Path_165" data-name="Path 165" d="M587.248,591.583v5.32a10.234,10.234,0,0,1-4.476.117,6.275,6.275,0,0,1-.1-.819c-.006-4.129-.079-8.26.02-12.387a7.916,7.916,0,0,1,5.209-7.546,8.212,8.212,0,0,1,11.044,5.785,8.348,8.348,0,0,1-6.113,10.042,8.052,8.052,0,0,1-4.467-.165C588.053,591.833,587.744,591.738,587.248,591.583Zm3.587-3.614c2.188.136,3.842-2.1,3.841-3.9a3.771,3.771,0,1,0-3.841,3.9Z" transform="translate(-544.984 -518.158)" fill="#e53b5f"/>
  <path id="Path_166" data-name="Path 166" d="M669.164,590.2l2.767-3.056c.338.264.614.492.9.7a4.325,4.325,0,0,0,3.969.727c.523-.155.972-.365,1.034-.988a1.117,1.117,0,0,0-.9-1.233c-.934-.323-1.914-.511-2.863-.8a16.631,16.631,0,0,1-2.387-.825,3.629,3.629,0,0,1-2.151-3.229,4.807,4.807,0,0,1,3.086-5.2,9.934,9.934,0,0,1,7.836.218,9.417,9.417,0,0,1,1.447.97l-2.868,2.729a13.207,13.207,0,0,0-2.116-.924,3.886,3.886,0,0,0-1.718.111,1.122,1.122,0,0,0-.917,1.108,1.084,1.084,0,0,0,.854,1.146c.839.266,1.7.456,2.546.708a15.638,15.638,0,0,1,2.6.858,4.5,4.5,0,0,1,1.2,7.051,5.5,5.5,0,0,1-2.833,1.634,13.14,13.14,0,0,1-7.085-.172A5.026,5.026,0,0,1,669.164,590.2Z" transform="translate(-612.87 -518.121)" fill="#e53b5f"/>
  <path id="Path_167" data-name="Path 167" d="M749.789,576.105a11.142,11.142,0,0,1-6.212-.113,3.827,3.827,0,0,1-2.707-3.783c-.045-2.284-.021-4.57-.039-6.855,0-.429-.062-.857-.1-1.387h-3.034v-3.83h3.115v-4.654c1.63-.1,3.114-.055,4.731-.024v4.58c1.456.2,2.815.009,4.253.141a14.508,14.508,0,0,1,.084,3.741H745.75a5.646,5.646,0,0,0-.153.858c-.006,1.732-.024,3.465.016,5.2.044,1.914.763,2.578,2.669,2.531.472-.012.943-.088,1.41-.134A8.039,8.039,0,0,1,749.789,576.105Z" transform="translate(-666.638 -502.285)" fill="#e53b5f"/>
  <path id="Path_168" data-name="Path 168" d="M812.377,593.514h-4.441a147.005,147.005,0,0,1-.07-15.9h4.325c.419.253.253.74.255,1.152.013,3.31.007,6.621.007,9.932,0,1.214.005,2.428,0,3.642C812.447,592.7,812.406,593.059,812.377,593.514Z" transform="translate(-721.549 -519.7)" fill="#e53b5f"/>
  <path id="Path_169" data-name="Path 169" d="M811.385,543.255a2.7,2.7,0,0,1-2.8,2.749,2.732,2.732,0,0,1-2.7-2.861,2.771,2.771,0,0,1,2.753-2.726A2.729,2.729,0,0,1,811.385,543.255Z" transform="translate(-720.141 -490.512)" fill="#e53b5f"/>
  <path id="Path_170" data-name="Path 170" d="M859.4,577.909l-3.021,3.157a3.868,3.868,0,0,0-3.39-1.045,3.747,3.747,0,0,0-2.341,1.345,4.718,4.718,0,0,0,.156,5.74c1.372,1.514,3.409,1.586,5.584.12l2.992,3.142a6.193,6.193,0,0,1-.609.663,6.266,6.266,0,0,1-2.807,1.219c-4.013.771-7.76-.493-9.713-3.625a8.288,8.288,0,0,1,6.48-12.748,9.811,9.811,0,0,1,4.353.468A4.758,4.758,0,0,1,859.4,577.909Z" transform="translate(-750.812 -518.291)" fill="#e53b5f"/>
  <g id="Group_73" data-name="Group 73" transform="translate(110.724 49.034)">
    <path id="Path_171" data-name="Path 171" d="M921.945,536.379h4.592v24.738h-4.5C921.814,560.3,921.726,538.375,921.945,536.379Z" transform="translate(-921.818 -536.379)" fill="#e53b5f"/>
    <path id="Path_172" data-name="Path 172" d="M951.617,582.325a3.055,3.055,0,0,1,.7-2.127,33.885,33.885,0,0,1,5.419-5.5,2.393,2.393,0,0,1,1.189-.5,1.187,1.187,0,0,1,1.287,1.642,4.479,4.479,0,0,1-.541.954c-.893,1.352-1.8,2.7-2.693,4.047a2.642,2.642,0,0,0,.016,3.2c.915,1.337,1.846,2.664,2.735,4.018a2.894,2.894,0,0,1,.49,1.2,1.2,1.2,0,0,1-1.661,1.278,3.121,3.121,0,0,1-1.133-.661c-1.571-1.553-3.138-3.113-4.638-4.734A3.782,3.782,0,0,1,951.617,582.325Z" transform="translate(-945.19 -566.043)" fill="#e53b5f"/>
  </g>
  <path id="Path_173" data-name="Path 173" d="M206.914,578.362a1.778,1.778,0,0,0,1.7,1.8,1.766,1.766,0,0,0,.062-3.531A1.746,1.746,0,0,0,206.914,578.362Z" transform="translate(-150.085 -562.413)" fill="#e53b5f"/>
</svg>
